<svg xmlns="http://www.w3.org/2000/svg" xmlns:xlink="http://www.w3.org/1999/xlink" width="353" height="198" viewBox="0 0 353 198">
    <defs>
        <path id="a" d="M0 226c3.333-62.667 32.042-110.333 86.125-143 43.271-26.136 68.96 23.162 171.478-30.165C365-3.03 406.549-5.63 425 5c28.152 16.219 29.009 37.077 94 63 64.991 25.923 98.47 62.038 32.341 124.03C485.212 254.024 417 226 305 226H0z"/>
    </defs>
    <g fill="none" fill-rule="evenodd" opacity=".2" transform="matrix(-1 0 0 1 584 0)">
        <mask id="b" fill="#fff">
            <use xlink:href="#a"/>
        </mask>
        <path fill="#B3ADCA" d="M39.589 219.43a4.795 4.795 0 0 1-4.797-4.794 4.795 4.795 0 0 1 4.797-4.793 4.795 4.795 0 0 1 4.796 4.793 4.795 4.795 0 0 1-4.796 4.794zm0-43.14a4.795 4.795 0 0 1-4.797-4.794 4.795 4.795 0 0 1 4.797-4.794 4.795 4.795 0 0 1 4.796 4.794 4.795 4.795 0 0 1-4.796 4.793zM28.797 241A4.795 4.795 0 0 1 24 236.207a4.795 4.795 0 0 1 4.797-4.794 4.795 4.795 0 0 1 4.796 4.794A4.795 4.795 0 0 1 28.797 241zm0-43.14A4.795 4.795 0 0 1 24 193.066a4.795 4.795 0 0 1 4.797-4.793 4.795 4.795 0 0 1 4.796 4.793 4.795 4.795 0 0 1-4.796 4.794zm32.376 21.57a4.795 4.795 0 0 1-4.796-4.794 4.795 4.795 0 0 1 4.796-4.793 4.795 4.795 0 0 1 4.797 4.793 4.795 4.795 0 0 1-4.797 4.794zm0-43.14a4.795 4.795 0 0 1-4.796-4.794 4.795 4.795 0 0 1 4.796-4.794 4.795 4.795 0 0 1 4.797 4.794 4.795 4.795 0 0 1-4.797 4.793zM50.381 241a4.795 4.795 0 0 1-4.796-4.793 4.795 4.795 0 0 1 4.796-4.794 4.795 4.795 0 0 1 4.797 4.794A4.795 4.795 0 0 1 50.38 241zm0-43.14a4.795 4.795 0 0 1-4.796-4.794 4.795 4.795 0 0 1 4.796-4.793 4.795 4.795 0 0 1 4.797 4.793 4.795 4.795 0 0 1-4.797 4.794zm32.377 21.57a4.795 4.795 0 0 1-4.797-4.794 4.795 4.795 0 0 1 4.797-4.793 4.795 4.795 0 0 1 4.797 4.793 4.795 4.795 0 0 1-4.797 4.794zm0-43.14a4.795 4.795 0 0 1-4.797-4.794 4.795 4.795 0 0 1 4.797-4.794 4.795 4.795 0 0 1 4.797 4.794 4.795 4.795 0 0 1-4.797 4.793zM71.966 241a4.795 4.795 0 0 1-4.797-4.793 4.795 4.795 0 0 1 4.797-4.794 4.795 4.795 0 0 1 4.796 4.794A4.795 4.795 0 0 1 71.966 241zm0-43.14a4.795 4.795 0 0 1-4.797-4.794 4.795 4.795 0 0 1 4.797-4.793 4.795 4.795 0 0 1 4.796 4.793 4.795 4.795 0 0 1-4.796 4.794zm32.377 21.57a4.795 4.795 0 0 1-4.797-4.794 4.795 4.795 0 0 1 4.797-4.793 4.795 4.795 0 0 1 4.796 4.793 4.795 4.795 0 0 1-4.796 4.794zm0-43.14a4.795 4.795 0 0 1-4.797-4.794 4.795 4.795 0 0 1 4.797-4.794 4.795 4.795 0 0 1 4.796 4.794 4.795 4.795 0 0 1-4.796 4.793zM93.55 241a4.795 4.795 0 0 1-4.796-4.793 4.795 4.795 0 0 1 4.796-4.794 4.795 4.795 0 0 1 4.797 4.794A4.795 4.795 0 0 1 93.55 241zm0-43.14a4.795 4.795 0 0 1-4.796-4.794 4.795 4.795 0 0 1 4.796-4.793 4.795 4.795 0 0 1 4.797 4.793 4.795 4.795 0 0 1-4.797 4.794zm32.377 21.57a4.795 4.795 0 0 1-4.796-4.794 4.795 4.795 0 0 1 4.796-4.793 4.795 4.795 0 0 1 4.797 4.793 4.795 4.795 0 0 1-4.797 4.794zm0-43.14a4.795 4.795 0 0 1-4.796-4.794 4.795 4.795 0 0 1 4.796-4.794 4.795 4.795 0 0 1 4.797 4.794 4.795 4.795 0 0 1-4.797 4.793zM115.135 241a4.795 4.795 0 0 1-4.797-4.793 4.795 4.795 0 0 1 4.797-4.794 4.795 4.795 0 0 1 4.796 4.794 4.795 4.795 0 0 1-4.796 4.793zm0-43.14a4.795 4.795 0 0 1-4.797-4.794 4.795 4.795 0 0 1 4.797-4.793 4.795 4.795 0 0 1 4.796 4.793 4.795 4.795 0 0 1-4.796 4.794zm32.377 21.57a4.795 4.795 0 0 1-4.797-4.794 4.795 4.795 0 0 1 4.797-4.793 4.795 4.795 0 0 1 4.796 4.793 4.795 4.795 0 0 1-4.796 4.794zm0-43.14a4.795 4.795 0 0 1-4.797-4.794 4.795 4.795 0 0 1 4.797-4.794 4.795 4.795 0 0 1 4.796 4.794 4.795 4.795 0 0 1-4.796 4.793zM136.719 241a4.795 4.795 0 0 1-4.796-4.793 4.795 4.795 0 0 1 4.796-4.794 4.795 4.795 0 0 1 4.797 4.794A4.795 4.795 0 0 1 136.72 241zm0-43.14a4.795 4.795 0 0 1-4.796-4.794 4.795 4.795 0 0 1 4.796-4.793 4.795 4.795 0 0 1 4.797 4.793 4.795 4.795 0 0 1-4.797 4.794zm32.377 21.57a4.795 4.795 0 0 1-4.796-4.794 4.795 4.795 0 0 1 4.796-4.793 4.795 4.795 0 0 1 4.797 4.793 4.795 4.795 0 0 1-4.797 4.794zm0-43.14a4.795 4.795 0 0 1-4.796-4.794 4.795 4.795 0 0 1 4.796-4.794 4.795 4.795 0 0 1 4.797 4.794 4.795 4.795 0 0 1-4.797 4.793zM158.304 241a4.795 4.795 0 0 1-4.797-4.793 4.795 4.795 0 0 1 4.797-4.794 4.795 4.795 0 0 1 4.797 4.794 4.795 4.795 0 0 1-4.797 4.793zm0-43.14a4.795 4.795 0 0 1-4.797-4.794 4.795 4.795 0 0 1 4.797-4.793 4.795 4.795 0 0 1 4.797 4.793 4.795 4.795 0 0 1-4.797 4.794zm32.377 21.57a4.795 4.795 0 0 1-4.797-4.794 4.795 4.795 0 0 1 4.797-4.793 4.795 4.795 0 0 1 4.797 4.793 4.795 4.795 0 0 1-4.797 4.794zm0-43.14a4.795 4.795 0 0 1-4.797-4.794 4.795 4.795 0 0 1 4.797-4.794 4.795 4.795 0 0 1 4.797 4.794 4.795 4.795 0 0 1-4.797 4.793zM179.889 241a4.795 4.795 0 0 1-4.797-4.793 4.795 4.795 0 0 1 4.797-4.794 4.795 4.795 0 0 1 4.796 4.794A4.795 4.795 0 0 1 179.89 241zm0-43.14a4.795 4.795 0 0 1-4.797-4.794 4.795 4.795 0 0 1 4.797-4.793 4.795 4.795 0 0 1 4.796 4.793 4.795 4.795 0 0 1-4.796 4.794zm32.377 21.57a4.795 4.795 0 0 1-4.797-4.794 4.795 4.795 0 0 1 4.797-4.793 4.795 4.795 0 0 1 4.796 4.793 4.795 4.795 0 0 1-4.796 4.794zm0-43.14a4.795 4.795 0 0 1-4.797-4.794 4.795 4.795 0 0 1 4.797-4.794 4.795 4.795 0 0 1 4.796 4.794 4.795 4.795 0 0 1-4.796 4.793zM201.473 241a4.795 4.795 0 0 1-4.796-4.793 4.795 4.795 0 0 1 4.796-4.794 4.795 4.795 0 0 1 4.797 4.794 4.795 4.795 0 0 1-4.797 4.793zm0-43.14a4.795 4.795 0 0 1-4.796-4.794 4.795 4.795 0 0 1 4.796-4.793 4.795 4.795 0 0 1 4.797 4.793 4.795 4.795 0 0 1-4.797 4.794zm32.377 21.57a4.795 4.795 0 0 1-4.796-4.794 4.795 4.795 0 0 1 4.796-4.793 4.795 4.795 0 0 1 4.797 4.793 4.795 4.795 0 0 1-4.797 4.794zm0-43.14a4.795 4.795 0 0 1-4.796-4.794 4.795 4.795 0 0 1 4.796-4.794 4.795 4.795 0 0 1 4.797 4.794 4.795 4.795 0 0 1-4.797 4.793zM223.058 241a4.795 4.795 0 0 1-4.797-4.793 4.795 4.795 0 0 1 4.797-4.794 4.795 4.795 0 0 1 4.796 4.794 4.795 4.795 0 0 1-4.796 4.793zm0-43.14a4.795 4.795 0 0 1-4.797-4.794 4.795 4.795 0 0 1 4.797-4.793 4.795 4.795 0 0 1 4.796 4.793 4.795 4.795 0 0 1-4.796 4.794zm32.377 21.57a4.795 4.795 0 0 1-4.797-4.794 4.795 4.795 0 0 1 4.797-4.793 4.795 4.795 0 0 1 4.796 4.793 4.795 4.795 0 0 1-4.796 4.794zm0-43.14a4.795 4.795 0 0 1-4.797-4.794 4.795 4.795 0 0 1 4.797-4.794 4.795 4.795 0 0 1 4.796 4.794 4.795 4.795 0 0 1-4.796 4.793zM244.642 241a4.795 4.795 0 0 1-4.796-4.793 4.795 4.795 0 0 1 4.796-4.794 4.795 4.795 0 0 1 4.797 4.794 4.795 4.795 0 0 1-4.797 4.793zm0-43.14a4.795 4.795 0 0 1-4.796-4.794 4.795 4.795 0 0 1 4.796-4.793 4.795 4.795 0 0 1 4.797 4.793 4.795 4.795 0 0 1-4.797 4.794zm32.377 21.57a4.795 4.795 0 0 1-4.796-4.794 4.795 4.795 0 0 1 4.796-4.793 4.795 4.795 0 0 1 4.797 4.793 4.795 4.795 0 0 1-4.797 4.794zm0-43.14a4.795 4.795 0 0 1-4.796-4.794 4.795 4.795 0 0 1 4.796-4.794 4.795 4.795 0 0 1 4.797 4.794 4.795 4.795 0 0 1-4.797 4.793zM266.227 241a4.795 4.795 0 0 1-4.797-4.793 4.795 4.795 0 0 1 4.797-4.794 4.795 4.795 0 0 1 4.797 4.794 4.795 4.795 0 0 1-4.797 4.793zm0-43.14a4.795 4.795 0 0 1-4.797-4.794 4.795 4.795 0 0 1 4.797-4.793 4.795 4.795 0 0 1 4.797 4.793 4.795 4.795 0 0 1-4.797 4.794zm32.377 21.57a4.795 4.795 0 0 1-4.797-4.794 4.795 4.795 0 0 1 4.797-4.793 4.795 4.795 0 0 1 4.796 4.793 4.795 4.795 0 0 1-4.796 4.794zm0-43.14a4.795 4.795 0 0 1-4.797-4.794 4.795 4.795 0 0 1 4.797-4.794 4.795 4.795 0 0 1 4.796 4.794 4.795 4.795 0 0 1-4.796 4.793zM287.812 241a4.795 4.795 0 0 1-4.797-4.793 4.795 4.795 0 0 1 4.797-4.794 4.795 4.795 0 0 1 4.796 4.794 4.795 4.795 0 0 1-4.796 4.793zm0-43.14a4.795 4.795 0 0 1-4.797-4.794 4.795 4.795 0 0 1 4.797-4.793 4.795 4.795 0 0 1 4.796 4.793 4.795 4.795 0 0 1-4.796 4.794zm32.376 21.57a4.795 4.795 0 0 1-4.796-4.794 4.795 4.795 0 0 1 4.796-4.793 4.795 4.795 0 0 1 4.797 4.793 4.795 4.795 0 0 1-4.797 4.794zm0-43.14a4.795 4.795 0 0 1-4.796-4.794 4.795 4.795 0 0 1 4.796-4.794 4.795 4.795 0 0 1 4.797 4.794 4.795 4.795 0 0 1-4.797 4.793zM309.396 241a4.795 4.795 0 0 1-4.796-4.793 4.795 4.795 0 0 1 4.796-4.794 4.795 4.795 0 0 1 4.797 4.794 4.795 4.795 0 0 1-4.797 4.793zm0-43.14a4.795 4.795 0 0 1-4.796-4.794 4.795 4.795 0 0 1 4.796-4.793 4.795 4.795 0 0 1 4.797 4.793 4.795 4.795 0 0 1-4.797 4.794zm32.377 21.57a4.795 4.795 0 0 1-4.797-4.794 4.795 4.795 0 0 1 4.797-4.793 4.795 4.795 0 0 1 4.797 4.793 4.795 4.795 0 0 1-4.797 4.794zm0-43.14a4.795 4.795 0 0 1-4.797-4.794 4.795 4.795 0 0 1 4.797-4.794 4.795 4.795 0 0 1 4.797 4.794 4.795 4.795 0 0 1-4.797 4.793zM330.981 241a4.795 4.795 0 0 1-4.797-4.793 4.795 4.795 0 0 1 4.797-4.794 4.795 4.795 0 0 1 4.796 4.794 4.795 4.795 0 0 1-4.796 4.793zm0-43.14a4.795 4.795 0 0 1-4.797-4.794 4.795 4.795 0 0 1 4.797-4.793 4.795 4.795 0 0 1 4.796 4.793 4.795 4.795 0 0 1-4.796 4.794zm32.377 21.57a4.795 4.795 0 0 1-4.797-4.794 4.795 4.795 0 0 1 4.797-4.793 4.795 4.795 0 0 1 4.796 4.793 4.795 4.795 0 0 1-4.796 4.794zm0-43.14a4.795 4.795 0 0 1-4.797-4.794 4.795 4.795 0 0 1 4.797-4.794 4.795 4.795 0 0 1 4.796 4.794 4.795 4.795 0 0 1-4.796 4.793zM352.565 241a4.795 4.795 0 0 1-4.796-4.793 4.795 4.795 0 0 1 4.796-4.794 4.795 4.795 0 0 1 4.797 4.794 4.795 4.795 0 0 1-4.797 4.793zm0-43.14a4.795 4.795 0 0 1-4.796-4.794 4.795 4.795 0 0 1 4.796-4.793 4.795 4.795 0 0 1 4.797 4.793 4.795 4.795 0 0 1-4.797 4.794zm32.377 21.57a4.795 4.795 0 0 1-4.796-4.794 4.795 4.795 0 0 1 4.796-4.793 4.795 4.795 0 0 1 4.797 4.793 4.795 4.795 0 0 1-4.797 4.794zm0-43.14a4.795 4.795 0 0 1-4.796-4.794 4.795 4.795 0 0 1 4.796-4.794 4.795 4.795 0 0 1 4.797 4.794 4.795 4.795 0 0 1-4.797 4.793zM374.15 241a4.795 4.795 0 0 1-4.797-4.793 4.795 4.795 0 0 1 4.797-4.794 4.795 4.795 0 0 1 4.796 4.794A4.795 4.795 0 0 1 374.15 241zm0-43.14a4.795 4.795 0 0 1-4.797-4.794 4.795 4.795 0 0 1 4.797-4.793 4.795 4.795 0 0 1 4.796 4.793 4.795 4.795 0 0 1-4.796 4.794zm32.377 21.57a4.795 4.795 0 0 1-4.797-4.794 4.795 4.795 0 0 1 4.797-4.793 4.795 4.795 0 0 1 4.796 4.793 4.795 4.795 0 0 1-4.796 4.794zm0-43.14a4.795 4.795 0 0 1-4.797-4.794 4.795 4.795 0 0 1 4.797-4.794 4.795 4.795 0 0 1 4.796 4.794 4.795 4.795 0 0 1-4.796 4.793zM395.734 241a4.795 4.795 0 0 1-4.796-4.793 4.795 4.795 0 0 1 4.796-4.794 4.795 4.795 0 0 1 4.797 4.794 4.795 4.795 0 0 1-4.797 4.793zm0-43.14a4.795 4.795 0 0 1-4.796-4.794 4.795 4.795 0 0 1 4.796-4.793 4.795 4.795 0 0 1 4.797 4.793 4.795 4.795 0 0 1-4.797 4.794zm32.377 21.57a4.795 4.795 0 0 1-4.796-4.794 4.795 4.795 0 0 1 4.796-4.793 4.795 4.795 0 0 1 4.797 4.793 4.795 4.795 0 0 1-4.797 4.794zm0-43.14a4.795 4.795 0 0 1-4.796-4.794 4.795 4.795 0 0 1 4.796-4.794 4.795 4.795 0 0 1 4.797 4.794 4.795 4.795 0 0 1-4.797 4.793zM417.32 241a4.795 4.795 0 0 1-4.797-4.793 4.795 4.795 0 0 1 4.797-4.794 4.795 4.795 0 0 1 4.797 4.794 4.795 4.795 0 0 1-4.797 4.793zm0-43.14a4.795 4.795 0 0 1-4.797-4.794 4.795 4.795 0 0 1 4.797-4.793 4.795 4.795 0 0 1 4.797 4.793 4.795 4.795 0 0 1-4.797 4.794zm32.377 21.57a4.795 4.795 0 0 1-4.797-4.794 4.795 4.795 0 0 1 4.797-4.793 4.795 4.795 0 0 1 4.797 4.793 4.795 4.795 0 0 1-4.797 4.794zm0-43.14a4.795 4.795 0 0 1-4.797-4.794 4.795 4.795 0 0 1 4.797-4.794 4.795 4.795 0 0 1 4.797 4.794 4.795 4.795 0 0 1-4.797 4.793zM438.904 241a4.795 4.795 0 0 1-4.797-4.793 4.795 4.795 0 0 1 4.797-4.794 4.795 4.795 0 0 1 4.796 4.794 4.795 4.795 0 0 1-4.796 4.793zm0-43.14a4.795 4.795 0 0 1-4.797-4.794 4.795 4.795 0 0 1 4.797-4.793 4.795 4.795 0 0 1 4.796 4.793 4.795 4.795 0 0 1-4.796 4.794zm32.377 21.57a4.795 4.795 0 0 1-4.797-4.794 4.795 4.795 0 0 1 4.797-4.793 4.795 4.795 0 0 1 4.796 4.793 4.795 4.795 0 0 1-4.796 4.794zm0-43.14a4.795 4.795 0 0 1-4.797-4.794 4.795 4.795 0 0 1 4.797-4.794 4.795 4.795 0 0 1 4.796 4.794 4.795 4.795 0 0 1-4.796 4.793zM460.488 241a4.795 4.795 0 0 1-4.796-4.793 4.795 4.795 0 0 1 4.796-4.794 4.795 4.795 0 0 1 4.797 4.794 4.795 4.795 0 0 1-4.797 4.793zm0-43.14a4.795 4.795 0 0 1-4.796-4.794 4.795 4.795 0 0 1 4.796-4.793 4.795 4.795 0 0 1 4.797 4.793 4.795 4.795 0 0 1-4.797 4.794zm32.377 21.57a4.795 4.795 0 0 1-4.796-4.794 4.795 4.795 0 0 1 4.796-4.793 4.795 4.795 0 0 1 4.797 4.793 4.795 4.795 0 0 1-4.797 4.794zm0-43.14a4.795 4.795 0 0 1-4.796-4.794 4.795 4.795 0 0 1 4.796-4.794 4.795 4.795 0 0 1 4.797 4.794 4.795 4.795 0 0 1-4.797 4.793zM482.073 241a4.795 4.795 0 0 1-4.797-4.793 4.795 4.795 0 0 1 4.797-4.794 4.795 4.795 0 0 1 4.796 4.794 4.795 4.795 0 0 1-4.796 4.793zm0-43.14a4.795 4.795 0 0 1-4.797-4.794 4.795 4.795 0 0 1 4.797-4.793 4.795 4.795 0 0 1 4.796 4.793 4.795 4.795 0 0 1-4.796 4.794zm32.377 21.57a4.795 4.795 0 0 1-4.797-4.794 4.795 4.795 0 0 1 4.797-4.793 4.795 4.795 0 0 1 4.796 4.793 4.795 4.795 0 0 1-4.796 4.794zm0-43.14a4.795 4.795 0 0 1-4.797-4.794 4.795 4.795 0 0 1 4.797-4.794 4.795 4.795 0 0 1 4.796 4.794 4.795 4.795 0 0 1-4.796 4.793zM503.657 241a4.795 4.795 0 0 1-4.796-4.793 4.795 4.795 0 0 1 4.796-4.794 4.795 4.795 0 0 1 4.797 4.794 4.795 4.795 0 0 1-4.797 4.793zm0-43.14a4.795 4.795 0 0 1-4.796-4.794 4.795 4.795 0 0 1 4.796-4.793 4.795 4.795 0 0 1 4.797 4.793 4.795 4.795 0 0 1-4.797 4.794zm32.377 21.57a4.795 4.795 0 0 1-4.796-4.794 4.795 4.795 0 0 1 4.796-4.793 4.795 4.795 0 0 1 4.797 4.793 4.795 4.795 0 0 1-4.797 4.794zm0-43.14a4.795 4.795 0 0 1-4.796-4.794 4.795 4.795 0 0 1 4.796-4.794 4.795 4.795 0 0 1 4.797 4.794 4.795 4.795 0 0 1-4.797 4.793zM525.242 241a4.795 4.795 0 0 1-4.797-4.793 4.795 4.795 0 0 1 4.797-4.794 4.795 4.795 0 0 1 4.797 4.794 4.795 4.795 0 0 1-4.797 4.793zm0-43.14a4.795 4.795 0 0 1-4.797-4.794 4.795 4.795 0 0 1 4.797-4.793 4.795 4.795 0 0 1 4.797 4.793 4.795 4.795 0 0 1-4.797 4.794zm32.377 21.57a4.795 4.795 0 0 1-4.797-4.794 4.795 4.795 0 0 1 4.797-4.793 4.795 4.795 0 0 1 4.796 4.793 4.795 4.795 0 0 1-4.796 4.794zm0-43.14a4.795 4.795 0 0 1-4.797-4.794 4.795 4.795 0 0 1 4.797-4.794 4.795 4.795 0 0 1 4.796 4.794 4.795 4.795 0 0 1-4.796 4.793zM546.827 241a4.795 4.795 0 0 1-4.797-4.793 4.795 4.795 0 0 1 4.797-4.794 4.795 4.795 0 0 1 4.796 4.794 4.795 4.795 0 0 1-4.796 4.793zm0-43.14a4.795 4.795 0 0 1-4.797-4.794 4.795 4.795 0 0 1 4.797-4.793 4.795 4.795 0 0 1 4.796 4.793 4.795 4.795 0 0 1-4.796 4.794zm32.376 21.57a4.795 4.795 0 0 1-4.796-4.794 4.795 4.795 0 0 1 4.796-4.793 4.795 4.795 0 0 1 4.797 4.793 4.795 4.795 0 0 1-4.797 4.794zm0-43.14a4.795 4.795 0 0 1-4.796-4.794 4.795 4.795 0 0 1 4.796-4.794 4.795 4.795 0 0 1 4.797 4.794 4.795 4.795 0 0 1-4.797 4.793zM568.411 241a4.795 4.795 0 0 1-4.796-4.793 4.795 4.795 0 0 1 4.796-4.794 4.795 4.795 0 0 1 4.797 4.794A4.795 4.795 0 0 1 568.41 241zm0-43.14a4.795 4.795 0 0 1-4.796-4.794 4.795 4.795 0 0 1 4.796-4.793 4.795 4.795 0 0 1 4.797 4.793 4.795 4.795 0 0 1-4.797 4.794zM39.59 133.149a4.795 4.795 0 0 1-4.797-4.794 4.795 4.795 0 0 1 4.797-4.793 4.795 4.795 0 0 1 4.796 4.793 4.795 4.795 0 0 1-4.796 4.794zm-10.792 21.57A4.795 4.795 0 0 1 24 149.926a4.795 4.795 0 0 1 4.797-4.794 4.795 4.795 0 0 1 4.796 4.794 4.795 4.795 0 0 1-4.796 4.793zm32.376-21.57a4.795 4.795 0 0 1-4.796-4.794 4.795 4.795 0 0 1 4.796-4.793 4.795 4.795 0 0 1 4.797 4.793 4.795 4.795 0 0 1-4.797 4.794zm-10.792 21.57a4.795 4.795 0 0 1-4.796-4.793 4.795 4.795 0 0 1 4.796-4.794 4.795 4.795 0 0 1 4.797 4.794 4.795 4.795 0 0 1-4.797 4.793zm32.377-21.57a4.795 4.795 0 0 1-4.797-4.794 4.795 4.795 0 0 1 4.797-4.793 4.795 4.795 0 0 1 4.797 4.793 4.795 4.795 0 0 1-4.797 4.794zm-10.792 21.57a4.795 4.795 0 0 1-4.797-4.793 4.795 4.795 0 0 1 4.797-4.794 4.795 4.795 0 0 1 4.796 4.794 4.795 4.795 0 0 1-4.796 4.793zm32.377-21.57a4.795 4.795 0 0 1-4.797-4.794 4.795 4.795 0 0 1 4.797-4.793 4.795 4.795 0 0 1 4.796 4.793 4.795 4.795 0 0 1-4.796 4.794zm-10.793 21.57a4.795 4.795 0 0 1-4.796-4.793 4.795 4.795 0 0 1 4.796-4.794 4.795 4.795 0 0 1 4.797 4.794 4.795 4.795 0 0 1-4.797 4.793zm32.377-21.57a4.795 4.795 0 0 1-4.796-4.794 4.795 4.795 0 0 1 4.796-4.793 4.795 4.795 0 0 1 4.797 4.793 4.795 4.795 0 0 1-4.797 4.794zm-10.792 21.57a4.795 4.795 0 0 1-4.797-4.793 4.795 4.795 0 0 1 4.797-4.794 4.795 4.795 0 0 1 4.796 4.794 4.795 4.795 0 0 1-4.796 4.793zm32.377-21.57a4.795 4.795 0 0 1-4.797-4.794 4.795 4.795 0 0 1 4.797-4.793 4.795 4.795 0 0 1 4.796 4.793 4.795 4.795 0 0 1-4.796 4.794zm-10.793 21.57a4.795 4.795 0 0 1-4.796-4.793 4.795 4.795 0 0 1 4.796-4.794 4.795 4.795 0 0 1 4.797 4.794 4.795 4.795 0 0 1-4.797 4.793zm32.377-21.57a4.795 4.795 0 0 1-4.796-4.794 4.795 4.795 0 0 1 4.796-4.793 4.795 4.795 0 0 1 4.797 4.793 4.795 4.795 0 0 1-4.797 4.794zm-10.792 21.57a4.795 4.795 0 0 1-4.797-4.793 4.795 4.795 0 0 1 4.797-4.794 4.795 4.795 0 0 1 4.797 4.794 4.795 4.795 0 0 1-4.797 4.793zm32.377-21.57a4.795 4.795 0 0 1-4.797-4.794 4.795 4.795 0 0 1 4.797-4.793 4.795 4.795 0 0 1 4.797 4.793 4.795 4.795 0 0 1-4.797 4.794zm-10.792 21.57a4.795 4.795 0 0 1-4.797-4.793 4.795 4.795 0 0 1 4.797-4.794 4.795 4.795 0 0 1 4.796 4.794 4.795 4.795 0 0 1-4.796 4.793zm32.377-21.57a4.795 4.795 0 0 1-4.797-4.794 4.795 4.795 0 0 1 4.797-4.793 4.795 4.795 0 0 1 4.796 4.793 4.795 4.795 0 0 1-4.796 4.794zm-10.793 21.57a4.795 4.795 0 0 1-4.796-4.793 4.795 4.795 0 0 1 4.796-4.794 4.795 4.795 0 0 1 4.797 4.794 4.795 4.795 0 0 1-4.797 4.793zm32.377-21.57a4.795 4.795 0 0 1-4.796-4.794 4.795 4.795 0 0 1 4.796-4.793 4.795 4.795 0 0 1 4.797 4.793 4.795 4.795 0 0 1-4.797 4.794zm-10.792 21.57a4.795 4.795 0 0 1-4.797-4.793 4.795 4.795 0 0 1 4.797-4.794 4.795 4.795 0 0 1 4.796 4.794 4.795 4.795 0 0 1-4.796 4.793zm32.377-21.57a4.795 4.795 0 0 1-4.797-4.794 4.795 4.795 0 0 1 4.797-4.793 4.795 4.795 0 0 1 4.796 4.793 4.795 4.795 0 0 1-4.796 4.794zm-10.793 21.57a4.795 4.795 0 0 1-4.796-4.793 4.795 4.795 0 0 1 4.796-4.794 4.795 4.795 0 0 1 4.797 4.794 4.795 4.795 0 0 1-4.797 4.793zm32.377-21.57a4.795 4.795 0 0 1-4.796-4.794 4.795 4.795 0 0 1 4.796-4.793 4.795 4.795 0 0 1 4.797 4.793 4.795 4.795 0 0 1-4.797 4.794zm-10.792 21.57a4.795 4.795 0 0 1-4.797-4.793 4.795 4.795 0 0 1 4.797-4.794 4.795 4.795 0 0 1 4.797 4.794 4.795 4.795 0 0 1-4.797 4.793zm32.377-21.57a4.795 4.795 0 0 1-4.797-4.794 4.795 4.795 0 0 1 4.797-4.793 4.795 4.795 0 0 1 4.796 4.793 4.795 4.795 0 0 1-4.796 4.794zm-10.792 21.57a4.795 4.795 0 0 1-4.797-4.793 4.795 4.795 0 0 1 4.797-4.794 4.795 4.795 0 0 1 4.796 4.794 4.795 4.795 0 0 1-4.796 4.793zm32.376-21.57a4.795 4.795 0 0 1-4.796-4.794 4.795 4.795 0 0 1 4.796-4.793 4.795 4.795 0 0 1 4.797 4.793 4.795 4.795 0 0 1-4.797 4.794zm-10.792 21.57a4.795 4.795 0 0 1-4.796-4.793 4.795 4.795 0 0 1 4.796-4.794 4.795 4.795 0 0 1 4.797 4.794 4.795 4.795 0 0 1-4.797 4.793zm32.377-21.57a4.795 4.795 0 0 1-4.797-4.794 4.795 4.795 0 0 1 4.797-4.793 4.795 4.795 0 0 1 4.797 4.793 4.795 4.795 0 0 1-4.797 4.794zm-10.792 21.57a4.795 4.795 0 0 1-4.797-4.793 4.795 4.795 0 0 1 4.797-4.794 4.795 4.795 0 0 1 4.796 4.794 4.795 4.795 0 0 1-4.796 4.793zm32.377-21.57a4.795 4.795 0 0 1-4.797-4.794 4.795 4.795 0 0 1 4.797-4.793 4.795 4.795 0 0 1 4.796 4.793 4.795 4.795 0 0 1-4.796 4.794zm-10.793 21.57a4.795 4.795 0 0 1-4.796-4.793 4.795 4.795 0 0 1 4.796-4.794 4.795 4.795 0 0 1 4.797 4.794 4.795 4.795 0 0 1-4.797 4.793zm32.377-21.57a4.795 4.795 0 0 1-4.796-4.794 4.795 4.795 0 0 1 4.796-4.793 4.795 4.795 0 0 1 4.797 4.793 4.795 4.795 0 0 1-4.797 4.794zm-10.792 21.57a4.795 4.795 0 0 1-4.797-4.793 4.795 4.795 0 0 1 4.797-4.794 4.795 4.795 0 0 1 4.796 4.794 4.795 4.795 0 0 1-4.796 4.793zm32.377-21.57a4.795 4.795 0 0 1-4.797-4.794 4.795 4.795 0 0 1 4.797-4.793 4.795 4.795 0 0 1 4.796 4.793 4.795 4.795 0 0 1-4.796 4.794zm-10.793 21.57a4.795 4.795 0 0 1-4.796-4.793 4.795 4.795 0 0 1 4.796-4.794 4.795 4.795 0 0 1 4.797 4.794 4.795 4.795 0 0 1-4.797 4.793zm32.377-21.57a4.795 4.795 0 0 1-4.796-4.794 4.795 4.795 0 0 1 4.796-4.793 4.795 4.795 0 0 1 4.797 4.793 4.795 4.795 0 0 1-4.797 4.794zm-10.792 21.57a4.795 4.795 0 0 1-4.797-4.793 4.795 4.795 0 0 1 4.797-4.794 4.795 4.795 0 0 1 4.797 4.794 4.795 4.795 0 0 1-4.797 4.793zm32.377-21.57a4.795 4.795 0 0 1-4.797-4.794 4.795 4.795 0 0 1 4.797-4.793 4.795 4.795 0 0 1 4.797 4.793 4.795 4.795 0 0 1-4.797 4.794zm-10.792 21.57a4.795 4.795 0 0 1-4.797-4.793 4.795 4.795 0 0 1 4.797-4.794 4.795 4.795 0 0 1 4.796 4.794 4.795 4.795 0 0 1-4.796 4.793zm32.377-21.57a4.795 4.795 0 0 1-4.797-4.794 4.795 4.795 0 0 1 4.797-4.793 4.795 4.795 0 0 1 4.796 4.793 4.795 4.795 0 0 1-4.796 4.794zm-10.793 21.57a4.795 4.795 0 0 1-4.796-4.793 4.795 4.795 0 0 1 4.796-4.794 4.795 4.795 0 0 1 4.797 4.794 4.795 4.795 0 0 1-4.797 4.793zm32.377-21.57a4.795 4.795 0 0 1-4.796-4.794 4.795 4.795 0 0 1 4.796-4.793 4.795 4.795 0 0 1 4.797 4.793 4.795 4.795 0 0 1-4.797 4.794zm-10.792 21.57a4.795 4.795 0 0 1-4.797-4.793 4.795 4.795 0 0 1 4.797-4.794 4.795 4.795 0 0 1 4.796 4.794 4.795 4.795 0 0 1-4.796 4.793zm32.377-21.57a4.795 4.795 0 0 1-4.797-4.794 4.795 4.795 0 0 1 4.797-4.793 4.795 4.795 0 0 1 4.796 4.793 4.795 4.795 0 0 1-4.796 4.794zm-10.793 21.57a4.795 4.795 0 0 1-4.796-4.793 4.795 4.795 0 0 1 4.796-4.794 4.795 4.795 0 0 1 4.797 4.794 4.795 4.795 0 0 1-4.797 4.793zm32.377-21.57a4.795 4.795 0 0 1-4.796-4.794 4.795 4.795 0 0 1 4.796-4.793 4.795 4.795 0 0 1 4.797 4.793 4.795 4.795 0 0 1-4.797 4.794zm-10.792 21.57a4.795 4.795 0 0 1-4.797-4.793 4.795 4.795 0 0 1 4.797-4.794 4.795 4.795 0 0 1 4.797 4.794 4.795 4.795 0 0 1-4.797 4.793zm32.377-21.57a4.795 4.795 0 0 1-4.797-4.794 4.795 4.795 0 0 1 4.797-4.793 4.795 4.795 0 0 1 4.796 4.793 4.795 4.795 0 0 1-4.796 4.794zm-10.792 21.57a4.795 4.795 0 0 1-4.797-4.793 4.795 4.795 0 0 1 4.797-4.794 4.795 4.795 0 0 1 4.796 4.794 4.795 4.795 0 0 1-4.796 4.793zm32.376-21.57a4.795 4.795 0 0 1-4.796-4.794 4.795 4.795 0 0 1 4.796-4.793 4.795 4.795 0 0 1 4.797 4.793 4.795 4.795 0 0 1-4.797 4.794zm-10.792 21.57a4.795 4.795 0 0 1-4.796-4.793 4.795 4.795 0 0 1 4.796-4.794 4.795 4.795 0 0 1 4.797 4.794 4.795 4.795 0 0 1-4.797 4.793zM39.59 90.009a4.795 4.795 0 0 1-4.797-4.794 4.795 4.795 0 0 1 4.797-4.794 4.795 4.795 0 0 1 4.796 4.794 4.795 4.795 0 0 1-4.796 4.793zm-10.792 21.57A4.795 4.795 0 0 1 24 106.785a4.795 4.795 0 0 1 4.797-4.793 4.795 4.795 0 0 1 4.796 4.793 4.795 4.795 0 0 1-4.796 4.794zm32.376-21.57a4.795 4.795 0 0 1-4.796-4.794 4.795 4.795 0 0 1 4.796-4.794 4.795 4.795 0 0 1 4.797 4.794 4.795 4.795 0 0 1-4.797 4.793zm-10.792 21.57a4.795 4.795 0 0 1-4.796-4.794 4.795 4.795 0 0 1 4.796-4.793 4.795 4.795 0 0 1 4.797 4.793 4.795 4.795 0 0 1-4.797 4.794zm32.377-21.57a4.795 4.795 0 0 1-4.797-4.794 4.795 4.795 0 0 1 4.797-4.794 4.795 4.795 0 0 1 4.797 4.794 4.795 4.795 0 0 1-4.797 4.793zm-10.792 21.57a4.795 4.795 0 0 1-4.797-4.794 4.795 4.795 0 0 1 4.797-4.793 4.795 4.795 0 0 1 4.796 4.793 4.795 4.795 0 0 1-4.796 4.794zm32.377-21.57a4.795 4.795 0 0 1-4.797-4.794 4.795 4.795 0 0 1 4.797-4.794 4.795 4.795 0 0 1 4.796 4.794 4.795 4.795 0 0 1-4.796 4.793zm-10.793 21.57a4.795 4.795 0 0 1-4.796-4.794 4.795 4.795 0 0 1 4.796-4.793 4.795 4.795 0 0 1 4.797 4.793 4.795 4.795 0 0 1-4.797 4.794zm32.377-21.57a4.795 4.795 0 0 1-4.796-4.794 4.795 4.795 0 0 1 4.796-4.794 4.795 4.795 0 0 1 4.797 4.794 4.795 4.795 0 0 1-4.797 4.793zm-10.792 21.57a4.795 4.795 0 0 1-4.797-4.794 4.795 4.795 0 0 1 4.797-4.793 4.795 4.795 0 0 1 4.796 4.793 4.795 4.795 0 0 1-4.796 4.794zm32.377-21.57a4.795 4.795 0 0 1-4.797-4.794 4.795 4.795 0 0 1 4.797-4.794 4.795 4.795 0 0 1 4.796 4.794 4.795 4.795 0 0 1-4.796 4.793zm-10.793 21.57a4.795 4.795 0 0 1-4.796-4.794 4.795 4.795 0 0 1 4.796-4.793 4.795 4.795 0 0 1 4.797 4.793 4.795 4.795 0 0 1-4.797 4.794zm32.377-21.57a4.795 4.795 0 0 1-4.796-4.794 4.795 4.795 0 0 1 4.796-4.794 4.795 4.795 0 0 1 4.797 4.794 4.795 4.795 0 0 1-4.797 4.793zm-10.792 21.57a4.795 4.795 0 0 1-4.797-4.794 4.795 4.795 0 0 1 4.797-4.793 4.795 4.795 0 0 1 4.797 4.793 4.795 4.795 0 0 1-4.797 4.794zm32.377-21.57a4.795 4.795 0 0 1-4.797-4.794 4.795 4.795 0 0 1 4.797-4.794 4.795 4.795 0 0 1 4.797 4.794 4.795 4.795 0 0 1-4.797 4.793zm-10.792 21.57a4.795 4.795 0 0 1-4.797-4.794 4.795 4.795 0 0 1 4.797-4.793 4.795 4.795 0 0 1 4.796 4.793 4.795 4.795 0 0 1-4.796 4.794zm32.377-21.57a4.795 4.795 0 0 1-4.797-4.794 4.795 4.795 0 0 1 4.797-4.794 4.795 4.795 0 0 1 4.796 4.794 4.795 4.795 0 0 1-4.796 4.793zm-10.793 21.57a4.795 4.795 0 0 1-4.796-4.794 4.795 4.795 0 0 1 4.796-4.793 4.795 4.795 0 0 1 4.797 4.793 4.795 4.795 0 0 1-4.797 4.794zm32.377-21.57a4.795 4.795 0 0 1-4.796-4.794 4.795 4.795 0 0 1 4.796-4.794 4.795 4.795 0 0 1 4.797 4.794 4.795 4.795 0 0 1-4.797 4.793zm-10.792 21.57a4.795 4.795 0 0 1-4.797-4.794 4.795 4.795 0 0 1 4.797-4.793 4.795 4.795 0 0 1 4.796 4.793 4.795 4.795 0 0 1-4.796 4.794zm32.377-21.57a4.795 4.795 0 0 1-4.797-4.794 4.795 4.795 0 0 1 4.797-4.794 4.795 4.795 0 0 1 4.796 4.794 4.795 4.795 0 0 1-4.796 4.793zm-10.793 21.57a4.795 4.795 0 0 1-4.796-4.794 4.795 4.795 0 0 1 4.796-4.793 4.795 4.795 0 0 1 4.797 4.793 4.795 4.795 0 0 1-4.797 4.794zm32.377-21.57a4.795 4.795 0 0 1-4.796-4.794 4.795 4.795 0 0 1 4.796-4.794 4.795 4.795 0 0 1 4.797 4.794 4.795 4.795 0 0 1-4.797 4.793zm-10.792 21.57a4.795 4.795 0 0 1-4.797-4.794 4.795 4.795 0 0 1 4.797-4.793 4.795 4.795 0 0 1 4.797 4.793 4.795 4.795 0 0 1-4.797 4.794zm32.377-21.57a4.795 4.795 0 0 1-4.797-4.794 4.795 4.795 0 0 1 4.797-4.794 4.795 4.795 0 0 1 4.796 4.794 4.795 4.795 0 0 1-4.796 4.793zm-10.792 21.57a4.795 4.795 0 0 1-4.797-4.794 4.795 4.795 0 0 1 4.797-4.793 4.795 4.795 0 0 1 4.796 4.793 4.795 4.795 0 0 1-4.796 4.794zm32.376-21.57a4.795 4.795 0 0 1-4.796-4.794 4.795 4.795 0 0 1 4.796-4.794 4.795 4.795 0 0 1 4.797 4.794 4.795 4.795 0 0 1-4.797 4.793zm-10.792 21.57a4.795 4.795 0 0 1-4.796-4.794 4.795 4.795 0 0 1 4.796-4.793 4.795 4.795 0 0 1 4.797 4.793 4.795 4.795 0 0 1-4.797 4.794zm32.377-21.57a4.795 4.795 0 0 1-4.797-4.794 4.795 4.795 0 0 1 4.797-4.794 4.795 4.795 0 0 1 4.797 4.794 4.795 4.795 0 0 1-4.797 4.793zm-10.792 21.57a4.795 4.795 0 0 1-4.797-4.794 4.795 4.795 0 0 1 4.797-4.793 4.795 4.795 0 0 1 4.796 4.793 4.795 4.795 0 0 1-4.796 4.794zm32.377-21.57a4.795 4.795 0 0 1-4.797-4.794 4.795 4.795 0 0 1 4.797-4.794 4.795 4.795 0 0 1 4.796 4.794 4.795 4.795 0 0 1-4.796 4.793zm-10.793 21.57a4.795 4.795 0 0 1-4.796-4.794 4.795 4.795 0 0 1 4.796-4.793 4.795 4.795 0 0 1 4.797 4.793 4.795 4.795 0 0 1-4.797 4.794zm32.377-21.57a4.795 4.795 0 0 1-4.796-4.794 4.795 4.795 0 0 1 4.796-4.794 4.795 4.795 0 0 1 4.797 4.794 4.795 4.795 0 0 1-4.797 4.793zm-10.792 21.57a4.795 4.795 0 0 1-4.797-4.794 4.795 4.795 0 0 1 4.797-4.793 4.795 4.795 0 0 1 4.796 4.793 4.795 4.795 0 0 1-4.796 4.794zm32.377-21.57a4.795 4.795 0 0 1-4.797-4.794 4.795 4.795 0 0 1 4.797-4.794 4.795 4.795 0 0 1 4.796 4.794 4.795 4.795 0 0 1-4.796 4.793zm-10.793 21.57a4.795 4.795 0 0 1-4.796-4.794 4.795 4.795 0 0 1 4.796-4.793 4.795 4.795 0 0 1 4.797 4.793 4.795 4.795 0 0 1-4.797 4.794zm32.377-21.57a4.795 4.795 0 0 1-4.796-4.794 4.795 4.795 0 0 1 4.796-4.794 4.795 4.795 0 0 1 4.797 4.794 4.795 4.795 0 0 1-4.797 4.793zm-10.792 21.57a4.795 4.795 0 0 1-4.797-4.794 4.795 4.795 0 0 1 4.797-4.793 4.795 4.795 0 0 1 4.797 4.793 4.795 4.795 0 0 1-4.797 4.794zm32.377-21.57a4.795 4.795 0 0 1-4.797-4.794 4.795 4.795 0 0 1 4.797-4.794 4.795 4.795 0 0 1 4.797 4.794 4.795 4.795 0 0 1-4.797 4.793zm-10.792 21.57a4.795 4.795 0 0 1-4.797-4.794 4.795 4.795 0 0 1 4.797-4.793 4.795 4.795 0 0 1 4.796 4.793 4.795 4.795 0 0 1-4.796 4.794zm32.377-21.57a4.795 4.795 0 0 1-4.797-4.794 4.795 4.795 0 0 1 4.797-4.794 4.795 4.795 0 0 1 4.796 4.794 4.795 4.795 0 0 1-4.796 4.793zm-10.793 21.57a4.795 4.795 0 0 1-4.796-4.794 4.795 4.795 0 0 1 4.796-4.793 4.795 4.795 0 0 1 4.797 4.793 4.795 4.795 0 0 1-4.797 4.794zm32.377-21.57a4.795 4.795 0 0 1-4.796-4.794 4.795 4.795 0 0 1 4.796-4.794 4.795 4.795 0 0 1 4.797 4.794 4.795 4.795 0 0 1-4.797 4.793zm-10.792 21.57a4.795 4.795 0 0 1-4.797-4.794 4.795 4.795 0 0 1 4.797-4.793 4.795 4.795 0 0 1 4.796 4.793 4.795 4.795 0 0 1-4.796 4.794zm32.377-21.57a4.795 4.795 0 0 1-4.797-4.794 4.795 4.795 0 0 1 4.797-4.794 4.795 4.795 0 0 1 4.796 4.794 4.795 4.795 0 0 1-4.796 4.793zm-10.793 21.57a4.795 4.795 0 0 1-4.796-4.794 4.795 4.795 0 0 1 4.796-4.793 4.795 4.795 0 0 1 4.797 4.793 4.795 4.795 0 0 1-4.797 4.794zm32.377-21.57a4.795 4.795 0 0 1-4.796-4.794 4.795 4.795 0 0 1 4.796-4.794 4.795 4.795 0 0 1 4.797 4.794 4.795 4.795 0 0 1-4.797 4.793zm-10.792 21.57a4.795 4.795 0 0 1-4.797-4.794 4.795 4.795 0 0 1 4.797-4.793 4.795 4.795 0 0 1 4.797 4.793 4.795 4.795 0 0 1-4.797 4.794zm32.377-21.57a4.795 4.795 0 0 1-4.797-4.794 4.795 4.795 0 0 1 4.797-4.794 4.795 4.795 0 0 1 4.796 4.794 4.795 4.795 0 0 1-4.796 4.793zm-10.792 21.57a4.795 4.795 0 0 1-4.797-4.794 4.795 4.795 0 0 1 4.797-4.793 4.795 4.795 0 0 1 4.796 4.793 4.795 4.795 0 0 1-4.796 4.794zm32.376-21.57a4.795 4.795 0 0 1-4.796-4.794 4.795 4.795 0 0 1 4.796-4.794A4.795 4.795 0 0 1 584 85.215a4.795 4.795 0 0 1-4.797 4.793zm-10.792 21.57a4.795 4.795 0 0 1-4.796-4.794 4.795 4.795 0 0 1 4.796-4.793 4.795 4.795 0 0 1 4.797 4.793 4.795 4.795 0 0 1-4.797 4.794zM39.59 46.868a4.795 4.795 0 0 1-4.797-4.794 4.795 4.795 0 0 1 4.797-4.793 4.795 4.795 0 0 1 4.796 4.793 4.795 4.795 0 0 1-4.796 4.794zm-10.792 21.57A4.795 4.795 0 0 1 24 63.645a4.795 4.795 0 0 1 4.797-4.794 4.795 4.795 0 0 1 4.796 4.794 4.795 4.795 0 0 1-4.796 4.793zm32.376-21.57a4.795 4.795 0 0 1-4.796-4.794 4.795 4.795 0 0 1 4.796-4.793 4.795 4.795 0 0 1 4.797 4.793 4.795 4.795 0 0 1-4.797 4.794zm-10.792 21.57a4.795 4.795 0 0 1-4.796-4.793 4.795 4.795 0 0 1 4.796-4.794 4.795 4.795 0 0 1 4.797 4.794 4.795 4.795 0 0 1-4.797 4.793zm32.377-21.57a4.795 4.795 0 0 1-4.797-4.794 4.795 4.795 0 0 1 4.797-4.793 4.795 4.795 0 0 1 4.797 4.793 4.795 4.795 0 0 1-4.797 4.794zm-10.792 21.57a4.795 4.795 0 0 1-4.797-4.793 4.795 4.795 0 0 1 4.797-4.794 4.795 4.795 0 0 1 4.796 4.794 4.795 4.795 0 0 1-4.796 4.793zm32.377-21.57a4.795 4.795 0 0 1-4.797-4.794 4.795 4.795 0 0 1 4.797-4.793 4.795 4.795 0 0 1 4.796 4.793 4.795 4.795 0 0 1-4.796 4.794zM93.55 68.438a4.795 4.795 0 0 1-4.796-4.793 4.795 4.795 0 0 1 4.796-4.794 4.795 4.795 0 0 1 4.797 4.794 4.795 4.795 0 0 1-4.797 4.793zm32.377-21.57a4.795 4.795 0 0 1-4.796-4.794 4.795 4.795 0 0 1 4.796-4.793 4.795 4.795 0 0 1 4.797 4.793 4.795 4.795 0 0 1-4.797 4.794zm-10.792 21.57a4.795 4.795 0 0 1-4.797-4.793 4.795 4.795 0 0 1 4.797-4.794 4.795 4.795 0 0 1 4.796 4.794 4.795 4.795 0 0 1-4.796 4.793zm32.377-21.57a4.795 4.795 0 0 1-4.797-4.794 4.795 4.795 0 0 1 4.797-4.793 4.795 4.795 0 0 1 4.796 4.793 4.795 4.795 0 0 1-4.796 4.794zm-10.793 21.57a4.795 4.795 0 0 1-4.796-4.793 4.795 4.795 0 0 1 4.796-4.794 4.795 4.795 0 0 1 4.797 4.794 4.795 4.795 0 0 1-4.797 4.793zm32.377-21.57a4.795 4.795 0 0 1-4.796-4.794 4.795 4.795 0 0 1 4.796-4.793 4.795 4.795 0 0 1 4.797 4.793 4.795 4.795 0 0 1-4.797 4.794zm-10.792 21.57a4.795 4.795 0 0 1-4.797-4.793 4.795 4.795 0 0 1 4.797-4.794 4.795 4.795 0 0 1 4.797 4.794 4.795 4.795 0 0 1-4.797 4.793zm32.377-21.57a4.795 4.795 0 0 1-4.797-4.794 4.795 4.795 0 0 1 4.797-4.793 4.795 4.795 0 0 1 4.797 4.793 4.795 4.795 0 0 1-4.797 4.794zm-10.792 21.57a4.795 4.795 0 0 1-4.797-4.793 4.795 4.795 0 0 1 4.797-4.794 4.795 4.795 0 0 1 4.796 4.794 4.795 4.795 0 0 1-4.796 4.793zm32.377-21.57a4.795 4.795 0 0 1-4.797-4.794 4.795 4.795 0 0 1 4.797-4.793 4.795 4.795 0 0 1 4.796 4.793 4.795 4.795 0 0 1-4.796 4.794zm-10.793 21.57a4.795 4.795 0 0 1-4.796-4.793 4.795 4.795 0 0 1 4.796-4.794 4.795 4.795 0 0 1 4.797 4.794 4.795 4.795 0 0 1-4.797 4.793zm32.377-21.57a4.795 4.795 0 0 1-4.796-4.794 4.795 4.795 0 0 1 4.796-4.793 4.795 4.795 0 0 1 4.797 4.793 4.795 4.795 0 0 1-4.797 4.794zm-10.792 21.57a4.795 4.795 0 0 1-4.797-4.793 4.795 4.795 0 0 1 4.797-4.794 4.795 4.795 0 0 1 4.796 4.794 4.795 4.795 0 0 1-4.796 4.793zm32.377-21.57a4.795 4.795 0 0 1-4.797-4.794 4.795 4.795 0 0 1 4.797-4.793 4.795 4.795 0 0 1 4.796 4.793 4.795 4.795 0 0 1-4.796 4.794zm-10.793 21.57a4.795 4.795 0 0 1-4.796-4.793 4.795 4.795 0 0 1 4.796-4.794 4.795 4.795 0 0 1 4.797 4.794 4.795 4.795 0 0 1-4.797 4.793zm32.377-21.57a4.795 4.795 0 0 1-4.796-4.794 4.795 4.795 0 0 1 4.796-4.793 4.795 4.795 0 0 1 4.797 4.793 4.795 4.795 0 0 1-4.797 4.794zm-10.792 21.57a4.795 4.795 0 0 1-4.797-4.793 4.795 4.795 0 0 1 4.797-4.794 4.795 4.795 0 0 1 4.797 4.794 4.795 4.795 0 0 1-4.797 4.793zm32.377-21.57a4.795 4.795 0 0 1-4.797-4.794 4.795 4.795 0 0 1 4.797-4.793 4.795 4.795 0 0 1 4.796 4.793 4.795 4.795 0 0 1-4.796 4.794zm-10.792 21.57a4.795 4.795 0 0 1-4.797-4.793 4.795 4.795 0 0 1 4.797-4.794 4.795 4.795 0 0 1 4.796 4.794 4.795 4.795 0 0 1-4.796 4.793zm32.376-21.57a4.795 4.795 0 0 1-4.796-4.794 4.795 4.795 0 0 1 4.796-4.793 4.795 4.795 0 0 1 4.797 4.793 4.795 4.795 0 0 1-4.797 4.794zm-10.792 21.57a4.795 4.795 0 0 1-4.796-4.793 4.795 4.795 0 0 1 4.796-4.794 4.795 4.795 0 0 1 4.797 4.794 4.795 4.795 0 0 1-4.797 4.793zm32.377-21.57a4.795 4.795 0 0 1-4.797-4.794 4.795 4.795 0 0 1 4.797-4.793 4.795 4.795 0 0 1 4.797 4.793 4.795 4.795 0 0 1-4.797 4.794zm-10.792 21.57a4.795 4.795 0 0 1-4.797-4.793 4.795 4.795 0 0 1 4.797-4.794 4.795 4.795 0 0 1 4.796 4.794 4.795 4.795 0 0 1-4.796 4.793zm32.377-21.57a4.795 4.795 0 0 1-4.797-4.794 4.795 4.795 0 0 1 4.797-4.793 4.795 4.795 0 0 1 4.796 4.793 4.795 4.795 0 0 1-4.796 4.794zm-10.793 21.57a4.795 4.795 0 0 1-4.796-4.793 4.795 4.795 0 0 1 4.796-4.794 4.795 4.795 0 0 1 4.797 4.794 4.795 4.795 0 0 1-4.797 4.793zm32.377-21.57a4.795 4.795 0 0 1-4.796-4.794 4.795 4.795 0 0 1 4.796-4.793 4.795 4.795 0 0 1 4.797 4.793 4.795 4.795 0 0 1-4.797 4.794zm-10.792 21.57a4.795 4.795 0 0 1-4.797-4.793 4.795 4.795 0 0 1 4.797-4.794 4.795 4.795 0 0 1 4.796 4.794 4.795 4.795 0 0 1-4.796 4.793zm32.377-21.57a4.795 4.795 0 0 1-4.797-4.794 4.795 4.795 0 0 1 4.797-4.793 4.795 4.795 0 0 1 4.796 4.793 4.795 4.795 0 0 1-4.796 4.794zm-10.793 21.57a4.795 4.795 0 0 1-4.796-4.793 4.795 4.795 0 0 1 4.796-4.794 4.795 4.795 0 0 1 4.797 4.794 4.795 4.795 0 0 1-4.797 4.793zm32.377-21.57a4.795 4.795 0 0 1-4.796-4.794 4.795 4.795 0 0 1 4.796-4.793 4.795 4.795 0 0 1 4.797 4.793 4.795 4.795 0 0 1-4.797 4.794zm-10.792 21.57a4.795 4.795 0 0 1-4.797-4.793 4.795 4.795 0 0 1 4.797-4.794 4.795 4.795 0 0 1 4.797 4.794 4.795 4.795 0 0 1-4.797 4.793zm32.377-21.57a4.795 4.795 0 0 1-4.797-4.794 4.795 4.795 0 0 1 4.797-4.793 4.795 4.795 0 0 1 4.797 4.793 4.795 4.795 0 0 1-4.797 4.794zm-10.792 21.57a4.795 4.795 0 0 1-4.797-4.793 4.795 4.795 0 0 1 4.797-4.794 4.795 4.795 0 0 1 4.796 4.794 4.795 4.795 0 0 1-4.796 4.793zm32.377-21.57a4.795 4.795 0 0 1-4.797-4.794 4.795 4.795 0 0 1 4.797-4.793 4.795 4.795 0 0 1 4.796 4.793 4.795 4.795 0 0 1-4.796 4.794zm-10.793 21.57a4.795 4.795 0 0 1-4.796-4.793 4.795 4.795 0 0 1 4.796-4.794 4.795 4.795 0 0 1 4.797 4.794 4.795 4.795 0 0 1-4.797 4.793zm32.377-21.57a4.795 4.795 0 0 1-4.796-4.794 4.795 4.795 0 0 1 4.796-4.793 4.795 4.795 0 0 1 4.797 4.793 4.795 4.795 0 0 1-4.797 4.794zm-10.792 21.57a4.795 4.795 0 0 1-4.797-4.793 4.795 4.795 0 0 1 4.797-4.794 4.795 4.795 0 0 1 4.796 4.794 4.795 4.795 0 0 1-4.796 4.793zm32.377-21.57a4.795 4.795 0 0 1-4.797-4.794 4.795 4.795 0 0 1 4.797-4.793 4.795 4.795 0 0 1 4.796 4.793 4.795 4.795 0 0 1-4.796 4.794zm-10.793 21.57a4.795 4.795 0 0 1-4.796-4.793 4.795 4.795 0 0 1 4.796-4.794 4.795 4.795 0 0 1 4.797 4.794 4.795 4.795 0 0 1-4.797 4.793zm32.377-21.57a4.795 4.795 0 0 1-4.796-4.794 4.795 4.795 0 0 1 4.796-4.793 4.795 4.795 0 0 1 4.797 4.793 4.795 4.795 0 0 1-4.797 4.794zm-10.792 21.57a4.795 4.795 0 0 1-4.797-4.793 4.795 4.795 0 0 1 4.797-4.794 4.795 4.795 0 0 1 4.797 4.794 4.795 4.795 0 0 1-4.797 4.793zm32.377-21.57a4.795 4.795 0 0 1-4.797-4.794 4.795 4.795 0 0 1 4.797-4.793 4.795 4.795 0 0 1 4.796 4.793 4.795 4.795 0 0 1-4.796 4.794zm-10.792 21.57a4.795 4.795 0 0 1-4.797-4.793 4.795 4.795 0 0 1 4.797-4.794 4.795 4.795 0 0 1 4.796 4.794 4.795 4.795 0 0 1-4.796 4.793zm32.376-21.57a4.795 4.795 0 0 1-4.796-4.794 4.795 4.795 0 0 1 4.796-4.793A4.795 4.795 0 0 1 584 42.074a4.795 4.795 0 0 1-4.797 4.794zm-10.792 21.57a4.795 4.795 0 0 1-4.796-4.793 4.795 4.795 0 0 1 4.796-4.794 4.795 4.795 0 0 1 4.797 4.794 4.795 4.795 0 0 1-4.797 4.793zM39.59 3.728a4.795 4.795 0 0 1-4.797-4.794A4.795 4.795 0 0 1 39.59-5.86a4.795 4.795 0 0 1 4.796 4.794 4.795 4.795 0 0 1-4.796 4.793zm-10.792 21.57A4.795 4.795 0 0 1 24 20.504a4.795 4.795 0 0 1 4.797-4.793 4.795 4.795 0 0 1 4.796 4.793 4.795 4.795 0 0 1-4.796 4.794zm32.376-21.57a4.795 4.795 0 0 1-4.796-4.794 4.795 4.795 0 0 1 4.796-4.794 4.795 4.795 0 0 1 4.797 4.794 4.795 4.795 0 0 1-4.797 4.793zm-10.792 21.57a4.795 4.795 0 0 1-4.796-4.794 4.795 4.795 0 0 1 4.796-4.793 4.795 4.795 0 0 1 4.797 4.793 4.795 4.795 0 0 1-4.797 4.794zm32.377-21.57a4.795 4.795 0 0 1-4.797-4.794 4.795 4.795 0 0 1 4.797-4.794 4.795 4.795 0 0 1 4.797 4.794 4.795 4.795 0 0 1-4.797 4.793zm-10.792 21.57a4.795 4.795 0 0 1-4.797-4.794 4.795 4.795 0 0 1 4.797-4.793 4.795 4.795 0 0 1 4.796 4.793 4.795 4.795 0 0 1-4.796 4.794zm32.377-21.57a4.795 4.795 0 0 1-4.797-4.794 4.795 4.795 0 0 1 4.797-4.794 4.795 4.795 0 0 1 4.796 4.794 4.795 4.795 0 0 1-4.796 4.793zM93.55 25.297a4.795 4.795 0 0 1-4.796-4.794 4.795 4.795 0 0 1 4.796-4.793 4.795 4.795 0 0 1 4.797 4.793 4.795 4.795 0 0 1-4.797 4.794zm32.377-21.57a4.795 4.795 0 0 1-4.796-4.794 4.795 4.795 0 0 1 4.796-4.794 4.795 4.795 0 0 1 4.797 4.794 4.795 4.795 0 0 1-4.797 4.793zm-10.792 21.57a4.795 4.795 0 0 1-4.797-4.794 4.795 4.795 0 0 1 4.797-4.793 4.795 4.795 0 0 1 4.796 4.793 4.795 4.795 0 0 1-4.796 4.794zm32.377-21.57a4.795 4.795 0 0 1-4.797-4.794 4.795 4.795 0 0 1 4.797-4.794 4.795 4.795 0 0 1 4.796 4.794 4.795 4.795 0 0 1-4.796 4.793zm-10.793 21.57a4.795 4.795 0 0 1-4.796-4.794 4.795 4.795 0 0 1 4.796-4.793 4.795 4.795 0 0 1 4.797 4.793 4.795 4.795 0 0 1-4.797 4.794zm32.377-21.57a4.795 4.795 0 0 1-4.796-4.794 4.795 4.795 0 0 1 4.796-4.794 4.795 4.795 0 0 1 4.797 4.794 4.795 4.795 0 0 1-4.797 4.793zm-10.792 21.57a4.795 4.795 0 0 1-4.797-4.794 4.795 4.795 0 0 1 4.797-4.793 4.795 4.795 0 0 1 4.797 4.793 4.795 4.795 0 0 1-4.797 4.794zm32.377-21.57a4.795 4.795 0 0 1-4.797-4.794 4.795 4.795 0 0 1 4.797-4.794 4.795 4.795 0 0 1 4.797 4.794 4.795 4.795 0 0 1-4.797 4.793zm-10.792 21.57a4.795 4.795 0 0 1-4.797-4.794 4.795 4.795 0 0 1 4.797-4.793 4.795 4.795 0 0 1 4.796 4.793 4.795 4.795 0 0 1-4.796 4.794zm32.377-21.57a4.795 4.795 0 0 1-4.797-4.794 4.795 4.795 0 0 1 4.797-4.794 4.795 4.795 0 0 1 4.796 4.794 4.795 4.795 0 0 1-4.796 4.793zm-10.793 21.57a4.795 4.795 0 0 1-4.796-4.794 4.795 4.795 0 0 1 4.796-4.793 4.795 4.795 0 0 1 4.797 4.793 4.795 4.795 0 0 1-4.797 4.794zm32.377-21.57a4.795 4.795 0 0 1-4.796-4.794 4.795 4.795 0 0 1 4.796-4.794 4.795 4.795 0 0 1 4.797 4.794 4.795 4.795 0 0 1-4.797 4.793zm-10.792 21.57a4.795 4.795 0 0 1-4.797-4.794 4.795 4.795 0 0 1 4.797-4.793 4.795 4.795 0 0 1 4.796 4.793 4.795 4.795 0 0 1-4.796 4.794zm32.377-21.57a4.795 4.795 0 0 1-4.797-4.794 4.795 4.795 0 0 1 4.797-4.794 4.795 4.795 0 0 1 4.796 4.794 4.795 4.795 0 0 1-4.796 4.793zm-10.793 21.57a4.795 4.795 0 0 1-4.796-4.794 4.795 4.795 0 0 1 4.796-4.793 4.795 4.795 0 0 1 4.797 4.793 4.795 4.795 0 0 1-4.797 4.794zm32.377-21.57a4.795 4.795 0 0 1-4.796-4.794 4.795 4.795 0 0 1 4.796-4.794 4.795 4.795 0 0 1 4.797 4.794 4.795 4.795 0 0 1-4.797 4.793zm-10.792 21.57a4.795 4.795 0 0 1-4.797-4.794 4.795 4.795 0 0 1 4.797-4.793 4.795 4.795 0 0 1 4.797 4.793 4.795 4.795 0 0 1-4.797 4.794zm32.377-21.57a4.795 4.795 0 0 1-4.797-4.794 4.795 4.795 0 0 1 4.797-4.794 4.795 4.795 0 0 1 4.796 4.794 4.795 4.795 0 0 1-4.796 4.793zm-10.792 21.57a4.795 4.795 0 0 1-4.797-4.794 4.795 4.795 0 0 1 4.797-4.793 4.795 4.795 0 0 1 4.796 4.793 4.795 4.795 0 0 1-4.796 4.794zm32.376-21.57a4.795 4.795 0 0 1-4.796-4.794 4.795 4.795 0 0 1 4.796-4.794 4.795 4.795 0 0 1 4.797 4.794 4.795 4.795 0 0 1-4.797 4.793zm-10.792 21.57a4.795 4.795 0 0 1-4.796-4.794 4.795 4.795 0 0 1 4.796-4.793 4.795 4.795 0 0 1 4.797 4.793 4.795 4.795 0 0 1-4.797 4.794zm32.377-21.57a4.795 4.795 0 0 1-4.797-4.794 4.795 4.795 0 0 1 4.797-4.794 4.795 4.795 0 0 1 4.797 4.794 4.795 4.795 0 0 1-4.797 4.793zm-10.792 21.57a4.795 4.795 0 0 1-4.797-4.794 4.795 4.795 0 0 1 4.797-4.793 4.795 4.795 0 0 1 4.796 4.793 4.795 4.795 0 0 1-4.796 4.794zm32.377-21.57a4.795 4.795 0 0 1-4.797-4.794 4.795 4.795 0 0 1 4.797-4.794 4.795 4.795 0 0 1 4.796 4.794 4.795 4.795 0 0 1-4.796 4.793zm-10.793 21.57a4.795 4.795 0 0 1-4.796-4.794 4.795 4.795 0 0 1 4.796-4.793 4.795 4.795 0 0 1 4.797 4.793 4.795 4.795 0 0 1-4.797 4.794zm32.377-21.57a4.795 4.795 0 0 1-4.796-4.794 4.795 4.795 0 0 1 4.796-4.794 4.795 4.795 0 0 1 4.797 4.794 4.795 4.795 0 0 1-4.797 4.793zm-10.792 21.57a4.795 4.795 0 0 1-4.797-4.794 4.795 4.795 0 0 1 4.797-4.793 4.795 4.795 0 0 1 4.796 4.793 4.795 4.795 0 0 1-4.796 4.794zm32.377-21.57a4.795 4.795 0 0 1-4.797-4.794 4.795 4.795 0 0 1 4.797-4.794 4.795 4.795 0 0 1 4.796 4.794 4.795 4.795 0 0 1-4.796 4.793zm-10.793 21.57a4.795 4.795 0 0 1-4.796-4.794 4.795 4.795 0 0 1 4.796-4.793 4.795 4.795 0 0 1 4.797 4.793 4.795 4.795 0 0 1-4.797 4.794zm32.377-21.57a4.795 4.795 0 0 1-4.796-4.794 4.795 4.795 0 0 1 4.796-4.794 4.795 4.795 0 0 1 4.797 4.794 4.795 4.795 0 0 1-4.797 4.793zm-10.792 21.57a4.795 4.795 0 0 1-4.797-4.794 4.795 4.795 0 0 1 4.797-4.793 4.795 4.795 0 0 1 4.797 4.793 4.795 4.795 0 0 1-4.797 4.794zm32.377-21.57a4.795 4.795 0 0 1-4.797-4.794 4.795 4.795 0 0 1 4.797-4.794 4.795 4.795 0 0 1 4.797 4.794 4.795 4.795 0 0 1-4.797 4.793zm-10.792 21.57a4.795 4.795 0 0 1-4.797-4.794 4.795 4.795 0 0 1 4.797-4.793 4.795 4.795 0 0 1 4.796 4.793 4.795 4.795 0 0 1-4.796 4.794zm32.377-21.57a4.795 4.795 0 0 1-4.797-4.794 4.795 4.795 0 0 1 4.797-4.794 4.795 4.795 0 0 1 4.796 4.794 4.795 4.795 0 0 1-4.796 4.793zm-10.793 21.57a4.795 4.795 0 0 1-4.796-4.794 4.795 4.795 0 0 1 4.796-4.793 4.795 4.795 0 0 1 4.797 4.793 4.795 4.795 0 0 1-4.797 4.794zm32.377-21.57a4.795 4.795 0 0 1-4.796-4.794 4.795 4.795 0 0 1 4.796-4.794 4.795 4.795 0 0 1 4.797 4.794 4.795 4.795 0 0 1-4.797 4.793zm-10.792 21.57a4.795 4.795 0 0 1-4.797-4.794 4.795 4.795 0 0 1 4.797-4.793 4.795 4.795 0 0 1 4.796 4.793 4.795 4.795 0 0 1-4.796 4.794zm32.377-21.57a4.795 4.795 0 0 1-4.797-4.794 4.795 4.795 0 0 1 4.797-4.794 4.795 4.795 0 0 1 4.796 4.794 4.795 4.795 0 0 1-4.796 4.793zm-10.793 21.57a4.795 4.795 0 0 1-4.796-4.794 4.795 4.795 0 0 1 4.796-4.793 4.795 4.795 0 0 1 4.797 4.793 4.795 4.795 0 0 1-4.797 4.794zm32.377-21.57a4.795 4.795 0 0 1-4.796-4.794 4.795 4.795 0 0 1 4.796-4.794 4.795 4.795 0 0 1 4.797 4.794 4.795 4.795 0 0 1-4.797 4.793zm-10.792 21.57a4.795 4.795 0 0 1-4.797-4.794 4.795 4.795 0 0 1 4.797-4.793 4.795 4.795 0 0 1 4.797 4.793 4.795 4.795 0 0 1-4.797 4.794zm32.377-21.57a4.795 4.795 0 0 1-4.797-4.794 4.795 4.795 0 0 1 4.797-4.794 4.795 4.795 0 0 1 4.796 4.794 4.795 4.795 0 0 1-4.796 4.793zm-10.792 21.57a4.795 4.795 0 0 1-4.797-4.794 4.795 4.795 0 0 1 4.797-4.793 4.795 4.795 0 0 1 4.796 4.793 4.795 4.795 0 0 1-4.796 4.794zm32.376-21.57a4.795 4.795 0 0 1-4.796-4.794 4.795 4.795 0 0 1 4.796-4.794A4.795 4.795 0 0 1 584-1.066a4.795 4.795 0 0 1-4.797 4.793zm-10.792 21.57a4.795 4.795 0 0 1-4.796-4.794 4.795 4.795 0 0 1 4.796-4.793 4.795 4.795 0 0 1 4.797 4.793 4.795 4.795 0 0 1-4.797 4.794zM39.59-39.413a4.795 4.795 0 0 1-4.797-4.794A4.795 4.795 0 0 1 39.59-49a4.795 4.795 0 0 1 4.796 4.793 4.795 4.795 0 0 1-4.796 4.794zm-10.792 21.57A4.795 4.795 0 0 1 24-22.636a4.795 4.795 0 0 1 4.797-4.794 4.795 4.795 0 0 1 4.796 4.794 4.795 4.795 0 0 1-4.796 4.793zm32.376-21.57a4.795 4.795 0 0 1-4.796-4.794A4.795 4.795 0 0 1 61.173-49a4.795 4.795 0 0 1 4.797 4.793 4.795 4.795 0 0 1-4.797 4.794zm-10.792 21.57a4.795 4.795 0 0 1-4.796-4.793 4.795 4.795 0 0 1 4.796-4.794 4.795 4.795 0 0 1 4.797 4.794 4.795 4.795 0 0 1-4.797 4.793zm32.377-21.57a4.795 4.795 0 0 1-4.797-4.794A4.795 4.795 0 0 1 82.758-49a4.795 4.795 0 0 1 4.797 4.793 4.795 4.795 0 0 1-4.797 4.794zm-10.792 21.57a4.795 4.795 0 0 1-4.797-4.793 4.795 4.795 0 0 1 4.797-4.794 4.795 4.795 0 0 1 4.796 4.794 4.795 4.795 0 0 1-4.796 4.793zm32.377-21.57a4.795 4.795 0 0 1-4.797-4.794A4.795 4.795 0 0 1 104.343-49a4.795 4.795 0 0 1 4.796 4.793 4.795 4.795 0 0 1-4.796 4.794zM93.55-17.843a4.795 4.795 0 0 1-4.796-4.793 4.795 4.795 0 0 1 4.796-4.794 4.795 4.795 0 0 1 4.797 4.794 4.795 4.795 0 0 1-4.797 4.793zm32.377-21.57a4.795 4.795 0 0 1-4.796-4.794A4.795 4.795 0 0 1 125.927-49a4.795 4.795 0 0 1 4.797 4.793 4.795 4.795 0 0 1-4.797 4.794zm-10.792 21.57a4.795 4.795 0 0 1-4.797-4.793 4.795 4.795 0 0 1 4.797-4.794 4.795 4.795 0 0 1 4.796 4.794 4.795 4.795 0 0 1-4.796 4.793zm32.377-21.57a4.795 4.795 0 0 1-4.797-4.794A4.795 4.795 0 0 1 147.512-49a4.795 4.795 0 0 1 4.796 4.793 4.795 4.795 0 0 1-4.796 4.794zm-10.793 21.57a4.795 4.795 0 0 1-4.796-4.793 4.795 4.795 0 0 1 4.796-4.794 4.795 4.795 0 0 1 4.797 4.794 4.795 4.795 0 0 1-4.797 4.793zm32.377-21.57a4.795 4.795 0 0 1-4.796-4.794A4.795 4.795 0 0 1 169.096-49a4.795 4.795 0 0 1 4.797 4.793 4.795 4.795 0 0 1-4.797 4.794zm-10.792 21.57a4.795 4.795 0 0 1-4.797-4.793 4.795 4.795 0 0 1 4.797-4.794 4.795 4.795 0 0 1 4.797 4.794 4.795 4.795 0 0 1-4.797 4.793zm32.377-21.57a4.795 4.795 0 0 1-4.797-4.794A4.795 4.795 0 0 1 190.681-49a4.795 4.795 0 0 1 4.797 4.793 4.795 4.795 0 0 1-4.797 4.794zm-10.792 21.57a4.795 4.795 0 0 1-4.797-4.793 4.795 4.795 0 0 1 4.797-4.794 4.795 4.795 0 0 1 4.796 4.794 4.795 4.795 0 0 1-4.796 4.793zm32.377-21.57a4.795 4.795 0 0 1-4.797-4.794A4.795 4.795 0 0 1 212.266-49a4.795 4.795 0 0 1 4.796 4.793 4.795 4.795 0 0 1-4.796 4.794zm-10.793 21.57a4.795 4.795 0 0 1-4.796-4.793 4.795 4.795 0 0 1 4.796-4.794 4.795 4.795 0 0 1 4.797 4.794 4.795 4.795 0 0 1-4.797 4.793zm32.377-21.57a4.795 4.795 0 0 1-4.796-4.794A4.795 4.795 0 0 1 233.85-49a4.795 4.795 0 0 1 4.797 4.793 4.795 4.795 0 0 1-4.797 4.794zm-10.792 21.57a4.795 4.795 0 0 1-4.797-4.793 4.795 4.795 0 0 1 4.797-4.794 4.795 4.795 0 0 1 4.796 4.794 4.795 4.795 0 0 1-4.796 4.793zm32.377-21.57a4.795 4.795 0 0 1-4.797-4.794A4.795 4.795 0 0 1 255.435-49a4.795 4.795 0 0 1 4.796 4.793 4.795 4.795 0 0 1-4.796 4.794zm-10.793 21.57a4.795 4.795 0 0 1-4.796-4.793 4.795 4.795 0 0 1 4.796-4.794 4.795 4.795 0 0 1 4.797 4.794 4.795 4.795 0 0 1-4.797 4.793zm32.377-21.57a4.795 4.795 0 0 1-4.796-4.794A4.795 4.795 0 0 1 277.019-49a4.795 4.795 0 0 1 4.797 4.793 4.795 4.795 0 0 1-4.797 4.794zm-10.792 21.57a4.795 4.795 0 0 1-4.797-4.793 4.795 4.795 0 0 1 4.797-4.794 4.795 4.795 0 0 1 4.797 4.794 4.795 4.795 0 0 1-4.797 4.793zm32.377-21.57a4.795 4.795 0 0 1-4.797-4.794A4.795 4.795 0 0 1 298.604-49a4.795 4.795 0 0 1 4.796 4.793 4.795 4.795 0 0 1-4.796 4.794zm-10.792 21.57a4.795 4.795 0 0 1-4.797-4.793 4.795 4.795 0 0 1 4.797-4.794 4.795 4.795 0 0 1 4.796 4.794 4.795 4.795 0 0 1-4.796 4.793zm32.376-21.57a4.795 4.795 0 0 1-4.796-4.794A4.795 4.795 0 0 1 320.188-49a4.795 4.795 0 0 1 4.797 4.793 4.795 4.795 0 0 1-4.797 4.794zm-10.792 21.57a4.795 4.795 0 0 1-4.796-4.793 4.795 4.795 0 0 1 4.796-4.794 4.795 4.795 0 0 1 4.797 4.794 4.795 4.795 0 0 1-4.797 4.793zm32.377-21.57a4.795 4.795 0 0 1-4.797-4.794A4.795 4.795 0 0 1 341.773-49a4.795 4.795 0 0 1 4.797 4.793 4.795 4.795 0 0 1-4.797 4.794zm-10.792 21.57a4.795 4.795 0 0 1-4.797-4.793 4.795 4.795 0 0 1 4.797-4.794 4.795 4.795 0 0 1 4.796 4.794 4.795 4.795 0 0 1-4.796 4.793zm32.377-21.57a4.795 4.795 0 0 1-4.797-4.794A4.795 4.795 0 0 1 363.358-49a4.795 4.795 0 0 1 4.796 4.793 4.795 4.795 0 0 1-4.796 4.794zm-10.793 21.57a4.795 4.795 0 0 1-4.796-4.793 4.795 4.795 0 0 1 4.796-4.794 4.795 4.795 0 0 1 4.797 4.794 4.795 4.795 0 0 1-4.797 4.793zm32.377-21.57a4.795 4.795 0 0 1-4.796-4.794A4.795 4.795 0 0 1 384.942-49a4.795 4.795 0 0 1 4.797 4.793 4.795 4.795 0 0 1-4.797 4.794zm-10.792 21.57a4.795 4.795 0 0 1-4.797-4.793 4.795 4.795 0 0 1 4.797-4.794 4.795 4.795 0 0 1 4.796 4.794 4.795 4.795 0 0 1-4.796 4.793zm32.377-21.57a4.795 4.795 0 0 1-4.797-4.794A4.795 4.795 0 0 1 406.527-49a4.795 4.795 0 0 1 4.796 4.793 4.795 4.795 0 0 1-4.796 4.794zm-10.793 21.57a4.795 4.795 0 0 1-4.796-4.793 4.795 4.795 0 0 1 4.796-4.794 4.795 4.795 0 0 1 4.797 4.794 4.795 4.795 0 0 1-4.797 4.793zm32.377-21.57a4.795 4.795 0 0 1-4.796-4.794A4.795 4.795 0 0 1 428.11-49a4.795 4.795 0 0 1 4.797 4.793 4.795 4.795 0 0 1-4.797 4.794zm-10.792 21.57a4.795 4.795 0 0 1-4.797-4.793 4.795 4.795 0 0 1 4.797-4.794 4.795 4.795 0 0 1 4.797 4.794 4.795 4.795 0 0 1-4.797 4.793zm32.377-21.57a4.795 4.795 0 0 1-4.797-4.794A4.795 4.795 0 0 1 449.696-49a4.795 4.795 0 0 1 4.797 4.793 4.795 4.795 0 0 1-4.797 4.794zm-10.792 21.57a4.795 4.795 0 0 1-4.797-4.793 4.795 4.795 0 0 1 4.797-4.794 4.795 4.795 0 0 1 4.796 4.794 4.795 4.795 0 0 1-4.796 4.793zm32.377-21.57a4.795 4.795 0 0 1-4.797-4.794A4.795 4.795 0 0 1 471.28-49a4.795 4.795 0 0 1 4.796 4.793 4.795 4.795 0 0 1-4.796 4.794zm-10.793 21.57a4.795 4.795 0 0 1-4.796-4.793 4.795 4.795 0 0 1 4.796-4.794 4.795 4.795 0 0 1 4.797 4.794 4.795 4.795 0 0 1-4.797 4.793zm32.377-21.57a4.795 4.795 0 0 1-4.796-4.794A4.795 4.795 0 0 1 492.865-49a4.795 4.795 0 0 1 4.797 4.793 4.795 4.795 0 0 1-4.797 4.794zm-10.792 21.57a4.795 4.795 0 0 1-4.797-4.793 4.795 4.795 0 0 1 4.797-4.794 4.795 4.795 0 0 1 4.796 4.794 4.795 4.795 0 0 1-4.796 4.793zm32.377-21.57a4.795 4.795 0 0 1-4.797-4.794A4.795 4.795 0 0 1 514.45-49a4.795 4.795 0 0 1 4.796 4.793 4.795 4.795 0 0 1-4.796 4.794zm-10.793 21.57a4.795 4.795 0 0 1-4.796-4.793 4.795 4.795 0 0 1 4.796-4.794 4.795 4.795 0 0 1 4.797 4.794 4.795 4.795 0 0 1-4.797 4.793zm32.377-21.57a4.795 4.795 0 0 1-4.796-4.794A4.795 4.795 0 0 1 536.034-49a4.795 4.795 0 0 1 4.797 4.793 4.795 4.795 0 0 1-4.797 4.794zm-10.792 21.57a4.795 4.795 0 0 1-4.797-4.793 4.795 4.795 0 0 1 4.797-4.794 4.795 4.795 0 0 1 4.797 4.794 4.795 4.795 0 0 1-4.797 4.793zm32.377-21.57a4.795 4.795 0 0 1-4.797-4.794A4.795 4.795 0 0 1 557.62-49a4.795 4.795 0 0 1 4.796 4.793 4.795 4.795 0 0 1-4.796 4.794zm-10.792 21.57a4.795 4.795 0 0 1-4.797-4.793 4.795 4.795 0 0 1 4.797-4.794 4.795 4.795 0 0 1 4.796 4.794 4.795 4.795 0 0 1-4.796 4.793zm32.376-21.57a4.795 4.795 0 0 1-4.796-4.794A4.795 4.795 0 0 1 579.203-49 4.795 4.795 0 0 1 584-44.207a4.795 4.795 0 0 1-4.797 4.794zm-10.792 21.57a4.795 4.795 0 0 1-4.796-4.793 4.795 4.795 0 0 1 4.796-4.794 4.795 4.795 0 0 1 4.797 4.794 4.795 4.795 0 0 1-4.797 4.793z" mask="url(#b)"/>
    </g>
</svg>

