<svg xmlns="http://www.w3.org/2000/svg" xmlns:xlink="http://www.w3.org/1999/xlink" width="111" height="130" viewBox="0 0 111 130">
    <defs>
        <path id="a" d="M12.23 60.63C-23.451 39.957 32.6.629 65.225.629c32.625 0 98.64 24.546 15.141 103.068-83.498 78.522-27.479-19.51-68.134-43.065z"/>
    </defs>
    <g fill="none" fill-rule="evenodd" opacity=".2" transform="matrix(-1 0 0 1 111 0)">
        <mask id="b" fill="#fff">
            <use xlink:href="#a"/>
        </mask>
        <path fill="#B3ADCA" d="M-380.411 151.43a4.795 4.795 0 0 1-4.797-4.794 4.795 4.795 0 0 1 4.797-4.793 4.795 4.795 0 0 1 4.796 4.793 4.795 4.795 0 0 1-4.796 4.794zm0-43.14a4.795 4.795 0 0 1-4.797-4.794 4.795 4.795 0 0 1 4.797-4.794 4.795 4.795 0 0 1 4.796 4.794 4.795 4.795 0 0 1-4.796 4.793zM-391.203 173a4.795 4.795 0 0 1-4.797-4.793 4.795 4.795 0 0 1 4.797-4.794 4.795 4.795 0 0 1 4.796 4.794 4.795 4.795 0 0 1-4.796 4.793zm0-43.14a4.795 4.795 0 0 1-4.797-4.794 4.795 4.795 0 0 1 4.797-4.793 4.795 4.795 0 0 1 4.796 4.793 4.795 4.795 0 0 1-4.796 4.794zm32.376 21.57a4.795 4.795 0 0 1-4.796-4.794 4.795 4.795 0 0 1 4.796-4.793 4.795 4.795 0 0 1 4.797 4.793 4.795 4.795 0 0 1-4.797 4.794zm0-43.14a4.795 4.795 0 0 1-4.796-4.794 4.795 4.795 0 0 1 4.796-4.794 4.795 4.795 0 0 1 4.797 4.794 4.795 4.795 0 0 1-4.797 4.793zM-369.619 173a4.795 4.795 0 0 1-4.796-4.793 4.795 4.795 0 0 1 4.796-4.794 4.795 4.795 0 0 1 4.797 4.794A4.795 4.795 0 0 1-369.62 173zm0-43.14a4.795 4.795 0 0 1-4.796-4.794 4.795 4.795 0 0 1 4.796-4.793 4.795 4.795 0 0 1 4.797 4.793 4.795 4.795 0 0 1-4.797 4.794zm32.377 21.57a4.795 4.795 0 0 1-4.797-4.794 4.795 4.795 0 0 1 4.797-4.793 4.795 4.795 0 0 1 4.797 4.793 4.795 4.795 0 0 1-4.797 4.794zm0-43.14a4.795 4.795 0 0 1-4.797-4.794 4.795 4.795 0 0 1 4.797-4.794 4.795 4.795 0 0 1 4.797 4.794 4.795 4.795 0 0 1-4.797 4.793zM-348.034 173a4.795 4.795 0 0 1-4.797-4.793 4.795 4.795 0 0 1 4.797-4.794 4.795 4.795 0 0 1 4.796 4.794 4.795 4.795 0 0 1-4.796 4.793zm0-43.14a4.795 4.795 0 0 1-4.797-4.794 4.795 4.795 0 0 1 4.797-4.793 4.795 4.795 0 0 1 4.796 4.793 4.795 4.795 0 0 1-4.796 4.794zm32.377 21.57a4.795 4.795 0 0 1-4.797-4.794 4.795 4.795 0 0 1 4.797-4.793 4.795 4.795 0 0 1 4.796 4.793 4.795 4.795 0 0 1-4.796 4.794zm0-43.14a4.795 4.795 0 0 1-4.797-4.794 4.795 4.795 0 0 1 4.797-4.794 4.795 4.795 0 0 1 4.796 4.794 4.795 4.795 0 0 1-4.796 4.793zM-326.45 173a4.795 4.795 0 0 1-4.796-4.793 4.795 4.795 0 0 1 4.796-4.794 4.795 4.795 0 0 1 4.797 4.794A4.795 4.795 0 0 1-326.45 173zm0-43.14a4.795 4.795 0 0 1-4.796-4.794 4.795 4.795 0 0 1 4.796-4.793 4.795 4.795 0 0 1 4.797 4.793 4.795 4.795 0 0 1-4.797 4.794zm32.377 21.57a4.795 4.795 0 0 1-4.796-4.794 4.795 4.795 0 0 1 4.796-4.793 4.795 4.795 0 0 1 4.797 4.793 4.795 4.795 0 0 1-4.797 4.794zm0-43.14a4.795 4.795 0 0 1-4.796-4.794 4.795 4.795 0 0 1 4.796-4.794 4.795 4.795 0 0 1 4.797 4.794 4.795 4.795 0 0 1-4.797 4.793zM-304.865 173a4.795 4.795 0 0 1-4.797-4.793 4.795 4.795 0 0 1 4.797-4.794 4.795 4.795 0 0 1 4.796 4.794 4.795 4.795 0 0 1-4.796 4.793zm0-43.14a4.795 4.795 0 0 1-4.797-4.794 4.795 4.795 0 0 1 4.797-4.793 4.795 4.795 0 0 1 4.796 4.793 4.795 4.795 0 0 1-4.796 4.794zm32.377 21.57a4.795 4.795 0 0 1-4.797-4.794 4.795 4.795 0 0 1 4.797-4.793 4.795 4.795 0 0 1 4.796 4.793 4.795 4.795 0 0 1-4.796 4.794zm0-43.14a4.795 4.795 0 0 1-4.797-4.794 4.795 4.795 0 0 1 4.797-4.794 4.795 4.795 0 0 1 4.796 4.794 4.795 4.795 0 0 1-4.796 4.793zM-283.281 173a4.795 4.795 0 0 1-4.796-4.793 4.795 4.795 0 0 1 4.796-4.794 4.795 4.795 0 0 1 4.797 4.794A4.795 4.795 0 0 1-283.28 173zm0-43.14a4.795 4.795 0 0 1-4.796-4.794 4.795 4.795 0 0 1 4.796-4.793 4.795 4.795 0 0 1 4.797 4.793 4.795 4.795 0 0 1-4.797 4.794zm32.377 21.57a4.795 4.795 0 0 1-4.796-4.794 4.795 4.795 0 0 1 4.796-4.793 4.795 4.795 0 0 1 4.797 4.793 4.795 4.795 0 0 1-4.797 4.794zm0-43.14a4.795 4.795 0 0 1-4.796-4.794 4.795 4.795 0 0 1 4.796-4.794 4.795 4.795 0 0 1 4.797 4.794 4.795 4.795 0 0 1-4.797 4.793zM-261.696 173a4.795 4.795 0 0 1-4.797-4.793 4.795 4.795 0 0 1 4.797-4.794 4.795 4.795 0 0 1 4.797 4.794 4.795 4.795 0 0 1-4.797 4.793zm0-43.14a4.795 4.795 0 0 1-4.797-4.794 4.795 4.795 0 0 1 4.797-4.793 4.795 4.795 0 0 1 4.797 4.793 4.795 4.795 0 0 1-4.797 4.794zm32.377 21.57a4.795 4.795 0 0 1-4.797-4.794 4.795 4.795 0 0 1 4.797-4.793 4.795 4.795 0 0 1 4.797 4.793 4.795 4.795 0 0 1-4.797 4.794zm0-43.14a4.795 4.795 0 0 1-4.797-4.794 4.795 4.795 0 0 1 4.797-4.794 4.795 4.795 0 0 1 4.797 4.794 4.795 4.795 0 0 1-4.797 4.793zM-240.111 173a4.795 4.795 0 0 1-4.797-4.793 4.795 4.795 0 0 1 4.797-4.794 4.795 4.795 0 0 1 4.796 4.794A4.795 4.795 0 0 1-240.11 173zm0-43.14a4.795 4.795 0 0 1-4.797-4.794 4.795 4.795 0 0 1 4.797-4.793 4.795 4.795 0 0 1 4.796 4.793 4.795 4.795 0 0 1-4.796 4.794zm32.377 21.57a4.795 4.795 0 0 1-4.797-4.794 4.795 4.795 0 0 1 4.797-4.793 4.795 4.795 0 0 1 4.796 4.793 4.795 4.795 0 0 1-4.796 4.794zm0-43.14a4.795 4.795 0 0 1-4.797-4.794 4.795 4.795 0 0 1 4.797-4.794 4.795 4.795 0 0 1 4.796 4.794 4.795 4.795 0 0 1-4.796 4.793zM-218.527 173a4.795 4.795 0 0 1-4.796-4.793 4.795 4.795 0 0 1 4.796-4.794 4.795 4.795 0 0 1 4.797 4.794 4.795 4.795 0 0 1-4.797 4.793zm0-43.14a4.795 4.795 0 0 1-4.796-4.794 4.795 4.795 0 0 1 4.796-4.793 4.795 4.795 0 0 1 4.797 4.793 4.795 4.795 0 0 1-4.797 4.794zm32.377 21.57a4.795 4.795 0 0 1-4.796-4.794 4.795 4.795 0 0 1 4.796-4.793 4.795 4.795 0 0 1 4.797 4.793 4.795 4.795 0 0 1-4.797 4.794zm0-43.14a4.795 4.795 0 0 1-4.796-4.794 4.795 4.795 0 0 1 4.796-4.794 4.795 4.795 0 0 1 4.797 4.794 4.795 4.795 0 0 1-4.797 4.793zM-196.942 173a4.795 4.795 0 0 1-4.797-4.793 4.795 4.795 0 0 1 4.797-4.794 4.795 4.795 0 0 1 4.796 4.794 4.795 4.795 0 0 1-4.796 4.793zm0-43.14a4.795 4.795 0 0 1-4.797-4.794 4.795 4.795 0 0 1 4.797-4.793 4.795 4.795 0 0 1 4.796 4.793 4.795 4.795 0 0 1-4.796 4.794zm32.377 21.57a4.795 4.795 0 0 1-4.797-4.794 4.795 4.795 0 0 1 4.797-4.793 4.795 4.795 0 0 1 4.796 4.793 4.795 4.795 0 0 1-4.796 4.794zm0-43.14a4.795 4.795 0 0 1-4.797-4.794 4.795 4.795 0 0 1 4.797-4.794 4.795 4.795 0 0 1 4.796 4.794 4.795 4.795 0 0 1-4.796 4.793zM-175.358 173a4.795 4.795 0 0 1-4.796-4.793 4.795 4.795 0 0 1 4.796-4.794 4.795 4.795 0 0 1 4.797 4.794 4.795 4.795 0 0 1-4.797 4.793zm0-43.14a4.795 4.795 0 0 1-4.796-4.794 4.795 4.795 0 0 1 4.796-4.793 4.795 4.795 0 0 1 4.797 4.793 4.795 4.795 0 0 1-4.797 4.794zm32.377 21.57a4.795 4.795 0 0 1-4.796-4.794 4.795 4.795 0 0 1 4.796-4.793 4.795 4.795 0 0 1 4.797 4.793 4.795 4.795 0 0 1-4.797 4.794zm0-43.14a4.795 4.795 0 0 1-4.796-4.794 4.795 4.795 0 0 1 4.796-4.794 4.795 4.795 0 0 1 4.797 4.794 4.795 4.795 0 0 1-4.797 4.793zM-153.773 173a4.795 4.795 0 0 1-4.797-4.793 4.795 4.795 0 0 1 4.797-4.794 4.795 4.795 0 0 1 4.797 4.794 4.795 4.795 0 0 1-4.797 4.793zm0-43.14a4.795 4.795 0 0 1-4.797-4.794 4.795 4.795 0 0 1 4.797-4.793 4.795 4.795 0 0 1 4.797 4.793 4.795 4.795 0 0 1-4.797 4.794zm32.377 21.57a4.795 4.795 0 0 1-4.797-4.794 4.795 4.795 0 0 1 4.797-4.793 4.795 4.795 0 0 1 4.796 4.793 4.795 4.795 0 0 1-4.796 4.794zm0-43.14a4.795 4.795 0 0 1-4.797-4.794 4.795 4.795 0 0 1 4.797-4.794 4.795 4.795 0 0 1 4.796 4.794 4.795 4.795 0 0 1-4.796 4.793zM-132.188 173a4.795 4.795 0 0 1-4.797-4.793 4.795 4.795 0 0 1 4.797-4.794 4.795 4.795 0 0 1 4.796 4.794 4.795 4.795 0 0 1-4.796 4.793zm0-43.14a4.795 4.795 0 0 1-4.797-4.794 4.795 4.795 0 0 1 4.797-4.793 4.795 4.795 0 0 1 4.796 4.793 4.795 4.795 0 0 1-4.796 4.794zm32.376 21.57a4.795 4.795 0 0 1-4.796-4.794 4.795 4.795 0 0 1 4.796-4.793 4.795 4.795 0 0 1 4.797 4.793 4.795 4.795 0 0 1-4.797 4.794zm0-43.14a4.795 4.795 0 0 1-4.796-4.794 4.795 4.795 0 0 1 4.796-4.794 4.795 4.795 0 0 1 4.797 4.794 4.795 4.795 0 0 1-4.797 4.793zM-110.604 173a4.795 4.795 0 0 1-4.796-4.793 4.795 4.795 0 0 1 4.796-4.794 4.795 4.795 0 0 1 4.797 4.794 4.795 4.795 0 0 1-4.797 4.793zm0-43.14a4.795 4.795 0 0 1-4.796-4.794 4.795 4.795 0 0 1 4.796-4.793 4.795 4.795 0 0 1 4.797 4.793 4.795 4.795 0 0 1-4.797 4.794zm32.377 21.57a4.795 4.795 0 0 1-4.797-4.794 4.795 4.795 0 0 1 4.797-4.793 4.795 4.795 0 0 1 4.797 4.793 4.795 4.795 0 0 1-4.797 4.794zm0-43.14a4.795 4.795 0 0 1-4.797-4.794 4.795 4.795 0 0 1 4.797-4.794 4.795 4.795 0 0 1 4.797 4.794 4.795 4.795 0 0 1-4.797 4.793zM-89.019 173a4.795 4.795 0 0 1-4.797-4.793 4.795 4.795 0 0 1 4.797-4.794 4.795 4.795 0 0 1 4.796 4.794A4.795 4.795 0 0 1-89.019 173zm0-43.14a4.795 4.795 0 0 1-4.797-4.794 4.795 4.795 0 0 1 4.797-4.793 4.795 4.795 0 0 1 4.796 4.793 4.795 4.795 0 0 1-4.796 4.794zm32.377 21.57a4.795 4.795 0 0 1-4.797-4.794 4.795 4.795 0 0 1 4.797-4.793 4.795 4.795 0 0 1 4.796 4.793 4.795 4.795 0 0 1-4.796 4.794zm0-43.14a4.795 4.795 0 0 1-4.797-4.794 4.795 4.795 0 0 1 4.797-4.794 4.795 4.795 0 0 1 4.796 4.794 4.795 4.795 0 0 1-4.796 4.793zM-67.435 173a4.795 4.795 0 0 1-4.796-4.793 4.795 4.795 0 0 1 4.796-4.794 4.795 4.795 0 0 1 4.797 4.794A4.795 4.795 0 0 1-67.435 173zm0-43.14a4.795 4.795 0 0 1-4.796-4.794 4.795 4.795 0 0 1 4.796-4.793 4.795 4.795 0 0 1 4.797 4.793 4.795 4.795 0 0 1-4.797 4.794zm32.377 21.57a4.795 4.795 0 0 1-4.796-4.794 4.795 4.795 0 0 1 4.796-4.793 4.795 4.795 0 0 1 4.797 4.793 4.795 4.795 0 0 1-4.797 4.794zm0-43.14a4.795 4.795 0 0 1-4.796-4.794 4.795 4.795 0 0 1 4.796-4.794 4.795 4.795 0 0 1 4.797 4.794 4.795 4.795 0 0 1-4.797 4.793zM-45.85 173a4.795 4.795 0 0 1-4.797-4.793 4.795 4.795 0 0 1 4.797-4.794 4.795 4.795 0 0 1 4.796 4.794A4.795 4.795 0 0 1-45.85 173zm0-43.14a4.795 4.795 0 0 1-4.797-4.794 4.795 4.795 0 0 1 4.797-4.793 4.795 4.795 0 0 1 4.796 4.793 4.795 4.795 0 0 1-4.796 4.794zm32.377 21.57a4.795 4.795 0 0 1-4.797-4.794 4.795 4.795 0 0 1 4.797-4.793 4.795 4.795 0 0 1 4.796 4.793 4.795 4.795 0 0 1-4.796 4.794zm0-43.14a4.795 4.795 0 0 1-4.797-4.794 4.795 4.795 0 0 1 4.797-4.794 4.795 4.795 0 0 1 4.796 4.794 4.795 4.795 0 0 1-4.796 4.793zM-24.266 173a4.795 4.795 0 0 1-4.796-4.793 4.795 4.795 0 0 1 4.796-4.794 4.795 4.795 0 0 1 4.797 4.794A4.795 4.795 0 0 1-24.266 173zm0-43.14a4.795 4.795 0 0 1-4.796-4.794 4.795 4.795 0 0 1 4.796-4.793 4.795 4.795 0 0 1 4.797 4.793 4.795 4.795 0 0 1-4.797 4.794zm32.377 21.57a4.795 4.795 0 0 1-4.796-4.794 4.795 4.795 0 0 1 4.796-4.793 4.795 4.795 0 0 1 4.797 4.793 4.795 4.795 0 0 1-4.797 4.794zm0-43.14a4.795 4.795 0 0 1-4.796-4.794 4.795 4.795 0 0 1 4.796-4.794 4.795 4.795 0 0 1 4.797 4.794 4.795 4.795 0 0 1-4.797 4.793zM-2.68 173a4.795 4.795 0 0 1-4.797-4.793 4.795 4.795 0 0 1 4.797-4.794 4.795 4.795 0 0 1 4.797 4.794A4.795 4.795 0 0 1-2.681 173zm0-43.14a4.795 4.795 0 0 1-4.797-4.794 4.795 4.795 0 0 1 4.797-4.793 4.795 4.795 0 0 1 4.797 4.793 4.795 4.795 0 0 1-4.797 4.794zm32.377 21.57a4.795 4.795 0 0 1-4.797-4.794 4.795 4.795 0 0 1 4.797-4.793 4.795 4.795 0 0 1 4.797 4.793 4.795 4.795 0 0 1-4.797 4.794zm0-43.14a4.795 4.795 0 0 1-4.797-4.794 4.795 4.795 0 0 1 4.797-4.794 4.795 4.795 0 0 1 4.797 4.794 4.795 4.795 0 0 1-4.797 4.793zM18.904 173a4.795 4.795 0 0 1-4.797-4.793 4.795 4.795 0 0 1 4.797-4.794 4.795 4.795 0 0 1 4.796 4.794A4.795 4.795 0 0 1 18.904 173zm0-43.14a4.795 4.795 0 0 1-4.797-4.794 4.795 4.795 0 0 1 4.797-4.793 4.795 4.795 0 0 1 4.796 4.793 4.795 4.795 0 0 1-4.796 4.794zm32.377 21.57a4.795 4.795 0 0 1-4.797-4.794 4.795 4.795 0 0 1 4.797-4.793 4.795 4.795 0 0 1 4.796 4.793 4.795 4.795 0 0 1-4.796 4.794zm0-43.14a4.795 4.795 0 0 1-4.797-4.794 4.795 4.795 0 0 1 4.797-4.794 4.795 4.795 0 0 1 4.796 4.794 4.795 4.795 0 0 1-4.796 4.793zM40.488 173a4.795 4.795 0 0 1-4.796-4.793 4.795 4.795 0 0 1 4.796-4.794 4.795 4.795 0 0 1 4.797 4.794A4.795 4.795 0 0 1 40.488 173zm0-43.14a4.795 4.795 0 0 1-4.796-4.794 4.795 4.795 0 0 1 4.796-4.793 4.795 4.795 0 0 1 4.797 4.793 4.795 4.795 0 0 1-4.797 4.794zm32.377 21.57a4.795 4.795 0 0 1-4.796-4.794 4.795 4.795 0 0 1 4.796-4.793 4.795 4.795 0 0 1 4.797 4.793 4.795 4.795 0 0 1-4.797 4.794zm0-43.14a4.795 4.795 0 0 1-4.796-4.794 4.795 4.795 0 0 1 4.796-4.794 4.795 4.795 0 0 1 4.797 4.794 4.795 4.795 0 0 1-4.797 4.793zM62.073 173a4.795 4.795 0 0 1-4.797-4.793 4.795 4.795 0 0 1 4.797-4.794 4.795 4.795 0 0 1 4.796 4.794A4.795 4.795 0 0 1 62.073 173zm0-43.14a4.795 4.795 0 0 1-4.797-4.794 4.795 4.795 0 0 1 4.797-4.793 4.795 4.795 0 0 1 4.796 4.793 4.795 4.795 0 0 1-4.796 4.794zm32.377 21.57a4.795 4.795 0 0 1-4.797-4.794 4.795 4.795 0 0 1 4.797-4.793 4.795 4.795 0 0 1 4.796 4.793 4.795 4.795 0 0 1-4.796 4.794zm0-43.14a4.795 4.795 0 0 1-4.797-4.794 4.795 4.795 0 0 1 4.797-4.794 4.795 4.795 0 0 1 4.796 4.794 4.795 4.795 0 0 1-4.796 4.793zM83.657 173a4.795 4.795 0 0 1-4.796-4.793 4.795 4.795 0 0 1 4.796-4.794 4.795 4.795 0 0 1 4.797 4.794A4.795 4.795 0 0 1 83.657 173zm0-43.14a4.795 4.795 0 0 1-4.796-4.794 4.795 4.795 0 0 1 4.796-4.793 4.795 4.795 0 0 1 4.797 4.793 4.795 4.795 0 0 1-4.797 4.794zm32.377 21.57a4.795 4.795 0 0 1-4.796-4.794 4.795 4.795 0 0 1 4.796-4.793 4.795 4.795 0 0 1 4.797 4.793 4.795 4.795 0 0 1-4.797 4.794zm0-43.14a4.795 4.795 0 0 1-4.796-4.794 4.795 4.795 0 0 1 4.796-4.794 4.795 4.795 0 0 1 4.797 4.794 4.795 4.795 0 0 1-4.797 4.793zM105.242 173a4.795 4.795 0 0 1-4.797-4.793 4.795 4.795 0 0 1 4.797-4.794 4.795 4.795 0 0 1 4.797 4.794 4.795 4.795 0 0 1-4.797 4.793zm0-43.14a4.795 4.795 0 0 1-4.797-4.794 4.795 4.795 0 0 1 4.797-4.793 4.795 4.795 0 0 1 4.797 4.793 4.795 4.795 0 0 1-4.797 4.794zm32.377 21.57a4.795 4.795 0 0 1-4.797-4.794 4.795 4.795 0 0 1 4.797-4.793 4.795 4.795 0 0 1 4.796 4.793 4.795 4.795 0 0 1-4.796 4.794zm0-43.14a4.795 4.795 0 0 1-4.797-4.794 4.795 4.795 0 0 1 4.797-4.794 4.795 4.795 0 0 1 4.796 4.794 4.795 4.795 0 0 1-4.796 4.793zM126.827 173a4.795 4.795 0 0 1-4.797-4.793 4.795 4.795 0 0 1 4.797-4.794 4.795 4.795 0 0 1 4.796 4.794 4.795 4.795 0 0 1-4.796 4.793zm0-43.14a4.795 4.795 0 0 1-4.797-4.794 4.795 4.795 0 0 1 4.797-4.793 4.795 4.795 0 0 1 4.796 4.793 4.795 4.795 0 0 1-4.796 4.794zm32.376 21.57a4.795 4.795 0 0 1-4.796-4.794 4.795 4.795 0 0 1 4.796-4.793 4.795 4.795 0 0 1 4.797 4.793 4.795 4.795 0 0 1-4.797 4.794zm0-43.14a4.795 4.795 0 0 1-4.796-4.794 4.795 4.795 0 0 1 4.796-4.794 4.795 4.795 0 0 1 4.797 4.794 4.795 4.795 0 0 1-4.797 4.793zM148.411 173a4.795 4.795 0 0 1-4.796-4.793 4.795 4.795 0 0 1 4.796-4.794 4.795 4.795 0 0 1 4.797 4.794A4.795 4.795 0 0 1 148.41 173zm0-43.14a4.795 4.795 0 0 1-4.796-4.794 4.795 4.795 0 0 1 4.796-4.793 4.795 4.795 0 0 1 4.797 4.793 4.795 4.795 0 0 1-4.797 4.794zM-380.41 65.149a4.795 4.795 0 0 1-4.797-4.794 4.795 4.795 0 0 1 4.797-4.793 4.795 4.795 0 0 1 4.796 4.793 4.795 4.795 0 0 1-4.796 4.794zm-10.792 21.57A4.795 4.795 0 0 1-396 81.926a4.795 4.795 0 0 1 4.797-4.794 4.795 4.795 0 0 1 4.796 4.794 4.795 4.795 0 0 1-4.796 4.793zm32.376-21.57a4.795 4.795 0 0 1-4.796-4.794 4.795 4.795 0 0 1 4.796-4.793 4.795 4.795 0 0 1 4.797 4.793 4.795 4.795 0 0 1-4.797 4.794zm-10.792 21.57a4.795 4.795 0 0 1-4.796-4.793 4.795 4.795 0 0 1 4.796-4.794 4.795 4.795 0 0 1 4.797 4.794 4.795 4.795 0 0 1-4.797 4.793zm32.377-21.57a4.795 4.795 0 0 1-4.797-4.794 4.795 4.795 0 0 1 4.797-4.793 4.795 4.795 0 0 1 4.797 4.793 4.795 4.795 0 0 1-4.797 4.794zm-10.792 21.57a4.795 4.795 0 0 1-4.797-4.793 4.795 4.795 0 0 1 4.797-4.794 4.795 4.795 0 0 1 4.796 4.794 4.795 4.795 0 0 1-4.796 4.793zm32.377-21.57a4.795 4.795 0 0 1-4.797-4.794 4.795 4.795 0 0 1 4.797-4.793 4.795 4.795 0 0 1 4.796 4.793 4.795 4.795 0 0 1-4.796 4.794zm-10.793 21.57a4.795 4.795 0 0 1-4.796-4.793 4.795 4.795 0 0 1 4.796-4.794 4.795 4.795 0 0 1 4.797 4.794 4.795 4.795 0 0 1-4.797 4.793zm32.377-21.57a4.795 4.795 0 0 1-4.796-4.794 4.795 4.795 0 0 1 4.796-4.793 4.795 4.795 0 0 1 4.797 4.793 4.795 4.795 0 0 1-4.797 4.794zm-10.792 21.57a4.795 4.795 0 0 1-4.797-4.793 4.795 4.795 0 0 1 4.797-4.794 4.795 4.795 0 0 1 4.796 4.794 4.795 4.795 0 0 1-4.796 4.793zm32.377-21.57a4.795 4.795 0 0 1-4.797-4.794 4.795 4.795 0 0 1 4.797-4.793 4.795 4.795 0 0 1 4.796 4.793 4.795 4.795 0 0 1-4.796 4.794zm-10.793 21.57a4.795 4.795 0 0 1-4.796-4.793 4.795 4.795 0 0 1 4.796-4.794 4.795 4.795 0 0 1 4.797 4.794 4.795 4.795 0 0 1-4.797 4.793zm32.377-21.57a4.795 4.795 0 0 1-4.796-4.794 4.795 4.795 0 0 1 4.796-4.793 4.795 4.795 0 0 1 4.797 4.793 4.795 4.795 0 0 1-4.797 4.794zm-10.792 21.57a4.795 4.795 0 0 1-4.797-4.793 4.795 4.795 0 0 1 4.797-4.794 4.795 4.795 0 0 1 4.797 4.794 4.795 4.795 0 0 1-4.797 4.793zm32.377-21.57a4.795 4.795 0 0 1-4.797-4.794 4.795 4.795 0 0 1 4.797-4.793 4.795 4.795 0 0 1 4.797 4.793 4.795 4.795 0 0 1-4.797 4.794zm-10.792 21.57a4.795 4.795 0 0 1-4.797-4.793 4.795 4.795 0 0 1 4.797-4.794 4.795 4.795 0 0 1 4.796 4.794 4.795 4.795 0 0 1-4.796 4.793zm32.377-21.57a4.795 4.795 0 0 1-4.797-4.794 4.795 4.795 0 0 1 4.797-4.793 4.795 4.795 0 0 1 4.796 4.793 4.795 4.795 0 0 1-4.796 4.794zm-10.793 21.57a4.795 4.795 0 0 1-4.796-4.793 4.795 4.795 0 0 1 4.796-4.794 4.795 4.795 0 0 1 4.797 4.794 4.795 4.795 0 0 1-4.797 4.793zm32.377-21.57a4.795 4.795 0 0 1-4.796-4.794 4.795 4.795 0 0 1 4.796-4.793 4.795 4.795 0 0 1 4.797 4.793 4.795 4.795 0 0 1-4.797 4.794zm-10.792 21.57a4.795 4.795 0 0 1-4.797-4.793 4.795 4.795 0 0 1 4.797-4.794 4.795 4.795 0 0 1 4.796 4.794 4.795 4.795 0 0 1-4.796 4.793zm32.377-21.57a4.795 4.795 0 0 1-4.797-4.794 4.795 4.795 0 0 1 4.797-4.793 4.795 4.795 0 0 1 4.796 4.793 4.795 4.795 0 0 1-4.796 4.794zm-10.793 21.57a4.795 4.795 0 0 1-4.796-4.793 4.795 4.795 0 0 1 4.796-4.794 4.795 4.795 0 0 1 4.797 4.794 4.795 4.795 0 0 1-4.797 4.793zm32.377-21.57a4.795 4.795 0 0 1-4.796-4.794 4.795 4.795 0 0 1 4.796-4.793 4.795 4.795 0 0 1 4.797 4.793 4.795 4.795 0 0 1-4.797 4.794zm-10.792 21.57a4.795 4.795 0 0 1-4.797-4.793 4.795 4.795 0 0 1 4.797-4.794 4.795 4.795 0 0 1 4.797 4.794 4.795 4.795 0 0 1-4.797 4.793zm32.377-21.57a4.795 4.795 0 0 1-4.797-4.794 4.795 4.795 0 0 1 4.797-4.793 4.795 4.795 0 0 1 4.796 4.793 4.795 4.795 0 0 1-4.796 4.794zm-10.792 21.57a4.795 4.795 0 0 1-4.797-4.793 4.795 4.795 0 0 1 4.797-4.794 4.795 4.795 0 0 1 4.796 4.794 4.795 4.795 0 0 1-4.796 4.793zm32.376-21.57a4.795 4.795 0 0 1-4.796-4.794 4.795 4.795 0 0 1 4.796-4.793 4.795 4.795 0 0 1 4.797 4.793 4.795 4.795 0 0 1-4.797 4.794zm-10.792 21.57a4.795 4.795 0 0 1-4.796-4.793 4.795 4.795 0 0 1 4.796-4.794 4.795 4.795 0 0 1 4.797 4.794 4.795 4.795 0 0 1-4.797 4.793zm32.377-21.57a4.795 4.795 0 0 1-4.797-4.794 4.795 4.795 0 0 1 4.797-4.793 4.795 4.795 0 0 1 4.797 4.793 4.795 4.795 0 0 1-4.797 4.794zm-10.792 21.57a4.795 4.795 0 0 1-4.797-4.793 4.795 4.795 0 0 1 4.797-4.794 4.795 4.795 0 0 1 4.796 4.794 4.795 4.795 0 0 1-4.796 4.793zm32.377-21.57a4.795 4.795 0 0 1-4.797-4.794 4.795 4.795 0 0 1 4.797-4.793 4.795 4.795 0 0 1 4.796 4.793 4.795 4.795 0 0 1-4.796 4.794zm-10.793 21.57a4.795 4.795 0 0 1-4.796-4.793 4.795 4.795 0 0 1 4.796-4.794 4.795 4.795 0 0 1 4.797 4.794 4.795 4.795 0 0 1-4.797 4.793zm32.377-21.57a4.795 4.795 0 0 1-4.796-4.794 4.795 4.795 0 0 1 4.796-4.793 4.795 4.795 0 0 1 4.797 4.793 4.795 4.795 0 0 1-4.797 4.794zm-10.792 21.57a4.795 4.795 0 0 1-4.797-4.793 4.795 4.795 0 0 1 4.797-4.794 4.795 4.795 0 0 1 4.796 4.794 4.795 4.795 0 0 1-4.796 4.793zm32.377-21.57a4.795 4.795 0 0 1-4.797-4.794 4.795 4.795 0 0 1 4.797-4.793 4.795 4.795 0 0 1 4.796 4.793 4.795 4.795 0 0 1-4.796 4.794zm-10.793 21.57a4.795 4.795 0 0 1-4.796-4.793 4.795 4.795 0 0 1 4.796-4.794 4.795 4.795 0 0 1 4.797 4.794 4.795 4.795 0 0 1-4.797 4.793zm32.377-21.57a4.795 4.795 0 0 1-4.796-4.794 4.795 4.795 0 0 1 4.796-4.793 4.795 4.795 0 0 1 4.797 4.793A4.795 4.795 0 0 1 8.11 65.15zM-2.68 86.719a4.795 4.795 0 0 1-4.797-4.793 4.795 4.795 0 0 1 4.797-4.794 4.795 4.795 0 0 1 4.797 4.794 4.795 4.795 0 0 1-4.797 4.793zm32.377-21.57a4.795 4.795 0 0 1-4.797-4.794 4.795 4.795 0 0 1 4.797-4.793 4.795 4.795 0 0 1 4.797 4.793 4.795 4.795 0 0 1-4.797 4.794zm-10.792 21.57a4.795 4.795 0 0 1-4.797-4.793 4.795 4.795 0 0 1 4.797-4.794 4.795 4.795 0 0 1 4.796 4.794 4.795 4.795 0 0 1-4.796 4.793zm32.377-21.57a4.795 4.795 0 0 1-4.797-4.794 4.795 4.795 0 0 1 4.797-4.793 4.795 4.795 0 0 1 4.796 4.793 4.795 4.795 0 0 1-4.796 4.794zm-10.793 21.57a4.795 4.795 0 0 1-4.796-4.793 4.795 4.795 0 0 1 4.796-4.794 4.795 4.795 0 0 1 4.797 4.794 4.795 4.795 0 0 1-4.797 4.793zm32.377-21.57a4.795 4.795 0 0 1-4.796-4.794 4.795 4.795 0 0 1 4.796-4.793 4.795 4.795 0 0 1 4.797 4.793 4.795 4.795 0 0 1-4.797 4.794zm-10.792 21.57a4.795 4.795 0 0 1-4.797-4.793 4.795 4.795 0 0 1 4.797-4.794 4.795 4.795 0 0 1 4.796 4.794 4.795 4.795 0 0 1-4.796 4.793zm32.377-21.57a4.795 4.795 0 0 1-4.797-4.794 4.795 4.795 0 0 1 4.797-4.793 4.795 4.795 0 0 1 4.796 4.793 4.795 4.795 0 0 1-4.796 4.794zm-10.793 21.57a4.795 4.795 0 0 1-4.796-4.793 4.795 4.795 0 0 1 4.796-4.794 4.795 4.795 0 0 1 4.797 4.794 4.795 4.795 0 0 1-4.797 4.793zm32.377-21.57a4.795 4.795 0 0 1-4.796-4.794 4.795 4.795 0 0 1 4.796-4.793 4.795 4.795 0 0 1 4.797 4.793 4.795 4.795 0 0 1-4.797 4.794zm-10.792 21.57a4.795 4.795 0 0 1-4.797-4.793 4.795 4.795 0 0 1 4.797-4.794 4.795 4.795 0 0 1 4.797 4.794 4.795 4.795 0 0 1-4.797 4.793zm32.377-21.57a4.795 4.795 0 0 1-4.797-4.794 4.795 4.795 0 0 1 4.797-4.793 4.795 4.795 0 0 1 4.796 4.793 4.795 4.795 0 0 1-4.796 4.794zm-10.792 21.57a4.795 4.795 0 0 1-4.797-4.793 4.795 4.795 0 0 1 4.797-4.794 4.795 4.795 0 0 1 4.796 4.794 4.795 4.795 0 0 1-4.796 4.793zm32.376-21.57a4.795 4.795 0 0 1-4.796-4.794 4.795 4.795 0 0 1 4.796-4.793A4.795 4.795 0 0 1 164 60.355a4.795 4.795 0 0 1-4.797 4.794zm-10.792 21.57a4.795 4.795 0 0 1-4.796-4.793 4.795 4.795 0 0 1 4.796-4.794 4.795 4.795 0 0 1 4.797 4.794 4.795 4.795 0 0 1-4.797 4.793zm-528.822-64.71a4.795 4.795 0 0 1-4.797-4.794 4.795 4.795 0 0 1 4.797-4.794 4.795 4.795 0 0 1 4.796 4.794 4.795 4.795 0 0 1-4.796 4.793zm-10.792 21.57A4.795 4.795 0 0 1-396 38.785a4.795 4.795 0 0 1 4.797-4.793 4.795 4.795 0 0 1 4.796 4.793 4.795 4.795 0 0 1-4.796 4.794zm32.376-21.57a4.795 4.795 0 0 1-4.796-4.794 4.795 4.795 0 0 1 4.796-4.794 4.795 4.795 0 0 1 4.797 4.794 4.795 4.795 0 0 1-4.797 4.793zm-10.792 21.57a4.795 4.795 0 0 1-4.796-4.794 4.795 4.795 0 0 1 4.796-4.793 4.795 4.795 0 0 1 4.797 4.793 4.795 4.795 0 0 1-4.797 4.794zm32.377-21.57a4.795 4.795 0 0 1-4.797-4.794 4.795 4.795 0 0 1 4.797-4.794 4.795 4.795 0 0 1 4.797 4.794 4.795 4.795 0 0 1-4.797 4.793zm-10.792 21.57a4.795 4.795 0 0 1-4.797-4.794 4.795 4.795 0 0 1 4.797-4.793 4.795 4.795 0 0 1 4.796 4.793 4.795 4.795 0 0 1-4.796 4.794zm32.377-21.57a4.795 4.795 0 0 1-4.797-4.794 4.795 4.795 0 0 1 4.797-4.794 4.795 4.795 0 0 1 4.796 4.794 4.795 4.795 0 0 1-4.796 4.793zm-10.793 21.57a4.795 4.795 0 0 1-4.796-4.794 4.795 4.795 0 0 1 4.796-4.793 4.795 4.795 0 0 1 4.797 4.793 4.795 4.795 0 0 1-4.797 4.794zm32.377-21.57a4.795 4.795 0 0 1-4.796-4.794 4.795 4.795 0 0 1 4.796-4.794 4.795 4.795 0 0 1 4.797 4.794 4.795 4.795 0 0 1-4.797 4.793zm-10.792 21.57a4.795 4.795 0 0 1-4.797-4.794 4.795 4.795 0 0 1 4.797-4.793 4.795 4.795 0 0 1 4.796 4.793 4.795 4.795 0 0 1-4.796 4.794zm32.377-21.57a4.795 4.795 0 0 1-4.797-4.794 4.795 4.795 0 0 1 4.797-4.794 4.795 4.795 0 0 1 4.796 4.794 4.795 4.795 0 0 1-4.796 4.793zm-10.793 21.57a4.795 4.795 0 0 1-4.796-4.794 4.795 4.795 0 0 1 4.796-4.793 4.795 4.795 0 0 1 4.797 4.793 4.795 4.795 0 0 1-4.797 4.794zm32.377-21.57a4.795 4.795 0 0 1-4.796-4.794 4.795 4.795 0 0 1 4.796-4.794 4.795 4.795 0 0 1 4.797 4.794 4.795 4.795 0 0 1-4.797 4.793zm-10.792 21.57a4.795 4.795 0 0 1-4.797-4.794 4.795 4.795 0 0 1 4.797-4.793 4.795 4.795 0 0 1 4.797 4.793 4.795 4.795 0 0 1-4.797 4.794zm32.377-21.57a4.795 4.795 0 0 1-4.797-4.794 4.795 4.795 0 0 1 4.797-4.794 4.795 4.795 0 0 1 4.797 4.794 4.795 4.795 0 0 1-4.797 4.793zm-10.792 21.57a4.795 4.795 0 0 1-4.797-4.794 4.795 4.795 0 0 1 4.797-4.793 4.795 4.795 0 0 1 4.796 4.793 4.795 4.795 0 0 1-4.796 4.794zm32.377-21.57a4.795 4.795 0 0 1-4.797-4.794 4.795 4.795 0 0 1 4.797-4.794 4.795 4.795 0 0 1 4.796 4.794 4.795 4.795 0 0 1-4.796 4.793zm-10.793 21.57a4.795 4.795 0 0 1-4.796-4.794 4.795 4.795 0 0 1 4.796-4.793 4.795 4.795 0 0 1 4.797 4.793 4.795 4.795 0 0 1-4.797 4.794zm32.377-21.57a4.795 4.795 0 0 1-4.796-4.794 4.795 4.795 0 0 1 4.796-4.794 4.795 4.795 0 0 1 4.797 4.794 4.795 4.795 0 0 1-4.797 4.793zm-10.792 21.57a4.795 4.795 0 0 1-4.797-4.794 4.795 4.795 0 0 1 4.797-4.793 4.795 4.795 0 0 1 4.796 4.793 4.795 4.795 0 0 1-4.796 4.794zm32.377-21.57a4.795 4.795 0 0 1-4.797-4.794 4.795 4.795 0 0 1 4.797-4.794 4.795 4.795 0 0 1 4.796 4.794 4.795 4.795 0 0 1-4.796 4.793zm-10.793 21.57a4.795 4.795 0 0 1-4.796-4.794 4.795 4.795 0 0 1 4.796-4.793 4.795 4.795 0 0 1 4.797 4.793 4.795 4.795 0 0 1-4.797 4.794zm32.377-21.57a4.795 4.795 0 0 1-4.796-4.794 4.795 4.795 0 0 1 4.796-4.794 4.795 4.795 0 0 1 4.797 4.794 4.795 4.795 0 0 1-4.797 4.793zm-10.792 21.57a4.795 4.795 0 0 1-4.797-4.794 4.795 4.795 0 0 1 4.797-4.793 4.795 4.795 0 0 1 4.797 4.793 4.795 4.795 0 0 1-4.797 4.794zm32.377-21.57a4.795 4.795 0 0 1-4.797-4.794 4.795 4.795 0 0 1 4.797-4.794 4.795 4.795 0 0 1 4.796 4.794 4.795 4.795 0 0 1-4.796 4.793zm-10.792 21.57a4.795 4.795 0 0 1-4.797-4.794 4.795 4.795 0 0 1 4.797-4.793 4.795 4.795 0 0 1 4.796 4.793 4.795 4.795 0 0 1-4.796 4.794zm32.376-21.57a4.795 4.795 0 0 1-4.796-4.794 4.795 4.795 0 0 1 4.796-4.794 4.795 4.795 0 0 1 4.797 4.794 4.795 4.795 0 0 1-4.797 4.793zm-10.792 21.57a4.795 4.795 0 0 1-4.796-4.794 4.795 4.795 0 0 1 4.796-4.793 4.795 4.795 0 0 1 4.797 4.793 4.795 4.795 0 0 1-4.797 4.794zm32.377-21.57a4.795 4.795 0 0 1-4.797-4.794 4.795 4.795 0 0 1 4.797-4.794 4.795 4.795 0 0 1 4.797 4.794 4.795 4.795 0 0 1-4.797 4.793zm-10.792 21.57a4.795 4.795 0 0 1-4.797-4.794 4.795 4.795 0 0 1 4.797-4.793 4.795 4.795 0 0 1 4.796 4.793 4.795 4.795 0 0 1-4.796 4.794zm32.377-21.57a4.795 4.795 0 0 1-4.797-4.794 4.795 4.795 0 0 1 4.797-4.794 4.795 4.795 0 0 1 4.796 4.794 4.795 4.795 0 0 1-4.796 4.793zm-10.793 21.57a4.795 4.795 0 0 1-4.796-4.794 4.795 4.795 0 0 1 4.796-4.793 4.795 4.795 0 0 1 4.797 4.793 4.795 4.795 0 0 1-4.797 4.794zm32.377-21.57a4.795 4.795 0 0 1-4.796-4.794 4.795 4.795 0 0 1 4.796-4.794 4.795 4.795 0 0 1 4.797 4.794 4.795 4.795 0 0 1-4.797 4.793zm-10.792 21.57a4.795 4.795 0 0 1-4.797-4.794 4.795 4.795 0 0 1 4.797-4.793 4.795 4.795 0 0 1 4.796 4.793 4.795 4.795 0 0 1-4.796 4.794zm32.377-21.57a4.795 4.795 0 0 1-4.797-4.794 4.795 4.795 0 0 1 4.797-4.794 4.795 4.795 0 0 1 4.796 4.794 4.795 4.795 0 0 1-4.796 4.793zm-10.793 21.57a4.795 4.795 0 0 1-4.796-4.794 4.795 4.795 0 0 1 4.796-4.793 4.795 4.795 0 0 1 4.797 4.793 4.795 4.795 0 0 1-4.797 4.794zm32.377-21.57a4.795 4.795 0 0 1-4.796-4.794A4.795 4.795 0 0 1 8.11 12.42a4.795 4.795 0 0 1 4.797 4.794 4.795 4.795 0 0 1-4.797 4.793zM-2.68 43.578a4.795 4.795 0 0 1-4.797-4.794 4.795 4.795 0 0 1 4.797-4.793 4.795 4.795 0 0 1 4.797 4.793 4.795 4.795 0 0 1-4.797 4.794zm32.377-21.57a4.795 4.795 0 0 1-4.797-4.794 4.795 4.795 0 0 1 4.797-4.794 4.795 4.795 0 0 1 4.797 4.794 4.795 4.795 0 0 1-4.797 4.793zm-10.792 21.57a4.795 4.795 0 0 1-4.797-4.794 4.795 4.795 0 0 1 4.797-4.793 4.795 4.795 0 0 1 4.796 4.793 4.795 4.795 0 0 1-4.796 4.794zm32.377-21.57a4.795 4.795 0 0 1-4.797-4.794 4.795 4.795 0 0 1 4.797-4.794 4.795 4.795 0 0 1 4.796 4.794 4.795 4.795 0 0 1-4.796 4.793zm-10.793 21.57a4.795 4.795 0 0 1-4.796-4.794 4.795 4.795 0 0 1 4.796-4.793 4.795 4.795 0 0 1 4.797 4.793 4.795 4.795 0 0 1-4.797 4.794zm32.377-21.57a4.795 4.795 0 0 1-4.796-4.794 4.795 4.795 0 0 1 4.796-4.794 4.795 4.795 0 0 1 4.797 4.794 4.795 4.795 0 0 1-4.797 4.793zm-10.792 21.57a4.795 4.795 0 0 1-4.797-4.794 4.795 4.795 0 0 1 4.797-4.793 4.795 4.795 0 0 1 4.796 4.793 4.795 4.795 0 0 1-4.796 4.794zm32.377-21.57a4.795 4.795 0 0 1-4.797-4.794 4.795 4.795 0 0 1 4.797-4.794 4.795 4.795 0 0 1 4.796 4.794 4.795 4.795 0 0 1-4.796 4.793zm-10.793 21.57a4.795 4.795 0 0 1-4.796-4.794 4.795 4.795 0 0 1 4.796-4.793 4.795 4.795 0 0 1 4.797 4.793 4.795 4.795 0 0 1-4.797 4.794zm32.377-21.57a4.795 4.795 0 0 1-4.796-4.794 4.795 4.795 0 0 1 4.796-4.794 4.795 4.795 0 0 1 4.797 4.794 4.795 4.795 0 0 1-4.797 4.793zm-10.792 21.57a4.795 4.795 0 0 1-4.797-4.794 4.795 4.795 0 0 1 4.797-4.793 4.795 4.795 0 0 1 4.797 4.793 4.795 4.795 0 0 1-4.797 4.794zm32.377-21.57a4.795 4.795 0 0 1-4.797-4.794 4.795 4.795 0 0 1 4.797-4.794 4.795 4.795 0 0 1 4.796 4.794 4.795 4.795 0 0 1-4.796 4.793zm-10.792 21.57a4.795 4.795 0 0 1-4.797-4.794 4.795 4.795 0 0 1 4.797-4.793 4.795 4.795 0 0 1 4.796 4.793 4.795 4.795 0 0 1-4.796 4.794zm32.376-21.57a4.795 4.795 0 0 1-4.796-4.794 4.795 4.795 0 0 1 4.796-4.794A4.795 4.795 0 0 1 164 17.215a4.795 4.795 0 0 1-4.797 4.793zm-10.792 21.57a4.795 4.795 0 0 1-4.796-4.794 4.795 4.795 0 0 1 4.796-4.793 4.795 4.795 0 0 1 4.797 4.793 4.795 4.795 0 0 1-4.797 4.794zM-380.41-21.132a4.795 4.795 0 0 1-4.797-4.794 4.795 4.795 0 0 1 4.797-4.793 4.795 4.795 0 0 1 4.796 4.793 4.795 4.795 0 0 1-4.796 4.794zM-391.203.438A4.795 4.795 0 0 1-396-4.355a4.795 4.795 0 0 1 4.797-4.794 4.795 4.795 0 0 1 4.796 4.794 4.795 4.795 0 0 1-4.796 4.793zm32.376-21.57a4.795 4.795 0 0 1-4.796-4.794 4.795 4.795 0 0 1 4.796-4.793 4.795 4.795 0 0 1 4.797 4.793 4.795 4.795 0 0 1-4.797 4.794zM-369.619.438a4.795 4.795 0 0 1-4.796-4.793 4.795 4.795 0 0 1 4.796-4.794 4.795 4.795 0 0 1 4.797 4.794A4.795 4.795 0 0 1-369.62.438zm32.377-21.57a4.795 4.795 0 0 1-4.797-4.794 4.795 4.795 0 0 1 4.797-4.793 4.795 4.795 0 0 1 4.797 4.793 4.795 4.795 0 0 1-4.797 4.794zM-348.034.438a4.795 4.795 0 0 1-4.797-4.793 4.795 4.795 0 0 1 4.797-4.794 4.795 4.795 0 0 1 4.796 4.794 4.795 4.795 0 0 1-4.796 4.793zm32.377-21.57a4.795 4.795 0 0 1-4.797-4.794 4.795 4.795 0 0 1 4.797-4.793 4.795 4.795 0 0 1 4.796 4.793 4.795 4.795 0 0 1-4.796 4.794zM-326.45.438a4.795 4.795 0 0 1-4.796-4.793 4.795 4.795 0 0 1 4.796-4.794 4.795 4.795 0 0 1 4.797 4.794A4.795 4.795 0 0 1-326.45.438zm32.377-21.57a4.795 4.795 0 0 1-4.796-4.794 4.795 4.795 0 0 1 4.796-4.793 4.795 4.795 0 0 1 4.797 4.793 4.795 4.795 0 0 1-4.797 4.794zM-304.865.438a4.795 4.795 0 0 1-4.797-4.793 4.795 4.795 0 0 1 4.797-4.794 4.795 4.795 0 0 1 4.796 4.794 4.795 4.795 0 0 1-4.796 4.793zm32.377-21.57a4.795 4.795 0 0 1-4.797-4.794 4.795 4.795 0 0 1 4.797-4.793 4.795 4.795 0 0 1 4.796 4.793 4.795 4.795 0 0 1-4.796 4.794zM-283.281.438a4.795 4.795 0 0 1-4.796-4.793 4.795 4.795 0 0 1 4.796-4.794 4.795 4.795 0 0 1 4.797 4.794A4.795 4.795 0 0 1-283.28.438zm32.377-21.57a4.795 4.795 0 0 1-4.796-4.794 4.795 4.795 0 0 1 4.796-4.793 4.795 4.795 0 0 1 4.797 4.793 4.795 4.795 0 0 1-4.797 4.794zM-261.696.438a4.795 4.795 0 0 1-4.797-4.793 4.795 4.795 0 0 1 4.797-4.794 4.795 4.795 0 0 1 4.797 4.794 4.795 4.795 0 0 1-4.797 4.793zm32.377-21.57a4.795 4.795 0 0 1-4.797-4.794 4.795 4.795 0 0 1 4.797-4.793 4.795 4.795 0 0 1 4.797 4.793 4.795 4.795 0 0 1-4.797 4.794zM-240.111.438a4.795 4.795 0 0 1-4.797-4.793 4.795 4.795 0 0 1 4.797-4.794 4.795 4.795 0 0 1 4.796 4.794A4.795 4.795 0 0 1-240.11.438zm32.377-21.57a4.795 4.795 0 0 1-4.797-4.794 4.795 4.795 0 0 1 4.797-4.793 4.795 4.795 0 0 1 4.796 4.793 4.795 4.795 0 0 1-4.796 4.794zM-218.527.438a4.795 4.795 0 0 1-4.796-4.793 4.795 4.795 0 0 1 4.796-4.794 4.795 4.795 0 0 1 4.797 4.794 4.795 4.795 0 0 1-4.797 4.793zm32.377-21.57a4.795 4.795 0 0 1-4.796-4.794 4.795 4.795 0 0 1 4.796-4.793 4.795 4.795 0 0 1 4.797 4.793 4.795 4.795 0 0 1-4.797 4.794zM-196.942.438a4.795 4.795 0 0 1-4.797-4.793 4.795 4.795 0 0 1 4.797-4.794 4.795 4.795 0 0 1 4.796 4.794 4.795 4.795 0 0 1-4.796 4.793zm32.377-21.57a4.795 4.795 0 0 1-4.797-4.794 4.795 4.795 0 0 1 4.797-4.793 4.795 4.795 0 0 1 4.796 4.793 4.795 4.795 0 0 1-4.796 4.794zM-175.358.438a4.795 4.795 0 0 1-4.796-4.793 4.795 4.795 0 0 1 4.796-4.794 4.795 4.795 0 0 1 4.797 4.794 4.795 4.795 0 0 1-4.797 4.793zm32.377-21.57a4.795 4.795 0 0 1-4.796-4.794 4.795 4.795 0 0 1 4.796-4.793 4.795 4.795 0 0 1 4.797 4.793 4.795 4.795 0 0 1-4.797 4.794zM-153.773.438a4.795 4.795 0 0 1-4.797-4.793 4.795 4.795 0 0 1 4.797-4.794 4.795 4.795 0 0 1 4.797 4.794 4.795 4.795 0 0 1-4.797 4.793zm32.377-21.57a4.795 4.795 0 0 1-4.797-4.794 4.795 4.795 0 0 1 4.797-4.793 4.795 4.795 0 0 1 4.796 4.793 4.795 4.795 0 0 1-4.796 4.794zM-132.188.438a4.795 4.795 0 0 1-4.797-4.793 4.795 4.795 0 0 1 4.797-4.794 4.795 4.795 0 0 1 4.796 4.794 4.795 4.795 0 0 1-4.796 4.793zm32.376-21.57a4.795 4.795 0 0 1-4.796-4.794 4.795 4.795 0 0 1 4.796-4.793 4.795 4.795 0 0 1 4.797 4.793 4.795 4.795 0 0 1-4.797 4.794zM-110.604.438a4.795 4.795 0 0 1-4.796-4.793 4.795 4.795 0 0 1 4.796-4.794 4.795 4.795 0 0 1 4.797 4.794 4.795 4.795 0 0 1-4.797 4.793zm32.377-21.57a4.795 4.795 0 0 1-4.797-4.794 4.795 4.795 0 0 1 4.797-4.793 4.795 4.795 0 0 1 4.797 4.793 4.795 4.795 0 0 1-4.797 4.794zM-89.019.438a4.795 4.795 0 0 1-4.797-4.793 4.795 4.795 0 0 1 4.797-4.794 4.795 4.795 0 0 1 4.796 4.794A4.795 4.795 0 0 1-89.019.438zm32.377-21.57a4.795 4.795 0 0 1-4.797-4.794 4.795 4.795 0 0 1 4.797-4.793 4.795 4.795 0 0 1 4.796 4.793 4.795 4.795 0 0 1-4.796 4.794zM-67.435.438a4.795 4.795 0 0 1-4.796-4.793 4.795 4.795 0 0 1 4.796-4.794 4.795 4.795 0 0 1 4.797 4.794A4.795 4.795 0 0 1-67.435.438zm32.377-21.57a4.795 4.795 0 0 1-4.796-4.794 4.795 4.795 0 0 1 4.796-4.793 4.795 4.795 0 0 1 4.797 4.793 4.795 4.795 0 0 1-4.797 4.794zM-45.85.438a4.795 4.795 0 0 1-4.797-4.793A4.795 4.795 0 0 1-45.85-9.15a4.795 4.795 0 0 1 4.796 4.794A4.795 4.795 0 0 1-45.85.438zm32.377-21.57a4.795 4.795 0 0 1-4.797-4.794 4.795 4.795 0 0 1 4.797-4.793 4.795 4.795 0 0 1 4.796 4.793 4.795 4.795 0 0 1-4.796 4.794zM-24.266.438a4.795 4.795 0 0 1-4.796-4.793 4.795 4.795 0 0 1 4.796-4.794 4.795 4.795 0 0 1 4.797 4.794A4.795 4.795 0 0 1-24.266.438zm32.377-21.57a4.795 4.795 0 0 1-4.796-4.794 4.795 4.795 0 0 1 4.796-4.793 4.795 4.795 0 0 1 4.797 4.793 4.795 4.795 0 0 1-4.797 4.794zM-2.68.438a4.795 4.795 0 0 1-4.797-4.793A4.795 4.795 0 0 1-2.68-9.15a4.795 4.795 0 0 1 4.797 4.794A4.795 4.795 0 0 1-2.681.438zm32.377-21.57a4.795 4.795 0 0 1-4.797-4.794 4.795 4.795 0 0 1 4.797-4.793 4.795 4.795 0 0 1 4.797 4.793 4.795 4.795 0 0 1-4.797 4.794zM18.904.438a4.795 4.795 0 0 1-4.797-4.793 4.795 4.795 0 0 1 4.797-4.794A4.795 4.795 0 0 1 23.7-4.355 4.795 4.795 0 0 1 18.904.438zm32.377-21.57a4.795 4.795 0 0 1-4.797-4.794 4.795 4.795 0 0 1 4.797-4.793 4.795 4.795 0 0 1 4.796 4.793 4.795 4.795 0 0 1-4.796 4.794zM40.488.438a4.795 4.795 0 0 1-4.796-4.793 4.795 4.795 0 0 1 4.796-4.794 4.795 4.795 0 0 1 4.797 4.794A4.795 4.795 0 0 1 40.488.438zm32.377-21.57a4.795 4.795 0 0 1-4.796-4.794 4.795 4.795 0 0 1 4.796-4.793 4.795 4.795 0 0 1 4.797 4.793 4.795 4.795 0 0 1-4.797 4.794zM62.073.438a4.795 4.795 0 0 1-4.797-4.793 4.795 4.795 0 0 1 4.797-4.794 4.795 4.795 0 0 1 4.796 4.794A4.795 4.795 0 0 1 62.073.438zm32.377-21.57a4.795 4.795 0 0 1-4.797-4.794 4.795 4.795 0 0 1 4.797-4.793 4.795 4.795 0 0 1 4.796 4.793 4.795 4.795 0 0 1-4.796 4.794zM83.657.438a4.795 4.795 0 0 1-4.796-4.793 4.795 4.795 0 0 1 4.796-4.794 4.795 4.795 0 0 1 4.797 4.794A4.795 4.795 0 0 1 83.657.438zm32.377-21.57a4.795 4.795 0 0 1-4.796-4.794 4.795 4.795 0 0 1 4.796-4.793 4.795 4.795 0 0 1 4.797 4.793 4.795 4.795 0 0 1-4.797 4.794zM105.242.438a4.795 4.795 0 0 1-4.797-4.793 4.795 4.795 0 0 1 4.797-4.794 4.795 4.795 0 0 1 4.797 4.794 4.795 4.795 0 0 1-4.797 4.793zm32.377-21.57a4.795 4.795 0 0 1-4.797-4.794 4.795 4.795 0 0 1 4.797-4.793 4.795 4.795 0 0 1 4.796 4.793 4.795 4.795 0 0 1-4.796 4.794zM126.827.438a4.795 4.795 0 0 1-4.797-4.793 4.795 4.795 0 0 1 4.797-4.794 4.795 4.795 0 0 1 4.796 4.794 4.795 4.795 0 0 1-4.796 4.793zm32.376-21.57a4.795 4.795 0 0 1-4.796-4.794 4.795 4.795 0 0 1 4.796-4.793A4.795 4.795 0 0 1 164-25.926a4.795 4.795 0 0 1-4.797 4.794zM148.411.438a4.795 4.795 0 0 1-4.796-4.793 4.795 4.795 0 0 1 4.796-4.794 4.795 4.795 0 0 1 4.797 4.794A4.795 4.795 0 0 1 148.41.438zm-528.822-64.71a4.795 4.795 0 0 1-4.797-4.794 4.795 4.795 0 0 1 4.797-4.794 4.795 4.795 0 0 1 4.796 4.794 4.795 4.795 0 0 1-4.796 4.793zm-10.792 21.57A4.795 4.795 0 0 1-396-47.496a4.795 4.795 0 0 1 4.797-4.793 4.795 4.795 0 0 1 4.796 4.793 4.795 4.795 0 0 1-4.796 4.794zm32.376-21.57a4.795 4.795 0 0 1-4.796-4.794 4.795 4.795 0 0 1 4.796-4.794 4.795 4.795 0 0 1 4.797 4.794 4.795 4.795 0 0 1-4.797 4.793zm-10.792 21.57a4.795 4.795 0 0 1-4.796-4.794 4.795 4.795 0 0 1 4.796-4.793 4.795 4.795 0 0 1 4.797 4.793 4.795 4.795 0 0 1-4.797 4.794zm32.377-21.57a4.795 4.795 0 0 1-4.797-4.794 4.795 4.795 0 0 1 4.797-4.794 4.795 4.795 0 0 1 4.797 4.794 4.795 4.795 0 0 1-4.797 4.793zm-10.792 21.57a4.795 4.795 0 0 1-4.797-4.794 4.795 4.795 0 0 1 4.797-4.793 4.795 4.795 0 0 1 4.796 4.793 4.795 4.795 0 0 1-4.796 4.794zm32.377-21.57a4.795 4.795 0 0 1-4.797-4.794 4.795 4.795 0 0 1 4.797-4.794 4.795 4.795 0 0 1 4.796 4.794 4.795 4.795 0 0 1-4.796 4.793zm-10.793 21.57a4.795 4.795 0 0 1-4.796-4.794 4.795 4.795 0 0 1 4.796-4.793 4.795 4.795 0 0 1 4.797 4.793 4.795 4.795 0 0 1-4.797 4.794zm32.377-21.57a4.795 4.795 0 0 1-4.796-4.794 4.795 4.795 0 0 1 4.796-4.794 4.795 4.795 0 0 1 4.797 4.794 4.795 4.795 0 0 1-4.797 4.793zm-10.792 21.57a4.795 4.795 0 0 1-4.797-4.794 4.795 4.795 0 0 1 4.797-4.793 4.795 4.795 0 0 1 4.796 4.793 4.795 4.795 0 0 1-4.796 4.794zm32.377-21.57a4.795 4.795 0 0 1-4.797-4.794 4.795 4.795 0 0 1 4.797-4.794 4.795 4.795 0 0 1 4.796 4.794 4.795 4.795 0 0 1-4.796 4.793zm-10.793 21.57a4.795 4.795 0 0 1-4.796-4.794 4.795 4.795 0 0 1 4.796-4.793 4.795 4.795 0 0 1 4.797 4.793 4.795 4.795 0 0 1-4.797 4.794zm32.377-21.57a4.795 4.795 0 0 1-4.796-4.794 4.795 4.795 0 0 1 4.796-4.794 4.795 4.795 0 0 1 4.797 4.794 4.795 4.795 0 0 1-4.797 4.793zm-10.792 21.57a4.795 4.795 0 0 1-4.797-4.794 4.795 4.795 0 0 1 4.797-4.793 4.795 4.795 0 0 1 4.797 4.793 4.795 4.795 0 0 1-4.797 4.794zm32.377-21.57a4.795 4.795 0 0 1-4.797-4.794 4.795 4.795 0 0 1 4.797-4.794 4.795 4.795 0 0 1 4.797 4.794 4.795 4.795 0 0 1-4.797 4.793zm-10.792 21.57a4.795 4.795 0 0 1-4.797-4.794 4.795 4.795 0 0 1 4.797-4.793 4.795 4.795 0 0 1 4.796 4.793 4.795 4.795 0 0 1-4.796 4.794zm32.377-21.57a4.795 4.795 0 0 1-4.797-4.794 4.795 4.795 0 0 1 4.797-4.794 4.795 4.795 0 0 1 4.796 4.794 4.795 4.795 0 0 1-4.796 4.793zm-10.793 21.57a4.795 4.795 0 0 1-4.796-4.794 4.795 4.795 0 0 1 4.796-4.793 4.795 4.795 0 0 1 4.797 4.793 4.795 4.795 0 0 1-4.797 4.794zm32.377-21.57a4.795 4.795 0 0 1-4.796-4.794 4.795 4.795 0 0 1 4.796-4.794 4.795 4.795 0 0 1 4.797 4.794 4.795 4.795 0 0 1-4.797 4.793zm-10.792 21.57a4.795 4.795 0 0 1-4.797-4.794 4.795 4.795 0 0 1 4.797-4.793 4.795 4.795 0 0 1 4.796 4.793 4.795 4.795 0 0 1-4.796 4.794zm32.377-21.57a4.795 4.795 0 0 1-4.797-4.794 4.795 4.795 0 0 1 4.797-4.794 4.795 4.795 0 0 1 4.796 4.794 4.795 4.795 0 0 1-4.796 4.793zm-10.793 21.57a4.795 4.795 0 0 1-4.796-4.794 4.795 4.795 0 0 1 4.796-4.793 4.795 4.795 0 0 1 4.797 4.793 4.795 4.795 0 0 1-4.797 4.794zm32.377-21.57a4.795 4.795 0 0 1-4.796-4.794 4.795 4.795 0 0 1 4.796-4.794 4.795 4.795 0 0 1 4.797 4.794 4.795 4.795 0 0 1-4.797 4.793zm-10.792 21.57a4.795 4.795 0 0 1-4.797-4.794 4.795 4.795 0 0 1 4.797-4.793 4.795 4.795 0 0 1 4.797 4.793 4.795 4.795 0 0 1-4.797 4.794zm32.377-21.57a4.795 4.795 0 0 1-4.797-4.794 4.795 4.795 0 0 1 4.797-4.794 4.795 4.795 0 0 1 4.796 4.794 4.795 4.795 0 0 1-4.796 4.793zm-10.792 21.57a4.795 4.795 0 0 1-4.797-4.794 4.795 4.795 0 0 1 4.797-4.793 4.795 4.795 0 0 1 4.796 4.793 4.795 4.795 0 0 1-4.796 4.794zm32.376-21.57a4.795 4.795 0 0 1-4.796-4.794 4.795 4.795 0 0 1 4.796-4.794 4.795 4.795 0 0 1 4.797 4.794 4.795 4.795 0 0 1-4.797 4.793zm-10.792 21.57a4.795 4.795 0 0 1-4.796-4.794 4.795 4.795 0 0 1 4.796-4.793 4.795 4.795 0 0 1 4.797 4.793 4.795 4.795 0 0 1-4.797 4.794zm32.377-21.57a4.795 4.795 0 0 1-4.797-4.794 4.795 4.795 0 0 1 4.797-4.794 4.795 4.795 0 0 1 4.797 4.794 4.795 4.795 0 0 1-4.797 4.793zm-10.792 21.57a4.795 4.795 0 0 1-4.797-4.794 4.795 4.795 0 0 1 4.797-4.793 4.795 4.795 0 0 1 4.796 4.793 4.795 4.795 0 0 1-4.796 4.794zm32.377-21.57a4.795 4.795 0 0 1-4.797-4.794 4.795 4.795 0 0 1 4.797-4.794 4.795 4.795 0 0 1 4.796 4.794 4.795 4.795 0 0 1-4.796 4.793zm-10.793 21.57a4.795 4.795 0 0 1-4.796-4.794 4.795 4.795 0 0 1 4.796-4.793 4.795 4.795 0 0 1 4.797 4.793 4.795 4.795 0 0 1-4.797 4.794zm32.377-21.57a4.795 4.795 0 0 1-4.796-4.794 4.795 4.795 0 0 1 4.796-4.794 4.795 4.795 0 0 1 4.797 4.794 4.795 4.795 0 0 1-4.797 4.793zm-10.792 21.57a4.795 4.795 0 0 1-4.797-4.794 4.795 4.795 0 0 1 4.797-4.793 4.795 4.795 0 0 1 4.796 4.793 4.795 4.795 0 0 1-4.796 4.794zm32.377-21.57a4.795 4.795 0 0 1-4.797-4.794 4.795 4.795 0 0 1 4.797-4.794 4.795 4.795 0 0 1 4.796 4.794 4.795 4.795 0 0 1-4.796 4.793zm-10.793 21.57a4.795 4.795 0 0 1-4.796-4.794 4.795 4.795 0 0 1 4.796-4.793 4.795 4.795 0 0 1 4.797 4.793 4.795 4.795 0 0 1-4.797 4.794zm32.377-21.57a4.795 4.795 0 0 1-4.796-4.794A4.795 4.795 0 0 1 8.11-73.86a4.795 4.795 0 0 1 4.797 4.794 4.795 4.795 0 0 1-4.797 4.793zM-2.68-42.703a4.795 4.795 0 0 1-4.797-4.794 4.795 4.795 0 0 1 4.797-4.793 4.795 4.795 0 0 1 4.797 4.793 4.795 4.795 0 0 1-4.797 4.794zm32.377-21.57a4.795 4.795 0 0 1-4.797-4.794 4.795 4.795 0 0 1 4.797-4.794 4.795 4.795 0 0 1 4.797 4.794 4.795 4.795 0 0 1-4.797 4.793zm-10.792 21.57a4.795 4.795 0 0 1-4.797-4.794 4.795 4.795 0 0 1 4.797-4.793 4.795 4.795 0 0 1 4.796 4.793 4.795 4.795 0 0 1-4.796 4.794zm32.377-21.57a4.795 4.795 0 0 1-4.797-4.794 4.795 4.795 0 0 1 4.797-4.794 4.795 4.795 0 0 1 4.796 4.794 4.795 4.795 0 0 1-4.796 4.793zm-10.793 21.57a4.795 4.795 0 0 1-4.796-4.794 4.795 4.795 0 0 1 4.796-4.793 4.795 4.795 0 0 1 4.797 4.793 4.795 4.795 0 0 1-4.797 4.794zm32.377-21.57a4.795 4.795 0 0 1-4.796-4.794 4.795 4.795 0 0 1 4.796-4.794 4.795 4.795 0 0 1 4.797 4.794 4.795 4.795 0 0 1-4.797 4.793zm-10.792 21.57a4.795 4.795 0 0 1-4.797-4.794 4.795 4.795 0 0 1 4.797-4.793 4.795 4.795 0 0 1 4.796 4.793 4.795 4.795 0 0 1-4.796 4.794zm32.377-21.57a4.795 4.795 0 0 1-4.797-4.794 4.795 4.795 0 0 1 4.797-4.794 4.795 4.795 0 0 1 4.796 4.794 4.795 4.795 0 0 1-4.796 4.793zm-10.793 21.57a4.795 4.795 0 0 1-4.796-4.794 4.795 4.795 0 0 1 4.796-4.793 4.795 4.795 0 0 1 4.797 4.793 4.795 4.795 0 0 1-4.797 4.794zm32.377-21.57a4.795 4.795 0 0 1-4.796-4.794 4.795 4.795 0 0 1 4.796-4.794 4.795 4.795 0 0 1 4.797 4.794 4.795 4.795 0 0 1-4.797 4.793zm-10.792 21.57a4.795 4.795 0 0 1-4.797-4.794 4.795 4.795 0 0 1 4.797-4.793 4.795 4.795 0 0 1 4.797 4.793 4.795 4.795 0 0 1-4.797 4.794zm32.377-21.57a4.795 4.795 0 0 1-4.797-4.794 4.795 4.795 0 0 1 4.797-4.794 4.795 4.795 0 0 1 4.796 4.794 4.795 4.795 0 0 1-4.796 4.793zm-10.792 21.57a4.795 4.795 0 0 1-4.797-4.794 4.795 4.795 0 0 1 4.797-4.793 4.795 4.795 0 0 1 4.796 4.793 4.795 4.795 0 0 1-4.796 4.794zm32.376-21.57a4.795 4.795 0 0 1-4.796-4.794 4.795 4.795 0 0 1 4.796-4.794A4.795 4.795 0 0 1 164-69.066a4.795 4.795 0 0 1-4.797 4.793zm-10.792 21.57a4.795 4.795 0 0 1-4.796-4.794 4.795 4.795 0 0 1 4.796-4.793 4.795 4.795 0 0 1 4.797 4.793 4.795 4.795 0 0 1-4.797 4.794zm-528.822-64.711a4.795 4.795 0 0 1-4.797-4.794A4.795 4.795 0 0 1-380.41-117a4.795 4.795 0 0 1 4.796 4.793 4.795 4.795 0 0 1-4.796 4.794zm-10.792 21.57A4.795 4.795 0 0 1-396-90.636a4.795 4.795 0 0 1 4.797-4.794 4.795 4.795 0 0 1 4.796 4.794 4.795 4.795 0 0 1-4.796 4.793zm32.376-21.57a4.795 4.795 0 0 1-4.796-4.794 4.795 4.795 0 0 1 4.796-4.793 4.795 4.795 0 0 1 4.797 4.793 4.795 4.795 0 0 1-4.797 4.794zm-10.792 21.57a4.795 4.795 0 0 1-4.796-4.793 4.795 4.795 0 0 1 4.796-4.794 4.795 4.795 0 0 1 4.797 4.794 4.795 4.795 0 0 1-4.797 4.793zm32.377-21.57a4.795 4.795 0 0 1-4.797-4.794 4.795 4.795 0 0 1 4.797-4.793 4.795 4.795 0 0 1 4.797 4.793 4.795 4.795 0 0 1-4.797 4.794zm-10.792 21.57a4.795 4.795 0 0 1-4.797-4.793 4.795 4.795 0 0 1 4.797-4.794 4.795 4.795 0 0 1 4.796 4.794 4.795 4.795 0 0 1-4.796 4.793zm32.377-21.57a4.795 4.795 0 0 1-4.797-4.794 4.795 4.795 0 0 1 4.797-4.793 4.795 4.795 0 0 1 4.796 4.793 4.795 4.795 0 0 1-4.796 4.794zm-10.793 21.57a4.795 4.795 0 0 1-4.796-4.793 4.795 4.795 0 0 1 4.796-4.794 4.795 4.795 0 0 1 4.797 4.794 4.795 4.795 0 0 1-4.797 4.793zm32.377-21.57a4.795 4.795 0 0 1-4.796-4.794 4.795 4.795 0 0 1 4.796-4.793 4.795 4.795 0 0 1 4.797 4.793 4.795 4.795 0 0 1-4.797 4.794zm-10.792 21.57a4.795 4.795 0 0 1-4.797-4.793 4.795 4.795 0 0 1 4.797-4.794 4.795 4.795 0 0 1 4.796 4.794 4.795 4.795 0 0 1-4.796 4.793zm32.377-21.57a4.795 4.795 0 0 1-4.797-4.794 4.795 4.795 0 0 1 4.797-4.793 4.795 4.795 0 0 1 4.796 4.793 4.795 4.795 0 0 1-4.796 4.794zm-10.793 21.57a4.795 4.795 0 0 1-4.796-4.793 4.795 4.795 0 0 1 4.796-4.794 4.795 4.795 0 0 1 4.797 4.794 4.795 4.795 0 0 1-4.797 4.793zm32.377-21.57a4.795 4.795 0 0 1-4.796-4.794 4.795 4.795 0 0 1 4.796-4.793 4.795 4.795 0 0 1 4.797 4.793 4.795 4.795 0 0 1-4.797 4.794zm-10.792 21.57a4.795 4.795 0 0 1-4.797-4.793 4.795 4.795 0 0 1 4.797-4.794 4.795 4.795 0 0 1 4.797 4.794 4.795 4.795 0 0 1-4.797 4.793zm32.377-21.57a4.795 4.795 0 0 1-4.797-4.794 4.795 4.795 0 0 1 4.797-4.793 4.795 4.795 0 0 1 4.797 4.793 4.795 4.795 0 0 1-4.797 4.794zm-10.792 21.57a4.795 4.795 0 0 1-4.797-4.793 4.795 4.795 0 0 1 4.797-4.794 4.795 4.795 0 0 1 4.796 4.794 4.795 4.795 0 0 1-4.796 4.793zm32.377-21.57a4.795 4.795 0 0 1-4.797-4.794 4.795 4.795 0 0 1 4.797-4.793 4.795 4.795 0 0 1 4.796 4.793 4.795 4.795 0 0 1-4.796 4.794zm-10.793 21.57a4.795 4.795 0 0 1-4.796-4.793 4.795 4.795 0 0 1 4.796-4.794 4.795 4.795 0 0 1 4.797 4.794 4.795 4.795 0 0 1-4.797 4.793zm32.377-21.57a4.795 4.795 0 0 1-4.796-4.794A4.795 4.795 0 0 1-186.15-117a4.795 4.795 0 0 1 4.797 4.793 4.795 4.795 0 0 1-4.797 4.794zm-10.792 21.57a4.795 4.795 0 0 1-4.797-4.793 4.795 4.795 0 0 1 4.797-4.794 4.795 4.795 0 0 1 4.796 4.794 4.795 4.795 0 0 1-4.796 4.793zm32.377-21.57a4.795 4.795 0 0 1-4.797-4.794 4.795 4.795 0 0 1 4.797-4.793 4.795 4.795 0 0 1 4.796 4.793 4.795 4.795 0 0 1-4.796 4.794zm-10.793 21.57a4.795 4.795 0 0 1-4.796-4.793 4.795 4.795 0 0 1 4.796-4.794 4.795 4.795 0 0 1 4.797 4.794 4.795 4.795 0 0 1-4.797 4.793zm32.377-21.57a4.795 4.795 0 0 1-4.796-4.794 4.795 4.795 0 0 1 4.796-4.793 4.795 4.795 0 0 1 4.797 4.793 4.795 4.795 0 0 1-4.797 4.794zm-10.792 21.57a4.795 4.795 0 0 1-4.797-4.793 4.795 4.795 0 0 1 4.797-4.794 4.795 4.795 0 0 1 4.797 4.794 4.795 4.795 0 0 1-4.797 4.793zm32.377-21.57a4.795 4.795 0 0 1-4.797-4.794 4.795 4.795 0 0 1 4.797-4.793 4.795 4.795 0 0 1 4.796 4.793 4.795 4.795 0 0 1-4.796 4.794zm-10.792 21.57a4.795 4.795 0 0 1-4.797-4.793 4.795 4.795 0 0 1 4.797-4.794 4.795 4.795 0 0 1 4.796 4.794 4.795 4.795 0 0 1-4.796 4.793zm32.376-21.57a4.795 4.795 0 0 1-4.796-4.794A4.795 4.795 0 0 1-99.812-117a4.795 4.795 0 0 1 4.797 4.793 4.795 4.795 0 0 1-4.797 4.794zm-10.792 21.57a4.795 4.795 0 0 1-4.796-4.793 4.795 4.795 0 0 1 4.796-4.794 4.795 4.795 0 0 1 4.797 4.794 4.795 4.795 0 0 1-4.797 4.793zm32.377-21.57a4.795 4.795 0 0 1-4.797-4.794A4.795 4.795 0 0 1-78.227-117a4.795 4.795 0 0 1 4.797 4.793 4.795 4.795 0 0 1-4.797 4.794zm-10.792 21.57a4.795 4.795 0 0 1-4.797-4.793 4.795 4.795 0 0 1 4.797-4.794 4.795 4.795 0 0 1 4.796 4.794 4.795 4.795 0 0 1-4.796 4.793zm32.377-21.57a4.795 4.795 0 0 1-4.797-4.794A4.795 4.795 0 0 1-56.642-117a4.795 4.795 0 0 1 4.796 4.793 4.795 4.795 0 0 1-4.796 4.794zm-10.793 21.57a4.795 4.795 0 0 1-4.796-4.793 4.795 4.795 0 0 1 4.796-4.794 4.795 4.795 0 0 1 4.797 4.794 4.795 4.795 0 0 1-4.797 4.793zm32.377-21.57a4.795 4.795 0 0 1-4.796-4.794A4.795 4.795 0 0 1-35.058-117a4.795 4.795 0 0 1 4.797 4.793 4.795 4.795 0 0 1-4.797 4.794zm-10.792 21.57a4.795 4.795 0 0 1-4.797-4.793 4.795 4.795 0 0 1 4.797-4.794 4.795 4.795 0 0 1 4.796 4.794 4.795 4.795 0 0 1-4.796 4.793zm32.377-21.57a4.795 4.795 0 0 1-4.797-4.794A4.795 4.795 0 0 1-13.473-117a4.795 4.795 0 0 1 4.796 4.793 4.795 4.795 0 0 1-4.796 4.794zm-10.793 21.57a4.795 4.795 0 0 1-4.796-4.793 4.795 4.795 0 0 1 4.796-4.794 4.795 4.795 0 0 1 4.797 4.794 4.795 4.795 0 0 1-4.797 4.793zm32.377-21.57a4.795 4.795 0 0 1-4.796-4.794A4.795 4.795 0 0 1 8.11-117a4.795 4.795 0 0 1 4.797 4.793 4.795 4.795 0 0 1-4.797 4.794zM-2.68-85.843a4.795 4.795 0 0 1-4.797-4.793A4.795 4.795 0 0 1-2.68-95.43a4.795 4.795 0 0 1 4.797 4.794 4.795 4.795 0 0 1-4.797 4.793zm32.377-21.57a4.795 4.795 0 0 1-4.797-4.794A4.795 4.795 0 0 1 29.696-117a4.795 4.795 0 0 1 4.797 4.793 4.795 4.795 0 0 1-4.797 4.794zm-10.792 21.57a4.795 4.795 0 0 1-4.797-4.793 4.795 4.795 0 0 1 4.797-4.794 4.795 4.795 0 0 1 4.796 4.794 4.795 4.795 0 0 1-4.796 4.793zm32.377-21.57a4.795 4.795 0 0 1-4.797-4.794A4.795 4.795 0 0 1 51.28-117a4.795 4.795 0 0 1 4.796 4.793 4.795 4.795 0 0 1-4.796 4.794zm-10.793 21.57a4.795 4.795 0 0 1-4.796-4.793 4.795 4.795 0 0 1 4.796-4.794 4.795 4.795 0 0 1 4.797 4.794 4.795 4.795 0 0 1-4.797 4.793zm32.377-21.57a4.795 4.795 0 0 1-4.796-4.794A4.795 4.795 0 0 1 72.865-117a4.795 4.795 0 0 1 4.797 4.793 4.795 4.795 0 0 1-4.797 4.794zm-10.792 21.57a4.795 4.795 0 0 1-4.797-4.793 4.795 4.795 0 0 1 4.797-4.794 4.795 4.795 0 0 1 4.796 4.794 4.795 4.795 0 0 1-4.796 4.793zm32.377-21.57a4.795 4.795 0 0 1-4.797-4.794A4.795 4.795 0 0 1 94.45-117a4.795 4.795 0 0 1 4.796 4.793 4.795 4.795 0 0 1-4.796 4.794zm-10.793 21.57a4.795 4.795 0 0 1-4.796-4.793 4.795 4.795 0 0 1 4.796-4.794 4.795 4.795 0 0 1 4.797 4.794 4.795 4.795 0 0 1-4.797 4.793zm32.377-21.57a4.795 4.795 0 0 1-4.796-4.794 4.795 4.795 0 0 1 4.796-4.793 4.795 4.795 0 0 1 4.797 4.793 4.795 4.795 0 0 1-4.797 4.794zm-10.792 21.57a4.795 4.795 0 0 1-4.797-4.793 4.795 4.795 0 0 1 4.797-4.794 4.795 4.795 0 0 1 4.797 4.794 4.795 4.795 0 0 1-4.797 4.793zm32.377-21.57a4.795 4.795 0 0 1-4.797-4.794A4.795 4.795 0 0 1 137.62-117a4.795 4.795 0 0 1 4.796 4.793 4.795 4.795 0 0 1-4.796 4.794zm-10.792 21.57a4.795 4.795 0 0 1-4.797-4.793 4.795 4.795 0 0 1 4.797-4.794 4.795 4.795 0 0 1 4.796 4.794 4.795 4.795 0 0 1-4.796 4.793zm32.376-21.57a4.795 4.795 0 0 1-4.796-4.794 4.795 4.795 0 0 1 4.796-4.793 4.795 4.795 0 0 1 4.797 4.793 4.795 4.795 0 0 1-4.797 4.794zm-10.792 21.57a4.795 4.795 0 0 1-4.796-4.793 4.795 4.795 0 0 1 4.796-4.794 4.795 4.795 0 0 1 4.797 4.794 4.795 4.795 0 0 1-4.797 4.793z" mask="url(#b)"/>
    </g>
</svg>

