<svg xmlns="http://www.w3.org/2000/svg" xmlns:xlink="http://www.w3.org/1999/xlink" width="221" height="269" viewBox="0 0 221 269">
    <defs>
        <path id="a" d="M.285 252.03c72.853-1.85 99.062-24.772 78.627-68.766C48.26 117.274 1.243-.05 146.964 17.214c145.721 17.262 134.929 107.968 275.229 8.354C562.493-74.047 439 147.792 372.87 209.785c-66.13 61.993 43.996 179.634-43 206.423-86.996 26.788-90.677-45.726-198.728-35.208C59.11 388.012 15.49 345.022.285 252.03z"/>
    </defs>
    <g fill="none" fill-rule="evenodd" opacity=".2" transform="matrix(-1 0 0 1 222 -26)">
        <mask id="b" fill="#fff">
            <use xlink:href="#a"/>
        </mask>
        <path fill="#B3ADCA" d="M-50.411 273.43a4.795 4.795 0 0 1-4.797-4.794 4.795 4.795 0 0 1 4.797-4.793 4.795 4.795 0 0 1 4.796 4.793 4.795 4.795 0 0 1-4.796 4.794zm0-43.14a4.795 4.795 0 0 1-4.797-4.794 4.795 4.795 0 0 1 4.797-4.794 4.795 4.795 0 0 1 4.796 4.794 4.795 4.795 0 0 1-4.796 4.793zM-61.203 295A4.795 4.795 0 0 1-66 290.207a4.795 4.795 0 0 1 4.797-4.794 4.795 4.795 0 0 1 4.796 4.794A4.795 4.795 0 0 1-61.203 295zm0-43.14A4.795 4.795 0 0 1-66 247.066a4.795 4.795 0 0 1 4.797-4.793 4.795 4.795 0 0 1 4.796 4.793 4.795 4.795 0 0 1-4.796 4.794zm32.376 21.57a4.795 4.795 0 0 1-4.796-4.794 4.795 4.795 0 0 1 4.796-4.793 4.795 4.795 0 0 1 4.797 4.793 4.795 4.795 0 0 1-4.797 4.794zm0-43.14a4.795 4.795 0 0 1-4.796-4.794 4.795 4.795 0 0 1 4.796-4.794 4.795 4.795 0 0 1 4.797 4.794 4.795 4.795 0 0 1-4.797 4.793zM-39.619 295a4.795 4.795 0 0 1-4.796-4.793 4.795 4.795 0 0 1 4.796-4.794 4.795 4.795 0 0 1 4.797 4.794A4.795 4.795 0 0 1-39.62 295zm0-43.14a4.795 4.795 0 0 1-4.796-4.794 4.795 4.795 0 0 1 4.796-4.793 4.795 4.795 0 0 1 4.797 4.793 4.795 4.795 0 0 1-4.797 4.794zm32.377 21.57a4.795 4.795 0 0 1-4.797-4.794 4.795 4.795 0 0 1 4.797-4.793 4.795 4.795 0 0 1 4.797 4.793 4.795 4.795 0 0 1-4.797 4.794zm0-43.14a4.795 4.795 0 0 1-4.797-4.794 4.795 4.795 0 0 1 4.797-4.794 4.795 4.795 0 0 1 4.797 4.794 4.795 4.795 0 0 1-4.797 4.793zM-18.034 295a4.795 4.795 0 0 1-4.797-4.793 4.795 4.795 0 0 1 4.797-4.794 4.795 4.795 0 0 1 4.796 4.794A4.795 4.795 0 0 1-18.034 295zm0-43.14a4.795 4.795 0 0 1-4.797-4.794 4.795 4.795 0 0 1 4.797-4.793 4.795 4.795 0 0 1 4.796 4.793 4.795 4.795 0 0 1-4.796 4.794zm32.377 21.57a4.795 4.795 0 0 1-4.797-4.794 4.795 4.795 0 0 1 4.797-4.793 4.795 4.795 0 0 1 4.796 4.793 4.795 4.795 0 0 1-4.796 4.794zm0-43.14a4.795 4.795 0 0 1-4.797-4.794 4.795 4.795 0 0 1 4.797-4.794 4.795 4.795 0 0 1 4.796 4.794 4.795 4.795 0 0 1-4.796 4.793zM3.55 295a4.795 4.795 0 0 1-4.796-4.793 4.795 4.795 0 0 1 4.796-4.794 4.795 4.795 0 0 1 4.797 4.794A4.795 4.795 0 0 1 3.55 295zm0-43.14a4.795 4.795 0 0 1-4.796-4.794 4.795 4.795 0 0 1 4.796-4.793 4.795 4.795 0 0 1 4.797 4.793 4.795 4.795 0 0 1-4.797 4.794zm32.377 21.57a4.795 4.795 0 0 1-4.796-4.794 4.795 4.795 0 0 1 4.796-4.793 4.795 4.795 0 0 1 4.797 4.793 4.795 4.795 0 0 1-4.797 4.794zm0-43.14a4.795 4.795 0 0 1-4.796-4.794 4.795 4.795 0 0 1 4.796-4.794 4.795 4.795 0 0 1 4.797 4.794 4.795 4.795 0 0 1-4.797 4.793zM25.135 295a4.795 4.795 0 0 1-4.797-4.793 4.795 4.795 0 0 1 4.797-4.794 4.795 4.795 0 0 1 4.796 4.794A4.795 4.795 0 0 1 25.135 295zm0-43.14a4.795 4.795 0 0 1-4.797-4.794 4.795 4.795 0 0 1 4.797-4.793 4.795 4.795 0 0 1 4.796 4.793 4.795 4.795 0 0 1-4.796 4.794zm32.377 21.57a4.795 4.795 0 0 1-4.797-4.794 4.795 4.795 0 0 1 4.797-4.793 4.795 4.795 0 0 1 4.796 4.793 4.795 4.795 0 0 1-4.796 4.794zm0-43.14a4.795 4.795 0 0 1-4.797-4.794 4.795 4.795 0 0 1 4.797-4.794 4.795 4.795 0 0 1 4.796 4.794 4.795 4.795 0 0 1-4.796 4.793zM46.719 295a4.795 4.795 0 0 1-4.796-4.793 4.795 4.795 0 0 1 4.796-4.794 4.795 4.795 0 0 1 4.797 4.794A4.795 4.795 0 0 1 46.72 295zm0-43.14a4.795 4.795 0 0 1-4.796-4.794 4.795 4.795 0 0 1 4.796-4.793 4.795 4.795 0 0 1 4.797 4.793 4.795 4.795 0 0 1-4.797 4.794zm32.377 21.57a4.795 4.795 0 0 1-4.796-4.794 4.795 4.795 0 0 1 4.796-4.793 4.795 4.795 0 0 1 4.797 4.793 4.795 4.795 0 0 1-4.797 4.794zm0-43.14a4.795 4.795 0 0 1-4.796-4.794 4.795 4.795 0 0 1 4.796-4.794 4.795 4.795 0 0 1 4.797 4.794 4.795 4.795 0 0 1-4.797 4.793zM68.304 295a4.795 4.795 0 0 1-4.797-4.793 4.795 4.795 0 0 1 4.797-4.794 4.795 4.795 0 0 1 4.797 4.794A4.795 4.795 0 0 1 68.304 295zm0-43.14a4.795 4.795 0 0 1-4.797-4.794 4.795 4.795 0 0 1 4.797-4.793 4.795 4.795 0 0 1 4.797 4.793 4.795 4.795 0 0 1-4.797 4.794zm32.377 21.57a4.795 4.795 0 0 1-4.797-4.794 4.795 4.795 0 0 1 4.797-4.793 4.795 4.795 0 0 1 4.797 4.793 4.795 4.795 0 0 1-4.797 4.794zm0-43.14a4.795 4.795 0 0 1-4.797-4.794 4.795 4.795 0 0 1 4.797-4.794 4.795 4.795 0 0 1 4.797 4.794 4.795 4.795 0 0 1-4.797 4.793zM89.889 295a4.795 4.795 0 0 1-4.797-4.793 4.795 4.795 0 0 1 4.797-4.794 4.795 4.795 0 0 1 4.796 4.794A4.795 4.795 0 0 1 89.89 295zm0-43.14a4.795 4.795 0 0 1-4.797-4.794 4.795 4.795 0 0 1 4.797-4.793 4.795 4.795 0 0 1 4.796 4.793 4.795 4.795 0 0 1-4.796 4.794zm32.377 21.57a4.795 4.795 0 0 1-4.797-4.794 4.795 4.795 0 0 1 4.797-4.793 4.795 4.795 0 0 1 4.796 4.793 4.795 4.795 0 0 1-4.796 4.794zm0-43.14a4.795 4.795 0 0 1-4.797-4.794 4.795 4.795 0 0 1 4.797-4.794 4.795 4.795 0 0 1 4.796 4.794 4.795 4.795 0 0 1-4.796 4.793zM111.473 295a4.795 4.795 0 0 1-4.796-4.793 4.795 4.795 0 0 1 4.796-4.794 4.795 4.795 0 0 1 4.797 4.794 4.795 4.795 0 0 1-4.797 4.793zm0-43.14a4.795 4.795 0 0 1-4.796-4.794 4.795 4.795 0 0 1 4.796-4.793 4.795 4.795 0 0 1 4.797 4.793 4.795 4.795 0 0 1-4.797 4.794zm32.377 21.57a4.795 4.795 0 0 1-4.796-4.794 4.795 4.795 0 0 1 4.796-4.793 4.795 4.795 0 0 1 4.797 4.793 4.795 4.795 0 0 1-4.797 4.794zm0-43.14a4.795 4.795 0 0 1-4.796-4.794 4.795 4.795 0 0 1 4.796-4.794 4.795 4.795 0 0 1 4.797 4.794 4.795 4.795 0 0 1-4.797 4.793zM133.058 295a4.795 4.795 0 0 1-4.797-4.793 4.795 4.795 0 0 1 4.797-4.794 4.795 4.795 0 0 1 4.796 4.794 4.795 4.795 0 0 1-4.796 4.793zm0-43.14a4.795 4.795 0 0 1-4.797-4.794 4.795 4.795 0 0 1 4.797-4.793 4.795 4.795 0 0 1 4.796 4.793 4.795 4.795 0 0 1-4.796 4.794zm32.377 21.57a4.795 4.795 0 0 1-4.797-4.794 4.795 4.795 0 0 1 4.797-4.793 4.795 4.795 0 0 1 4.796 4.793 4.795 4.795 0 0 1-4.796 4.794zm0-43.14a4.795 4.795 0 0 1-4.797-4.794 4.795 4.795 0 0 1 4.797-4.794 4.795 4.795 0 0 1 4.796 4.794 4.795 4.795 0 0 1-4.796 4.793zM154.642 295a4.795 4.795 0 0 1-4.796-4.793 4.795 4.795 0 0 1 4.796-4.794 4.795 4.795 0 0 1 4.797 4.794 4.795 4.795 0 0 1-4.797 4.793zm0-43.14a4.795 4.795 0 0 1-4.796-4.794 4.795 4.795 0 0 1 4.796-4.793 4.795 4.795 0 0 1 4.797 4.793 4.795 4.795 0 0 1-4.797 4.794zm32.377 21.57a4.795 4.795 0 0 1-4.796-4.794 4.795 4.795 0 0 1 4.796-4.793 4.795 4.795 0 0 1 4.797 4.793 4.795 4.795 0 0 1-4.797 4.794zm0-43.14a4.795 4.795 0 0 1-4.796-4.794 4.795 4.795 0 0 1 4.796-4.794 4.795 4.795 0 0 1 4.797 4.794 4.795 4.795 0 0 1-4.797 4.793zM176.227 295a4.795 4.795 0 0 1-4.797-4.793 4.795 4.795 0 0 1 4.797-4.794 4.795 4.795 0 0 1 4.797 4.794 4.795 4.795 0 0 1-4.797 4.793zm0-43.14a4.795 4.795 0 0 1-4.797-4.794 4.795 4.795 0 0 1 4.797-4.793 4.795 4.795 0 0 1 4.797 4.793 4.795 4.795 0 0 1-4.797 4.794zm32.377 21.57a4.795 4.795 0 0 1-4.797-4.794 4.795 4.795 0 0 1 4.797-4.793 4.795 4.795 0 0 1 4.796 4.793 4.795 4.795 0 0 1-4.796 4.794zm0-43.14a4.795 4.795 0 0 1-4.797-4.794 4.795 4.795 0 0 1 4.797-4.794 4.795 4.795 0 0 1 4.796 4.794 4.795 4.795 0 0 1-4.796 4.793zM197.812 295a4.795 4.795 0 0 1-4.797-4.793 4.795 4.795 0 0 1 4.797-4.794 4.795 4.795 0 0 1 4.796 4.794 4.795 4.795 0 0 1-4.796 4.793zm0-43.14a4.795 4.795 0 0 1-4.797-4.794 4.795 4.795 0 0 1 4.797-4.793 4.795 4.795 0 0 1 4.796 4.793 4.795 4.795 0 0 1-4.796 4.794zm32.376 21.57a4.795 4.795 0 0 1-4.796-4.794 4.795 4.795 0 0 1 4.796-4.793 4.795 4.795 0 0 1 4.797 4.793 4.795 4.795 0 0 1-4.797 4.794zm0-43.14a4.795 4.795 0 0 1-4.796-4.794 4.795 4.795 0 0 1 4.796-4.794 4.795 4.795 0 0 1 4.797 4.794 4.795 4.795 0 0 1-4.797 4.793zM219.396 295a4.795 4.795 0 0 1-4.796-4.793 4.795 4.795 0 0 1 4.796-4.794 4.795 4.795 0 0 1 4.797 4.794 4.795 4.795 0 0 1-4.797 4.793zm0-43.14a4.795 4.795 0 0 1-4.796-4.794 4.795 4.795 0 0 1 4.796-4.793 4.795 4.795 0 0 1 4.797 4.793 4.795 4.795 0 0 1-4.797 4.794zm32.377 21.57a4.795 4.795 0 0 1-4.797-4.794 4.795 4.795 0 0 1 4.797-4.793 4.795 4.795 0 0 1 4.797 4.793 4.795 4.795 0 0 1-4.797 4.794zm0-43.14a4.795 4.795 0 0 1-4.797-4.794 4.795 4.795 0 0 1 4.797-4.794 4.795 4.795 0 0 1 4.797 4.794 4.795 4.795 0 0 1-4.797 4.793zM240.981 295a4.795 4.795 0 0 1-4.797-4.793 4.795 4.795 0 0 1 4.797-4.794 4.795 4.795 0 0 1 4.796 4.794 4.795 4.795 0 0 1-4.796 4.793zm0-43.14a4.795 4.795 0 0 1-4.797-4.794 4.795 4.795 0 0 1 4.797-4.793 4.795 4.795 0 0 1 4.796 4.793 4.795 4.795 0 0 1-4.796 4.794zm32.377 21.57a4.795 4.795 0 0 1-4.797-4.794 4.795 4.795 0 0 1 4.797-4.793 4.795 4.795 0 0 1 4.796 4.793 4.795 4.795 0 0 1-4.796 4.794zm0-43.14a4.795 4.795 0 0 1-4.797-4.794 4.795 4.795 0 0 1 4.797-4.794 4.795 4.795 0 0 1 4.796 4.794 4.795 4.795 0 0 1-4.796 4.793zM262.565 295a4.795 4.795 0 0 1-4.796-4.793 4.795 4.795 0 0 1 4.796-4.794 4.795 4.795 0 0 1 4.797 4.794 4.795 4.795 0 0 1-4.797 4.793zm0-43.14a4.795 4.795 0 0 1-4.796-4.794 4.795 4.795 0 0 1 4.796-4.793 4.795 4.795 0 0 1 4.797 4.793 4.795 4.795 0 0 1-4.797 4.794zm32.377 21.57a4.795 4.795 0 0 1-4.796-4.794 4.795 4.795 0 0 1 4.796-4.793 4.795 4.795 0 0 1 4.797 4.793 4.795 4.795 0 0 1-4.797 4.794zm0-43.14a4.795 4.795 0 0 1-4.796-4.794 4.795 4.795 0 0 1 4.796-4.794 4.795 4.795 0 0 1 4.797 4.794 4.795 4.795 0 0 1-4.797 4.793zM284.15 295a4.795 4.795 0 0 1-4.797-4.793 4.795 4.795 0 0 1 4.797-4.794 4.795 4.795 0 0 1 4.796 4.794A4.795 4.795 0 0 1 284.15 295zm0-43.14a4.795 4.795 0 0 1-4.797-4.794 4.795 4.795 0 0 1 4.797-4.793 4.795 4.795 0 0 1 4.796 4.793 4.795 4.795 0 0 1-4.796 4.794zm32.377 21.57a4.795 4.795 0 0 1-4.797-4.794 4.795 4.795 0 0 1 4.797-4.793 4.795 4.795 0 0 1 4.796 4.793 4.795 4.795 0 0 1-4.796 4.794zm0-43.14a4.795 4.795 0 0 1-4.797-4.794 4.795 4.795 0 0 1 4.797-4.794 4.795 4.795 0 0 1 4.796 4.794 4.795 4.795 0 0 1-4.796 4.793zM305.734 295a4.795 4.795 0 0 1-4.796-4.793 4.795 4.795 0 0 1 4.796-4.794 4.795 4.795 0 0 1 4.797 4.794 4.795 4.795 0 0 1-4.797 4.793zm0-43.14a4.795 4.795 0 0 1-4.796-4.794 4.795 4.795 0 0 1 4.796-4.793 4.795 4.795 0 0 1 4.797 4.793 4.795 4.795 0 0 1-4.797 4.794zm32.377 21.57a4.795 4.795 0 0 1-4.796-4.794 4.795 4.795 0 0 1 4.796-4.793 4.795 4.795 0 0 1 4.797 4.793 4.795 4.795 0 0 1-4.797 4.794zm0-43.14a4.795 4.795 0 0 1-4.796-4.794 4.795 4.795 0 0 1 4.796-4.794 4.795 4.795 0 0 1 4.797 4.794 4.795 4.795 0 0 1-4.797 4.793zM327.32 295a4.795 4.795 0 0 1-4.797-4.793 4.795 4.795 0 0 1 4.797-4.794 4.795 4.795 0 0 1 4.797 4.794 4.795 4.795 0 0 1-4.797 4.793zm0-43.14a4.795 4.795 0 0 1-4.797-4.794 4.795 4.795 0 0 1 4.797-4.793 4.795 4.795 0 0 1 4.797 4.793 4.795 4.795 0 0 1-4.797 4.794zm32.377 21.57a4.795 4.795 0 0 1-4.797-4.794 4.795 4.795 0 0 1 4.797-4.793 4.795 4.795 0 0 1 4.797 4.793 4.795 4.795 0 0 1-4.797 4.794zm0-43.14a4.795 4.795 0 0 1-4.797-4.794 4.795 4.795 0 0 1 4.797-4.794 4.795 4.795 0 0 1 4.797 4.794 4.795 4.795 0 0 1-4.797 4.793zM348.904 295a4.795 4.795 0 0 1-4.797-4.793 4.795 4.795 0 0 1 4.797-4.794 4.795 4.795 0 0 1 4.796 4.794 4.795 4.795 0 0 1-4.796 4.793zm0-43.14a4.795 4.795 0 0 1-4.797-4.794 4.795 4.795 0 0 1 4.797-4.793 4.795 4.795 0 0 1 4.796 4.793 4.795 4.795 0 0 1-4.796 4.794zm32.377 21.57a4.795 4.795 0 0 1-4.797-4.794 4.795 4.795 0 0 1 4.797-4.793 4.795 4.795 0 0 1 4.796 4.793 4.795 4.795 0 0 1-4.796 4.794zm0-43.14a4.795 4.795 0 0 1-4.797-4.794 4.795 4.795 0 0 1 4.797-4.794 4.795 4.795 0 0 1 4.796 4.794 4.795 4.795 0 0 1-4.796 4.793zM370.488 295a4.795 4.795 0 0 1-4.796-4.793 4.795 4.795 0 0 1 4.796-4.794 4.795 4.795 0 0 1 4.797 4.794 4.795 4.795 0 0 1-4.797 4.793zm0-43.14a4.795 4.795 0 0 1-4.796-4.794 4.795 4.795 0 0 1 4.796-4.793 4.795 4.795 0 0 1 4.797 4.793 4.795 4.795 0 0 1-4.797 4.794zm32.377 21.57a4.795 4.795 0 0 1-4.796-4.794 4.795 4.795 0 0 1 4.796-4.793 4.795 4.795 0 0 1 4.797 4.793 4.795 4.795 0 0 1-4.797 4.794zm0-43.14a4.795 4.795 0 0 1-4.796-4.794 4.795 4.795 0 0 1 4.796-4.794 4.795 4.795 0 0 1 4.797 4.794 4.795 4.795 0 0 1-4.797 4.793zM392.073 295a4.795 4.795 0 0 1-4.797-4.793 4.795 4.795 0 0 1 4.797-4.794 4.795 4.795 0 0 1 4.796 4.794 4.795 4.795 0 0 1-4.796 4.793zm0-43.14a4.795 4.795 0 0 1-4.797-4.794 4.795 4.795 0 0 1 4.797-4.793 4.795 4.795 0 0 1 4.796 4.793 4.795 4.795 0 0 1-4.796 4.794zm32.377 21.57a4.795 4.795 0 0 1-4.797-4.794 4.795 4.795 0 0 1 4.797-4.793 4.795 4.795 0 0 1 4.796 4.793 4.795 4.795 0 0 1-4.796 4.794zm0-43.14a4.795 4.795 0 0 1-4.797-4.794 4.795 4.795 0 0 1 4.797-4.794 4.795 4.795 0 0 1 4.796 4.794 4.795 4.795 0 0 1-4.796 4.793zM413.657 295a4.795 4.795 0 0 1-4.796-4.793 4.795 4.795 0 0 1 4.796-4.794 4.795 4.795 0 0 1 4.797 4.794 4.795 4.795 0 0 1-4.797 4.793zm0-43.14a4.795 4.795 0 0 1-4.796-4.794 4.795 4.795 0 0 1 4.796-4.793 4.795 4.795 0 0 1 4.797 4.793 4.795 4.795 0 0 1-4.797 4.794zm32.377 21.57a4.795 4.795 0 0 1-4.796-4.794 4.795 4.795 0 0 1 4.796-4.793 4.795 4.795 0 0 1 4.797 4.793 4.795 4.795 0 0 1-4.797 4.794zm0-43.14a4.795 4.795 0 0 1-4.796-4.794 4.795 4.795 0 0 1 4.796-4.794 4.795 4.795 0 0 1 4.797 4.794 4.795 4.795 0 0 1-4.797 4.793zM435.242 295a4.795 4.795 0 0 1-4.797-4.793 4.795 4.795 0 0 1 4.797-4.794 4.795 4.795 0 0 1 4.797 4.794 4.795 4.795 0 0 1-4.797 4.793zm0-43.14a4.795 4.795 0 0 1-4.797-4.794 4.795 4.795 0 0 1 4.797-4.793 4.795 4.795 0 0 1 4.797 4.793 4.795 4.795 0 0 1-4.797 4.794zm32.377 21.57a4.795 4.795 0 0 1-4.797-4.794 4.795 4.795 0 0 1 4.797-4.793 4.795 4.795 0 0 1 4.796 4.793 4.795 4.795 0 0 1-4.796 4.794zm0-43.14a4.795 4.795 0 0 1-4.797-4.794 4.795 4.795 0 0 1 4.797-4.794 4.795 4.795 0 0 1 4.796 4.794 4.795 4.795 0 0 1-4.796 4.793zM456.827 295a4.795 4.795 0 0 1-4.797-4.793 4.795 4.795 0 0 1 4.797-4.794 4.795 4.795 0 0 1 4.796 4.794 4.795 4.795 0 0 1-4.796 4.793zm0-43.14a4.795 4.795 0 0 1-4.797-4.794 4.795 4.795 0 0 1 4.797-4.793 4.795 4.795 0 0 1 4.796 4.793 4.795 4.795 0 0 1-4.796 4.794zm32.376 21.57a4.795 4.795 0 0 1-4.796-4.794 4.795 4.795 0 0 1 4.796-4.793 4.795 4.795 0 0 1 4.797 4.793 4.795 4.795 0 0 1-4.797 4.794zm0-43.14a4.795 4.795 0 0 1-4.796-4.794 4.795 4.795 0 0 1 4.796-4.794 4.795 4.795 0 0 1 4.797 4.794 4.795 4.795 0 0 1-4.797 4.793zM478.411 295a4.795 4.795 0 0 1-4.796-4.793 4.795 4.795 0 0 1 4.796-4.794 4.795 4.795 0 0 1 4.797 4.794A4.795 4.795 0 0 1 478.41 295zm0-43.14a4.795 4.795 0 0 1-4.796-4.794 4.795 4.795 0 0 1 4.796-4.793 4.795 4.795 0 0 1 4.797 4.793 4.795 4.795 0 0 1-4.797 4.794zM-50.41 187.149a4.795 4.795 0 0 1-4.797-4.794 4.795 4.795 0 0 1 4.797-4.793 4.795 4.795 0 0 1 4.796 4.793 4.795 4.795 0 0 1-4.796 4.794zm-10.792 21.57A4.795 4.795 0 0 1-66 203.926a4.795 4.795 0 0 1 4.797-4.794 4.795 4.795 0 0 1 4.796 4.794 4.795 4.795 0 0 1-4.796 4.793zm32.376-21.57a4.795 4.795 0 0 1-4.796-4.794 4.795 4.795 0 0 1 4.796-4.793 4.795 4.795 0 0 1 4.797 4.793 4.795 4.795 0 0 1-4.797 4.794zm-10.792 21.57a4.795 4.795 0 0 1-4.796-4.793 4.795 4.795 0 0 1 4.796-4.794 4.795 4.795 0 0 1 4.797 4.794 4.795 4.795 0 0 1-4.797 4.793zm32.377-21.57a4.795 4.795 0 0 1-4.797-4.794 4.795 4.795 0 0 1 4.797-4.793 4.795 4.795 0 0 1 4.797 4.793 4.795 4.795 0 0 1-4.797 4.794zm-10.792 21.57a4.795 4.795 0 0 1-4.797-4.793 4.795 4.795 0 0 1 4.797-4.794 4.795 4.795 0 0 1 4.796 4.794 4.795 4.795 0 0 1-4.796 4.793zm32.377-21.57a4.795 4.795 0 0 1-4.797-4.794 4.795 4.795 0 0 1 4.797-4.793 4.795 4.795 0 0 1 4.796 4.793 4.795 4.795 0 0 1-4.796 4.794zM3.55 208.719a4.795 4.795 0 0 1-4.796-4.793 4.795 4.795 0 0 1 4.796-4.794 4.795 4.795 0 0 1 4.797 4.794 4.795 4.795 0 0 1-4.797 4.793zm32.377-21.57a4.795 4.795 0 0 1-4.796-4.794 4.795 4.795 0 0 1 4.796-4.793 4.795 4.795 0 0 1 4.797 4.793 4.795 4.795 0 0 1-4.797 4.794zm-10.792 21.57a4.795 4.795 0 0 1-4.797-4.793 4.795 4.795 0 0 1 4.797-4.794 4.795 4.795 0 0 1 4.796 4.794 4.795 4.795 0 0 1-4.796 4.793zm32.377-21.57a4.795 4.795 0 0 1-4.797-4.794 4.795 4.795 0 0 1 4.797-4.793 4.795 4.795 0 0 1 4.796 4.793 4.795 4.795 0 0 1-4.796 4.794zm-10.793 21.57a4.795 4.795 0 0 1-4.796-4.793 4.795 4.795 0 0 1 4.796-4.794 4.795 4.795 0 0 1 4.797 4.794 4.795 4.795 0 0 1-4.797 4.793zm32.377-21.57a4.795 4.795 0 0 1-4.796-4.794 4.795 4.795 0 0 1 4.796-4.793 4.795 4.795 0 0 1 4.797 4.793 4.795 4.795 0 0 1-4.797 4.794zm-10.792 21.57a4.795 4.795 0 0 1-4.797-4.793 4.795 4.795 0 0 1 4.797-4.794 4.795 4.795 0 0 1 4.797 4.794 4.795 4.795 0 0 1-4.797 4.793zm32.377-21.57a4.795 4.795 0 0 1-4.797-4.794 4.795 4.795 0 0 1 4.797-4.793 4.795 4.795 0 0 1 4.797 4.793 4.795 4.795 0 0 1-4.797 4.794zm-10.792 21.57a4.795 4.795 0 0 1-4.797-4.793 4.795 4.795 0 0 1 4.797-4.794 4.795 4.795 0 0 1 4.796 4.794 4.795 4.795 0 0 1-4.796 4.793zm32.377-21.57a4.795 4.795 0 0 1-4.797-4.794 4.795 4.795 0 0 1 4.797-4.793 4.795 4.795 0 0 1 4.796 4.793 4.795 4.795 0 0 1-4.796 4.794zm-10.793 21.57a4.795 4.795 0 0 1-4.796-4.793 4.795 4.795 0 0 1 4.796-4.794 4.795 4.795 0 0 1 4.797 4.794 4.795 4.795 0 0 1-4.797 4.793zm32.377-21.57a4.795 4.795 0 0 1-4.796-4.794 4.795 4.795 0 0 1 4.796-4.793 4.795 4.795 0 0 1 4.797 4.793 4.795 4.795 0 0 1-4.797 4.794zm-10.792 21.57a4.795 4.795 0 0 1-4.797-4.793 4.795 4.795 0 0 1 4.797-4.794 4.795 4.795 0 0 1 4.796 4.794 4.795 4.795 0 0 1-4.796 4.793zm32.377-21.57a4.795 4.795 0 0 1-4.797-4.794 4.795 4.795 0 0 1 4.797-4.793 4.795 4.795 0 0 1 4.796 4.793 4.795 4.795 0 0 1-4.796 4.794zm-10.793 21.57a4.795 4.795 0 0 1-4.796-4.793 4.795 4.795 0 0 1 4.796-4.794 4.795 4.795 0 0 1 4.797 4.794 4.795 4.795 0 0 1-4.797 4.793zm32.377-21.57a4.795 4.795 0 0 1-4.796-4.794 4.795 4.795 0 0 1 4.796-4.793 4.795 4.795 0 0 1 4.797 4.793 4.795 4.795 0 0 1-4.797 4.794zm-10.792 21.57a4.795 4.795 0 0 1-4.797-4.793 4.795 4.795 0 0 1 4.797-4.794 4.795 4.795 0 0 1 4.797 4.794 4.795 4.795 0 0 1-4.797 4.793zm32.377-21.57a4.795 4.795 0 0 1-4.797-4.794 4.795 4.795 0 0 1 4.797-4.793 4.795 4.795 0 0 1 4.796 4.793 4.795 4.795 0 0 1-4.796 4.794zm-10.792 21.57a4.795 4.795 0 0 1-4.797-4.793 4.795 4.795 0 0 1 4.797-4.794 4.795 4.795 0 0 1 4.796 4.794 4.795 4.795 0 0 1-4.796 4.793zm32.376-21.57a4.795 4.795 0 0 1-4.796-4.794 4.795 4.795 0 0 1 4.796-4.793 4.795 4.795 0 0 1 4.797 4.793 4.795 4.795 0 0 1-4.797 4.794zm-10.792 21.57a4.795 4.795 0 0 1-4.796-4.793 4.795 4.795 0 0 1 4.796-4.794 4.795 4.795 0 0 1 4.797 4.794 4.795 4.795 0 0 1-4.797 4.793zm32.377-21.57a4.795 4.795 0 0 1-4.797-4.794 4.795 4.795 0 0 1 4.797-4.793 4.795 4.795 0 0 1 4.797 4.793 4.795 4.795 0 0 1-4.797 4.794zm-10.792 21.57a4.795 4.795 0 0 1-4.797-4.793 4.795 4.795 0 0 1 4.797-4.794 4.795 4.795 0 0 1 4.796 4.794 4.795 4.795 0 0 1-4.796 4.793zm32.377-21.57a4.795 4.795 0 0 1-4.797-4.794 4.795 4.795 0 0 1 4.797-4.793 4.795 4.795 0 0 1 4.796 4.793 4.795 4.795 0 0 1-4.796 4.794zm-10.793 21.57a4.795 4.795 0 0 1-4.796-4.793 4.795 4.795 0 0 1 4.796-4.794 4.795 4.795 0 0 1 4.797 4.794 4.795 4.795 0 0 1-4.797 4.793zm32.377-21.57a4.795 4.795 0 0 1-4.796-4.794 4.795 4.795 0 0 1 4.796-4.793 4.795 4.795 0 0 1 4.797 4.793 4.795 4.795 0 0 1-4.797 4.794zm-10.792 21.57a4.795 4.795 0 0 1-4.797-4.793 4.795 4.795 0 0 1 4.797-4.794 4.795 4.795 0 0 1 4.796 4.794 4.795 4.795 0 0 1-4.796 4.793zm32.377-21.57a4.795 4.795 0 0 1-4.797-4.794 4.795 4.795 0 0 1 4.797-4.793 4.795 4.795 0 0 1 4.796 4.793 4.795 4.795 0 0 1-4.796 4.794zm-10.793 21.57a4.795 4.795 0 0 1-4.796-4.793 4.795 4.795 0 0 1 4.796-4.794 4.795 4.795 0 0 1 4.797 4.794 4.795 4.795 0 0 1-4.797 4.793zm32.377-21.57a4.795 4.795 0 0 1-4.796-4.794 4.795 4.795 0 0 1 4.796-4.793 4.795 4.795 0 0 1 4.797 4.793 4.795 4.795 0 0 1-4.797 4.794zm-10.792 21.57a4.795 4.795 0 0 1-4.797-4.793 4.795 4.795 0 0 1 4.797-4.794 4.795 4.795 0 0 1 4.797 4.794 4.795 4.795 0 0 1-4.797 4.793zm32.377-21.57a4.795 4.795 0 0 1-4.797-4.794 4.795 4.795 0 0 1 4.797-4.793 4.795 4.795 0 0 1 4.797 4.793 4.795 4.795 0 0 1-4.797 4.794zm-10.792 21.57a4.795 4.795 0 0 1-4.797-4.793 4.795 4.795 0 0 1 4.797-4.794 4.795 4.795 0 0 1 4.796 4.794 4.795 4.795 0 0 1-4.796 4.793zm32.377-21.57a4.795 4.795 0 0 1-4.797-4.794 4.795 4.795 0 0 1 4.797-4.793 4.795 4.795 0 0 1 4.796 4.793 4.795 4.795 0 0 1-4.796 4.794zm-10.793 21.57a4.795 4.795 0 0 1-4.796-4.793 4.795 4.795 0 0 1 4.796-4.794 4.795 4.795 0 0 1 4.797 4.794 4.795 4.795 0 0 1-4.797 4.793zm32.377-21.57a4.795 4.795 0 0 1-4.796-4.794 4.795 4.795 0 0 1 4.796-4.793 4.795 4.795 0 0 1 4.797 4.793 4.795 4.795 0 0 1-4.797 4.794zm-10.792 21.57a4.795 4.795 0 0 1-4.797-4.793 4.795 4.795 0 0 1 4.797-4.794 4.795 4.795 0 0 1 4.796 4.794 4.795 4.795 0 0 1-4.796 4.793zm32.377-21.57a4.795 4.795 0 0 1-4.797-4.794 4.795 4.795 0 0 1 4.797-4.793 4.795 4.795 0 0 1 4.796 4.793 4.795 4.795 0 0 1-4.796 4.794zm-10.793 21.57a4.795 4.795 0 0 1-4.796-4.793 4.795 4.795 0 0 1 4.796-4.794 4.795 4.795 0 0 1 4.797 4.794 4.795 4.795 0 0 1-4.797 4.793zm32.377-21.57a4.795 4.795 0 0 1-4.796-4.794 4.795 4.795 0 0 1 4.796-4.793 4.795 4.795 0 0 1 4.797 4.793 4.795 4.795 0 0 1-4.797 4.794zm-10.792 21.57a4.795 4.795 0 0 1-4.797-4.793 4.795 4.795 0 0 1 4.797-4.794 4.795 4.795 0 0 1 4.797 4.794 4.795 4.795 0 0 1-4.797 4.793zm32.377-21.57a4.795 4.795 0 0 1-4.797-4.794 4.795 4.795 0 0 1 4.797-4.793 4.795 4.795 0 0 1 4.796 4.793 4.795 4.795 0 0 1-4.796 4.794zm-10.792 21.57a4.795 4.795 0 0 1-4.797-4.793 4.795 4.795 0 0 1 4.797-4.794 4.795 4.795 0 0 1 4.796 4.794 4.795 4.795 0 0 1-4.796 4.793zm32.376-21.57a4.795 4.795 0 0 1-4.796-4.794 4.795 4.795 0 0 1 4.796-4.793 4.795 4.795 0 0 1 4.797 4.793 4.795 4.795 0 0 1-4.797 4.794zm-10.792 21.57a4.795 4.795 0 0 1-4.796-4.793 4.795 4.795 0 0 1 4.796-4.794 4.795 4.795 0 0 1 4.797 4.794 4.795 4.795 0 0 1-4.797 4.793zm-528.822-64.71a4.795 4.795 0 0 1-4.797-4.794 4.795 4.795 0 0 1 4.797-4.794 4.795 4.795 0 0 1 4.796 4.794 4.795 4.795 0 0 1-4.796 4.793zm-10.792 21.57A4.795 4.795 0 0 1-66 160.785a4.795 4.795 0 0 1 4.797-4.793 4.795 4.795 0 0 1 4.796 4.793 4.795 4.795 0 0 1-4.796 4.794zm32.376-21.57a4.795 4.795 0 0 1-4.796-4.794 4.795 4.795 0 0 1 4.796-4.794 4.795 4.795 0 0 1 4.797 4.794 4.795 4.795 0 0 1-4.797 4.793zm-10.792 21.57a4.795 4.795 0 0 1-4.796-4.794 4.795 4.795 0 0 1 4.796-4.793 4.795 4.795 0 0 1 4.797 4.793 4.795 4.795 0 0 1-4.797 4.794zm32.377-21.57a4.795 4.795 0 0 1-4.797-4.794 4.795 4.795 0 0 1 4.797-4.794 4.795 4.795 0 0 1 4.797 4.794 4.795 4.795 0 0 1-4.797 4.793zm-10.792 21.57a4.795 4.795 0 0 1-4.797-4.794 4.795 4.795 0 0 1 4.797-4.793 4.795 4.795 0 0 1 4.796 4.793 4.795 4.795 0 0 1-4.796 4.794zm32.377-21.57a4.795 4.795 0 0 1-4.797-4.794 4.795 4.795 0 0 1 4.797-4.794 4.795 4.795 0 0 1 4.796 4.794 4.795 4.795 0 0 1-4.796 4.793zM3.55 165.578a4.795 4.795 0 0 1-4.796-4.794 4.795 4.795 0 0 1 4.796-4.793 4.795 4.795 0 0 1 4.797 4.793 4.795 4.795 0 0 1-4.797 4.794zm32.377-21.57a4.795 4.795 0 0 1-4.796-4.794 4.795 4.795 0 0 1 4.796-4.794 4.795 4.795 0 0 1 4.797 4.794 4.795 4.795 0 0 1-4.797 4.793zm-10.792 21.57a4.795 4.795 0 0 1-4.797-4.794 4.795 4.795 0 0 1 4.797-4.793 4.795 4.795 0 0 1 4.796 4.793 4.795 4.795 0 0 1-4.796 4.794zm32.377-21.57a4.795 4.795 0 0 1-4.797-4.794 4.795 4.795 0 0 1 4.797-4.794 4.795 4.795 0 0 1 4.796 4.794 4.795 4.795 0 0 1-4.796 4.793zm-10.793 21.57a4.795 4.795 0 0 1-4.796-4.794 4.795 4.795 0 0 1 4.796-4.793 4.795 4.795 0 0 1 4.797 4.793 4.795 4.795 0 0 1-4.797 4.794zm32.377-21.57a4.795 4.795 0 0 1-4.796-4.794 4.795 4.795 0 0 1 4.796-4.794 4.795 4.795 0 0 1 4.797 4.794 4.795 4.795 0 0 1-4.797 4.793zm-10.792 21.57a4.795 4.795 0 0 1-4.797-4.794 4.795 4.795 0 0 1 4.797-4.793 4.795 4.795 0 0 1 4.797 4.793 4.795 4.795 0 0 1-4.797 4.794zm32.377-21.57a4.795 4.795 0 0 1-4.797-4.794 4.795 4.795 0 0 1 4.797-4.794 4.795 4.795 0 0 1 4.797 4.794 4.795 4.795 0 0 1-4.797 4.793zm-10.792 21.57a4.795 4.795 0 0 1-4.797-4.794 4.795 4.795 0 0 1 4.797-4.793 4.795 4.795 0 0 1 4.796 4.793 4.795 4.795 0 0 1-4.796 4.794zm32.377-21.57a4.795 4.795 0 0 1-4.797-4.794 4.795 4.795 0 0 1 4.797-4.794 4.795 4.795 0 0 1 4.796 4.794 4.795 4.795 0 0 1-4.796 4.793zm-10.793 21.57a4.795 4.795 0 0 1-4.796-4.794 4.795 4.795 0 0 1 4.796-4.793 4.795 4.795 0 0 1 4.797 4.793 4.795 4.795 0 0 1-4.797 4.794zm32.377-21.57a4.795 4.795 0 0 1-4.796-4.794 4.795 4.795 0 0 1 4.796-4.794 4.795 4.795 0 0 1 4.797 4.794 4.795 4.795 0 0 1-4.797 4.793zm-10.792 21.57a4.795 4.795 0 0 1-4.797-4.794 4.795 4.795 0 0 1 4.797-4.793 4.795 4.795 0 0 1 4.796 4.793 4.795 4.795 0 0 1-4.796 4.794zm32.377-21.57a4.795 4.795 0 0 1-4.797-4.794 4.795 4.795 0 0 1 4.797-4.794 4.795 4.795 0 0 1 4.796 4.794 4.795 4.795 0 0 1-4.796 4.793zm-10.793 21.57a4.795 4.795 0 0 1-4.796-4.794 4.795 4.795 0 0 1 4.796-4.793 4.795 4.795 0 0 1 4.797 4.793 4.795 4.795 0 0 1-4.797 4.794zm32.377-21.57a4.795 4.795 0 0 1-4.796-4.794 4.795 4.795 0 0 1 4.796-4.794 4.795 4.795 0 0 1 4.797 4.794 4.795 4.795 0 0 1-4.797 4.793zm-10.792 21.57a4.795 4.795 0 0 1-4.797-4.794 4.795 4.795 0 0 1 4.797-4.793 4.795 4.795 0 0 1 4.797 4.793 4.795 4.795 0 0 1-4.797 4.794zm32.377-21.57a4.795 4.795 0 0 1-4.797-4.794 4.795 4.795 0 0 1 4.797-4.794 4.795 4.795 0 0 1 4.796 4.794 4.795 4.795 0 0 1-4.796 4.793zm-10.792 21.57a4.795 4.795 0 0 1-4.797-4.794 4.795 4.795 0 0 1 4.797-4.793 4.795 4.795 0 0 1 4.796 4.793 4.795 4.795 0 0 1-4.796 4.794zm32.376-21.57a4.795 4.795 0 0 1-4.796-4.794 4.795 4.795 0 0 1 4.796-4.794 4.795 4.795 0 0 1 4.797 4.794 4.795 4.795 0 0 1-4.797 4.793zm-10.792 21.57a4.795 4.795 0 0 1-4.796-4.794 4.795 4.795 0 0 1 4.796-4.793 4.795 4.795 0 0 1 4.797 4.793 4.795 4.795 0 0 1-4.797 4.794zm32.377-21.57a4.795 4.795 0 0 1-4.797-4.794 4.795 4.795 0 0 1 4.797-4.794 4.795 4.795 0 0 1 4.797 4.794 4.795 4.795 0 0 1-4.797 4.793zm-10.792 21.57a4.795 4.795 0 0 1-4.797-4.794 4.795 4.795 0 0 1 4.797-4.793 4.795 4.795 0 0 1 4.796 4.793 4.795 4.795 0 0 1-4.796 4.794zm32.377-21.57a4.795 4.795 0 0 1-4.797-4.794 4.795 4.795 0 0 1 4.797-4.794 4.795 4.795 0 0 1 4.796 4.794 4.795 4.795 0 0 1-4.796 4.793zm-10.793 21.57a4.795 4.795 0 0 1-4.796-4.794 4.795 4.795 0 0 1 4.796-4.793 4.795 4.795 0 0 1 4.797 4.793 4.795 4.795 0 0 1-4.797 4.794zm32.377-21.57a4.795 4.795 0 0 1-4.796-4.794 4.795 4.795 0 0 1 4.796-4.794 4.795 4.795 0 0 1 4.797 4.794 4.795 4.795 0 0 1-4.797 4.793zm-10.792 21.57a4.795 4.795 0 0 1-4.797-4.794 4.795 4.795 0 0 1 4.797-4.793 4.795 4.795 0 0 1 4.796 4.793 4.795 4.795 0 0 1-4.796 4.794zm32.377-21.57a4.795 4.795 0 0 1-4.797-4.794 4.795 4.795 0 0 1 4.797-4.794 4.795 4.795 0 0 1 4.796 4.794 4.795 4.795 0 0 1-4.796 4.793zm-10.793 21.57a4.795 4.795 0 0 1-4.796-4.794 4.795 4.795 0 0 1 4.796-4.793 4.795 4.795 0 0 1 4.797 4.793 4.795 4.795 0 0 1-4.797 4.794zm32.377-21.57a4.795 4.795 0 0 1-4.796-4.794 4.795 4.795 0 0 1 4.796-4.794 4.795 4.795 0 0 1 4.797 4.794 4.795 4.795 0 0 1-4.797 4.793zm-10.792 21.57a4.795 4.795 0 0 1-4.797-4.794 4.795 4.795 0 0 1 4.797-4.793 4.795 4.795 0 0 1 4.797 4.793 4.795 4.795 0 0 1-4.797 4.794zm32.377-21.57a4.795 4.795 0 0 1-4.797-4.794 4.795 4.795 0 0 1 4.797-4.794 4.795 4.795 0 0 1 4.797 4.794 4.795 4.795 0 0 1-4.797 4.793zm-10.792 21.57a4.795 4.795 0 0 1-4.797-4.794 4.795 4.795 0 0 1 4.797-4.793 4.795 4.795 0 0 1 4.796 4.793 4.795 4.795 0 0 1-4.796 4.794zm32.377-21.57a4.795 4.795 0 0 1-4.797-4.794 4.795 4.795 0 0 1 4.797-4.794 4.795 4.795 0 0 1 4.796 4.794 4.795 4.795 0 0 1-4.796 4.793zm-10.793 21.57a4.795 4.795 0 0 1-4.796-4.794 4.795 4.795 0 0 1 4.796-4.793 4.795 4.795 0 0 1 4.797 4.793 4.795 4.795 0 0 1-4.797 4.794zm32.377-21.57a4.795 4.795 0 0 1-4.796-4.794 4.795 4.795 0 0 1 4.796-4.794 4.795 4.795 0 0 1 4.797 4.794 4.795 4.795 0 0 1-4.797 4.793zm-10.792 21.57a4.795 4.795 0 0 1-4.797-4.794 4.795 4.795 0 0 1 4.797-4.793 4.795 4.795 0 0 1 4.796 4.793 4.795 4.795 0 0 1-4.796 4.794zm32.377-21.57a4.795 4.795 0 0 1-4.797-4.794 4.795 4.795 0 0 1 4.797-4.794 4.795 4.795 0 0 1 4.796 4.794 4.795 4.795 0 0 1-4.796 4.793zm-10.793 21.57a4.795 4.795 0 0 1-4.796-4.794 4.795 4.795 0 0 1 4.796-4.793 4.795 4.795 0 0 1 4.797 4.793 4.795 4.795 0 0 1-4.797 4.794zm32.377-21.57a4.795 4.795 0 0 1-4.796-4.794 4.795 4.795 0 0 1 4.796-4.794 4.795 4.795 0 0 1 4.797 4.794 4.795 4.795 0 0 1-4.797 4.793zm-10.792 21.57a4.795 4.795 0 0 1-4.797-4.794 4.795 4.795 0 0 1 4.797-4.793 4.795 4.795 0 0 1 4.797 4.793 4.795 4.795 0 0 1-4.797 4.794zm32.377-21.57a4.795 4.795 0 0 1-4.797-4.794 4.795 4.795 0 0 1 4.797-4.794 4.795 4.795 0 0 1 4.796 4.794 4.795 4.795 0 0 1-4.796 4.793zm-10.792 21.57a4.795 4.795 0 0 1-4.797-4.794 4.795 4.795 0 0 1 4.797-4.793 4.795 4.795 0 0 1 4.796 4.793 4.795 4.795 0 0 1-4.796 4.794zm32.376-21.57a4.795 4.795 0 0 1-4.796-4.794 4.795 4.795 0 0 1 4.796-4.794 4.795 4.795 0 0 1 4.797 4.794 4.795 4.795 0 0 1-4.797 4.793zm-10.792 21.57a4.795 4.795 0 0 1-4.796-4.794 4.795 4.795 0 0 1 4.796-4.793 4.795 4.795 0 0 1 4.797 4.793 4.795 4.795 0 0 1-4.797 4.794zM-50.41 100.868a4.795 4.795 0 0 1-4.797-4.794 4.795 4.795 0 0 1 4.797-4.793 4.795 4.795 0 0 1 4.796 4.793 4.795 4.795 0 0 1-4.796 4.794zm-10.792 21.57A4.795 4.795 0 0 1-66 117.645a4.795 4.795 0 0 1 4.797-4.794 4.795 4.795 0 0 1 4.796 4.794 4.795 4.795 0 0 1-4.796 4.793zm32.376-21.57a4.795 4.795 0 0 1-4.796-4.794 4.795 4.795 0 0 1 4.796-4.793 4.795 4.795 0 0 1 4.797 4.793 4.795 4.795 0 0 1-4.797 4.794zm-10.792 21.57a4.795 4.795 0 0 1-4.796-4.793 4.795 4.795 0 0 1 4.796-4.794 4.795 4.795 0 0 1 4.797 4.794 4.795 4.795 0 0 1-4.797 4.793zm32.377-21.57a4.795 4.795 0 0 1-4.797-4.794 4.795 4.795 0 0 1 4.797-4.793 4.795 4.795 0 0 1 4.797 4.793 4.795 4.795 0 0 1-4.797 4.794zm-10.792 21.57a4.795 4.795 0 0 1-4.797-4.793 4.795 4.795 0 0 1 4.797-4.794 4.795 4.795 0 0 1 4.796 4.794 4.795 4.795 0 0 1-4.796 4.793zm32.377-21.57a4.795 4.795 0 0 1-4.797-4.794 4.795 4.795 0 0 1 4.797-4.793 4.795 4.795 0 0 1 4.796 4.793 4.795 4.795 0 0 1-4.796 4.794zM3.55 122.438a4.795 4.795 0 0 1-4.796-4.793 4.795 4.795 0 0 1 4.796-4.794 4.795 4.795 0 0 1 4.797 4.794 4.795 4.795 0 0 1-4.797 4.793zm32.377-21.57a4.795 4.795 0 0 1-4.796-4.794 4.795 4.795 0 0 1 4.796-4.793 4.795 4.795 0 0 1 4.797 4.793 4.795 4.795 0 0 1-4.797 4.794zm-10.792 21.57a4.795 4.795 0 0 1-4.797-4.793 4.795 4.795 0 0 1 4.797-4.794 4.795 4.795 0 0 1 4.796 4.794 4.795 4.795 0 0 1-4.796 4.793zm32.377-21.57a4.795 4.795 0 0 1-4.797-4.794 4.795 4.795 0 0 1 4.797-4.793 4.795 4.795 0 0 1 4.796 4.793 4.795 4.795 0 0 1-4.796 4.794zm-10.793 21.57a4.795 4.795 0 0 1-4.796-4.793 4.795 4.795 0 0 1 4.796-4.794 4.795 4.795 0 0 1 4.797 4.794 4.795 4.795 0 0 1-4.797 4.793zm32.377-21.57a4.795 4.795 0 0 1-4.796-4.794 4.795 4.795 0 0 1 4.796-4.793 4.795 4.795 0 0 1 4.797 4.793 4.795 4.795 0 0 1-4.797 4.794zm-10.792 21.57a4.795 4.795 0 0 1-4.797-4.793 4.795 4.795 0 0 1 4.797-4.794 4.795 4.795 0 0 1 4.797 4.794 4.795 4.795 0 0 1-4.797 4.793zm32.377-21.57a4.795 4.795 0 0 1-4.797-4.794 4.795 4.795 0 0 1 4.797-4.793 4.795 4.795 0 0 1 4.797 4.793 4.795 4.795 0 0 1-4.797 4.794zm-10.792 21.57a4.795 4.795 0 0 1-4.797-4.793 4.795 4.795 0 0 1 4.797-4.794 4.795 4.795 0 0 1 4.796 4.794 4.795 4.795 0 0 1-4.796 4.793zm32.377-21.57a4.795 4.795 0 0 1-4.797-4.794 4.795 4.795 0 0 1 4.797-4.793 4.795 4.795 0 0 1 4.796 4.793 4.795 4.795 0 0 1-4.796 4.794zm-10.793 21.57a4.795 4.795 0 0 1-4.796-4.793 4.795 4.795 0 0 1 4.796-4.794 4.795 4.795 0 0 1 4.797 4.794 4.795 4.795 0 0 1-4.797 4.793zm32.377-21.57a4.795 4.795 0 0 1-4.796-4.794 4.795 4.795 0 0 1 4.796-4.793 4.795 4.795 0 0 1 4.797 4.793 4.795 4.795 0 0 1-4.797 4.794zm-10.792 21.57a4.795 4.795 0 0 1-4.797-4.793 4.795 4.795 0 0 1 4.797-4.794 4.795 4.795 0 0 1 4.796 4.794 4.795 4.795 0 0 1-4.796 4.793zm32.377-21.57a4.795 4.795 0 0 1-4.797-4.794 4.795 4.795 0 0 1 4.797-4.793 4.795 4.795 0 0 1 4.796 4.793 4.795 4.795 0 0 1-4.796 4.794zm-10.793 21.57a4.795 4.795 0 0 1-4.796-4.793 4.795 4.795 0 0 1 4.796-4.794 4.795 4.795 0 0 1 4.797 4.794 4.795 4.795 0 0 1-4.797 4.793zm32.377-21.57a4.795 4.795 0 0 1-4.796-4.794 4.795 4.795 0 0 1 4.796-4.793 4.795 4.795 0 0 1 4.797 4.793 4.795 4.795 0 0 1-4.797 4.794zm-10.792 21.57a4.795 4.795 0 0 1-4.797-4.793 4.795 4.795 0 0 1 4.797-4.794 4.795 4.795 0 0 1 4.797 4.794 4.795 4.795 0 0 1-4.797 4.793zm32.377-21.57a4.795 4.795 0 0 1-4.797-4.794 4.795 4.795 0 0 1 4.797-4.793 4.795 4.795 0 0 1 4.796 4.793 4.795 4.795 0 0 1-4.796 4.794zm-10.792 21.57a4.795 4.795 0 0 1-4.797-4.793 4.795 4.795 0 0 1 4.797-4.794 4.795 4.795 0 0 1 4.796 4.794 4.795 4.795 0 0 1-4.796 4.793zm32.376-21.57a4.795 4.795 0 0 1-4.796-4.794 4.795 4.795 0 0 1 4.796-4.793 4.795 4.795 0 0 1 4.797 4.793 4.795 4.795 0 0 1-4.797 4.794zm-10.792 21.57a4.795 4.795 0 0 1-4.796-4.793 4.795 4.795 0 0 1 4.796-4.794 4.795 4.795 0 0 1 4.797 4.794 4.795 4.795 0 0 1-4.797 4.793zm32.377-21.57a4.795 4.795 0 0 1-4.797-4.794 4.795 4.795 0 0 1 4.797-4.793 4.795 4.795 0 0 1 4.797 4.793 4.795 4.795 0 0 1-4.797 4.794zm-10.792 21.57a4.795 4.795 0 0 1-4.797-4.793 4.795 4.795 0 0 1 4.797-4.794 4.795 4.795 0 0 1 4.796 4.794 4.795 4.795 0 0 1-4.796 4.793zm32.377-21.57a4.795 4.795 0 0 1-4.797-4.794 4.795 4.795 0 0 1 4.797-4.793 4.795 4.795 0 0 1 4.796 4.793 4.795 4.795 0 0 1-4.796 4.794zm-10.793 21.57a4.795 4.795 0 0 1-4.796-4.793 4.795 4.795 0 0 1 4.796-4.794 4.795 4.795 0 0 1 4.797 4.794 4.795 4.795 0 0 1-4.797 4.793zm32.377-21.57a4.795 4.795 0 0 1-4.796-4.794 4.795 4.795 0 0 1 4.796-4.793 4.795 4.795 0 0 1 4.797 4.793 4.795 4.795 0 0 1-4.797 4.794zm-10.792 21.57a4.795 4.795 0 0 1-4.797-4.793 4.795 4.795 0 0 1 4.797-4.794 4.795 4.795 0 0 1 4.796 4.794 4.795 4.795 0 0 1-4.796 4.793zm32.377-21.57a4.795 4.795 0 0 1-4.797-4.794 4.795 4.795 0 0 1 4.797-4.793 4.795 4.795 0 0 1 4.796 4.793 4.795 4.795 0 0 1-4.796 4.794zm-10.793 21.57a4.795 4.795 0 0 1-4.796-4.793 4.795 4.795 0 0 1 4.796-4.794 4.795 4.795 0 0 1 4.797 4.794 4.795 4.795 0 0 1-4.797 4.793zm32.377-21.57a4.795 4.795 0 0 1-4.796-4.794 4.795 4.795 0 0 1 4.796-4.793 4.795 4.795 0 0 1 4.797 4.793 4.795 4.795 0 0 1-4.797 4.794zm-10.792 21.57a4.795 4.795 0 0 1-4.797-4.793 4.795 4.795 0 0 1 4.797-4.794 4.795 4.795 0 0 1 4.797 4.794 4.795 4.795 0 0 1-4.797 4.793zm32.377-21.57a4.795 4.795 0 0 1-4.797-4.794 4.795 4.795 0 0 1 4.797-4.793 4.795 4.795 0 0 1 4.797 4.793 4.795 4.795 0 0 1-4.797 4.794zm-10.792 21.57a4.795 4.795 0 0 1-4.797-4.793 4.795 4.795 0 0 1 4.797-4.794 4.795 4.795 0 0 1 4.796 4.794 4.795 4.795 0 0 1-4.796 4.793zm32.377-21.57a4.795 4.795 0 0 1-4.797-4.794 4.795 4.795 0 0 1 4.797-4.793 4.795 4.795 0 0 1 4.796 4.793 4.795 4.795 0 0 1-4.796 4.794zm-10.793 21.57a4.795 4.795 0 0 1-4.796-4.793 4.795 4.795 0 0 1 4.796-4.794 4.795 4.795 0 0 1 4.797 4.794 4.795 4.795 0 0 1-4.797 4.793zm32.377-21.57a4.795 4.795 0 0 1-4.796-4.794 4.795 4.795 0 0 1 4.796-4.793 4.795 4.795 0 0 1 4.797 4.793 4.795 4.795 0 0 1-4.797 4.794zm-10.792 21.57a4.795 4.795 0 0 1-4.797-4.793 4.795 4.795 0 0 1 4.797-4.794 4.795 4.795 0 0 1 4.796 4.794 4.795 4.795 0 0 1-4.796 4.793zm32.377-21.57a4.795 4.795 0 0 1-4.797-4.794 4.795 4.795 0 0 1 4.797-4.793 4.795 4.795 0 0 1 4.796 4.793 4.795 4.795 0 0 1-4.796 4.794zm-10.793 21.57a4.795 4.795 0 0 1-4.796-4.793 4.795 4.795 0 0 1 4.796-4.794 4.795 4.795 0 0 1 4.797 4.794 4.795 4.795 0 0 1-4.797 4.793zm32.377-21.57a4.795 4.795 0 0 1-4.796-4.794 4.795 4.795 0 0 1 4.796-4.793 4.795 4.795 0 0 1 4.797 4.793 4.795 4.795 0 0 1-4.797 4.794zm-10.792 21.57a4.795 4.795 0 0 1-4.797-4.793 4.795 4.795 0 0 1 4.797-4.794 4.795 4.795 0 0 1 4.797 4.794 4.795 4.795 0 0 1-4.797 4.793zm32.377-21.57a4.795 4.795 0 0 1-4.797-4.794 4.795 4.795 0 0 1 4.797-4.793 4.795 4.795 0 0 1 4.796 4.793 4.795 4.795 0 0 1-4.796 4.794zm-10.792 21.57a4.795 4.795 0 0 1-4.797-4.793 4.795 4.795 0 0 1 4.797-4.794 4.795 4.795 0 0 1 4.796 4.794 4.795 4.795 0 0 1-4.796 4.793zm32.376-21.57a4.795 4.795 0 0 1-4.796-4.794 4.795 4.795 0 0 1 4.796-4.793A4.795 4.795 0 0 1 494 96.074a4.795 4.795 0 0 1-4.797 4.794zm-10.792 21.57a4.795 4.795 0 0 1-4.796-4.793 4.795 4.795 0 0 1 4.796-4.794 4.795 4.795 0 0 1 4.797 4.794 4.795 4.795 0 0 1-4.797 4.793zM-50.41 57.728a4.795 4.795 0 0 1-4.797-4.794 4.795 4.795 0 0 1 4.797-4.794 4.795 4.795 0 0 1 4.796 4.794 4.795 4.795 0 0 1-4.796 4.793zm-10.792 21.57A4.795 4.795 0 0 1-66 74.504a4.795 4.795 0 0 1 4.797-4.793 4.795 4.795 0 0 1 4.796 4.793 4.795 4.795 0 0 1-4.796 4.794zm32.376-21.57a4.795 4.795 0 0 1-4.796-4.794 4.795 4.795 0 0 1 4.796-4.794 4.795 4.795 0 0 1 4.797 4.794 4.795 4.795 0 0 1-4.797 4.793zm-10.792 21.57a4.795 4.795 0 0 1-4.796-4.794 4.795 4.795 0 0 1 4.796-4.793 4.795 4.795 0 0 1 4.797 4.793 4.795 4.795 0 0 1-4.797 4.794zm32.377-21.57a4.795 4.795 0 0 1-4.797-4.794 4.795 4.795 0 0 1 4.797-4.794 4.795 4.795 0 0 1 4.797 4.794 4.795 4.795 0 0 1-4.797 4.793zm-10.792 21.57a4.795 4.795 0 0 1-4.797-4.794 4.795 4.795 0 0 1 4.797-4.793 4.795 4.795 0 0 1 4.796 4.793 4.795 4.795 0 0 1-4.796 4.794zm32.377-21.57a4.795 4.795 0 0 1-4.797-4.794 4.795 4.795 0 0 1 4.797-4.794 4.795 4.795 0 0 1 4.796 4.794 4.795 4.795 0 0 1-4.796 4.793zM3.55 79.297a4.795 4.795 0 0 1-4.796-4.794 4.795 4.795 0 0 1 4.796-4.793 4.795 4.795 0 0 1 4.797 4.793 4.795 4.795 0 0 1-4.797 4.794zm32.377-21.57a4.795 4.795 0 0 1-4.796-4.794 4.795 4.795 0 0 1 4.796-4.794 4.795 4.795 0 0 1 4.797 4.794 4.795 4.795 0 0 1-4.797 4.793zm-10.792 21.57a4.795 4.795 0 0 1-4.797-4.794 4.795 4.795 0 0 1 4.797-4.793 4.795 4.795 0 0 1 4.796 4.793 4.795 4.795 0 0 1-4.796 4.794zm32.377-21.57a4.795 4.795 0 0 1-4.797-4.794 4.795 4.795 0 0 1 4.797-4.794 4.795 4.795 0 0 1 4.796 4.794 4.795 4.795 0 0 1-4.796 4.793zm-10.793 21.57a4.795 4.795 0 0 1-4.796-4.794 4.795 4.795 0 0 1 4.796-4.793 4.795 4.795 0 0 1 4.797 4.793 4.795 4.795 0 0 1-4.797 4.794zm32.377-21.57a4.795 4.795 0 0 1-4.796-4.794 4.795 4.795 0 0 1 4.796-4.794 4.795 4.795 0 0 1 4.797 4.794 4.795 4.795 0 0 1-4.797 4.793zm-10.792 21.57a4.795 4.795 0 0 1-4.797-4.794 4.795 4.795 0 0 1 4.797-4.793 4.795 4.795 0 0 1 4.797 4.793 4.795 4.795 0 0 1-4.797 4.794zm32.377-21.57a4.795 4.795 0 0 1-4.797-4.794 4.795 4.795 0 0 1 4.797-4.794 4.795 4.795 0 0 1 4.797 4.794 4.795 4.795 0 0 1-4.797 4.793zm-10.792 21.57a4.795 4.795 0 0 1-4.797-4.794 4.795 4.795 0 0 1 4.797-4.793 4.795 4.795 0 0 1 4.796 4.793 4.795 4.795 0 0 1-4.796 4.794zm32.377-21.57a4.795 4.795 0 0 1-4.797-4.794 4.795 4.795 0 0 1 4.797-4.794 4.795 4.795 0 0 1 4.796 4.794 4.795 4.795 0 0 1-4.796 4.793zm-10.793 21.57a4.795 4.795 0 0 1-4.796-4.794 4.795 4.795 0 0 1 4.796-4.793 4.795 4.795 0 0 1 4.797 4.793 4.795 4.795 0 0 1-4.797 4.794zm32.377-21.57a4.795 4.795 0 0 1-4.796-4.794 4.795 4.795 0 0 1 4.796-4.794 4.795 4.795 0 0 1 4.797 4.794 4.795 4.795 0 0 1-4.797 4.793zm-10.792 21.57a4.795 4.795 0 0 1-4.797-4.794 4.795 4.795 0 0 1 4.797-4.793 4.795 4.795 0 0 1 4.796 4.793 4.795 4.795 0 0 1-4.796 4.794zm32.377-21.57a4.795 4.795 0 0 1-4.797-4.794 4.795 4.795 0 0 1 4.797-4.794 4.795 4.795 0 0 1 4.796 4.794 4.795 4.795 0 0 1-4.796 4.793zm-10.793 21.57a4.795 4.795 0 0 1-4.796-4.794 4.795 4.795 0 0 1 4.796-4.793 4.795 4.795 0 0 1 4.797 4.793 4.795 4.795 0 0 1-4.797 4.794zm32.377-21.57a4.795 4.795 0 0 1-4.796-4.794 4.795 4.795 0 0 1 4.796-4.794 4.795 4.795 0 0 1 4.797 4.794 4.795 4.795 0 0 1-4.797 4.793zm-10.792 21.57a4.795 4.795 0 0 1-4.797-4.794 4.795 4.795 0 0 1 4.797-4.793 4.795 4.795 0 0 1 4.797 4.793 4.795 4.795 0 0 1-4.797 4.794zm32.377-21.57a4.795 4.795 0 0 1-4.797-4.794 4.795 4.795 0 0 1 4.797-4.794 4.795 4.795 0 0 1 4.796 4.794 4.795 4.795 0 0 1-4.796 4.793zm-10.792 21.57a4.795 4.795 0 0 1-4.797-4.794 4.795 4.795 0 0 1 4.797-4.793 4.795 4.795 0 0 1 4.796 4.793 4.795 4.795 0 0 1-4.796 4.794zm32.376-21.57a4.795 4.795 0 0 1-4.796-4.794 4.795 4.795 0 0 1 4.796-4.794 4.795 4.795 0 0 1 4.797 4.794 4.795 4.795 0 0 1-4.797 4.793zm-10.792 21.57a4.795 4.795 0 0 1-4.796-4.794 4.795 4.795 0 0 1 4.796-4.793 4.795 4.795 0 0 1 4.797 4.793 4.795 4.795 0 0 1-4.797 4.794zm32.377-21.57a4.795 4.795 0 0 1-4.797-4.794 4.795 4.795 0 0 1 4.797-4.794 4.795 4.795 0 0 1 4.797 4.794 4.795 4.795 0 0 1-4.797 4.793zm-10.792 21.57a4.795 4.795 0 0 1-4.797-4.794 4.795 4.795 0 0 1 4.797-4.793 4.795 4.795 0 0 1 4.796 4.793 4.795 4.795 0 0 1-4.796 4.794zm32.377-21.57a4.795 4.795 0 0 1-4.797-4.794 4.795 4.795 0 0 1 4.797-4.794 4.795 4.795 0 0 1 4.796 4.794 4.795 4.795 0 0 1-4.796 4.793zm-10.793 21.57a4.795 4.795 0 0 1-4.796-4.794 4.795 4.795 0 0 1 4.796-4.793 4.795 4.795 0 0 1 4.797 4.793 4.795 4.795 0 0 1-4.797 4.794zm32.377-21.57a4.795 4.795 0 0 1-4.796-4.794 4.795 4.795 0 0 1 4.796-4.794 4.795 4.795 0 0 1 4.797 4.794 4.795 4.795 0 0 1-4.797 4.793zm-10.792 21.57a4.795 4.795 0 0 1-4.797-4.794 4.795 4.795 0 0 1 4.797-4.793 4.795 4.795 0 0 1 4.796 4.793 4.795 4.795 0 0 1-4.796 4.794zm32.377-21.57a4.795 4.795 0 0 1-4.797-4.794 4.795 4.795 0 0 1 4.797-4.794 4.795 4.795 0 0 1 4.796 4.794 4.795 4.795 0 0 1-4.796 4.793zm-10.793 21.57a4.795 4.795 0 0 1-4.796-4.794 4.795 4.795 0 0 1 4.796-4.793 4.795 4.795 0 0 1 4.797 4.793 4.795 4.795 0 0 1-4.797 4.794zm32.377-21.57a4.795 4.795 0 0 1-4.796-4.794 4.795 4.795 0 0 1 4.796-4.794 4.795 4.795 0 0 1 4.797 4.794 4.795 4.795 0 0 1-4.797 4.793zm-10.792 21.57a4.795 4.795 0 0 1-4.797-4.794 4.795 4.795 0 0 1 4.797-4.793 4.795 4.795 0 0 1 4.797 4.793 4.795 4.795 0 0 1-4.797 4.794zm32.377-21.57a4.795 4.795 0 0 1-4.797-4.794 4.795 4.795 0 0 1 4.797-4.794 4.795 4.795 0 0 1 4.797 4.794 4.795 4.795 0 0 1-4.797 4.793zm-10.792 21.57a4.795 4.795 0 0 1-4.797-4.794 4.795 4.795 0 0 1 4.797-4.793 4.795 4.795 0 0 1 4.796 4.793 4.795 4.795 0 0 1-4.796 4.794zm32.377-21.57a4.795 4.795 0 0 1-4.797-4.794 4.795 4.795 0 0 1 4.797-4.794 4.795 4.795 0 0 1 4.796 4.794 4.795 4.795 0 0 1-4.796 4.793zm-10.793 21.57a4.795 4.795 0 0 1-4.796-4.794 4.795 4.795 0 0 1 4.796-4.793 4.795 4.795 0 0 1 4.797 4.793 4.795 4.795 0 0 1-4.797 4.794zm32.377-21.57a4.795 4.795 0 0 1-4.796-4.794 4.795 4.795 0 0 1 4.796-4.794 4.795 4.795 0 0 1 4.797 4.794 4.795 4.795 0 0 1-4.797 4.793zm-10.792 21.57a4.795 4.795 0 0 1-4.797-4.794 4.795 4.795 0 0 1 4.797-4.793 4.795 4.795 0 0 1 4.796 4.793 4.795 4.795 0 0 1-4.796 4.794zm32.377-21.57a4.795 4.795 0 0 1-4.797-4.794 4.795 4.795 0 0 1 4.797-4.794 4.795 4.795 0 0 1 4.796 4.794 4.795 4.795 0 0 1-4.796 4.793zm-10.793 21.57a4.795 4.795 0 0 1-4.796-4.794 4.795 4.795 0 0 1 4.796-4.793 4.795 4.795 0 0 1 4.797 4.793 4.795 4.795 0 0 1-4.797 4.794zm32.377-21.57a4.795 4.795 0 0 1-4.796-4.794 4.795 4.795 0 0 1 4.796-4.794 4.795 4.795 0 0 1 4.797 4.794 4.795 4.795 0 0 1-4.797 4.793zm-10.792 21.57a4.795 4.795 0 0 1-4.797-4.794 4.795 4.795 0 0 1 4.797-4.793 4.795 4.795 0 0 1 4.797 4.793 4.795 4.795 0 0 1-4.797 4.794zm32.377-21.57a4.795 4.795 0 0 1-4.797-4.794 4.795 4.795 0 0 1 4.797-4.794 4.795 4.795 0 0 1 4.796 4.794 4.795 4.795 0 0 1-4.796 4.793zm-10.792 21.57a4.795 4.795 0 0 1-4.797-4.794 4.795 4.795 0 0 1 4.797-4.793 4.795 4.795 0 0 1 4.796 4.793 4.795 4.795 0 0 1-4.796 4.794zm32.376-21.57a4.795 4.795 0 0 1-4.796-4.794 4.795 4.795 0 0 1 4.796-4.794A4.795 4.795 0 0 1 494 52.934a4.795 4.795 0 0 1-4.797 4.793zm-10.792 21.57a4.795 4.795 0 0 1-4.796-4.794 4.795 4.795 0 0 1 4.796-4.793 4.795 4.795 0 0 1 4.797 4.793 4.795 4.795 0 0 1-4.797 4.794zM-50.41 14.587a4.795 4.795 0 0 1-4.797-4.794A4.795 4.795 0 0 1-50.41 5a4.795 4.795 0 0 1 4.796 4.793 4.795 4.795 0 0 1-4.796 4.794zm-10.792 21.57A4.795 4.795 0 0 1-66 31.364a4.795 4.795 0 0 1 4.797-4.794 4.795 4.795 0 0 1 4.796 4.794 4.795 4.795 0 0 1-4.796 4.793zm32.376-21.57a4.795 4.795 0 0 1-4.796-4.794A4.795 4.795 0 0 1-28.827 5a4.795 4.795 0 0 1 4.797 4.793 4.795 4.795 0 0 1-4.797 4.794zm-10.792 21.57a4.795 4.795 0 0 1-4.796-4.793 4.795 4.795 0 0 1 4.796-4.794 4.795 4.795 0 0 1 4.797 4.794 4.795 4.795 0 0 1-4.797 4.793zm32.377-21.57a4.795 4.795 0 0 1-4.797-4.794A4.795 4.795 0 0 1-7.242 5a4.795 4.795 0 0 1 4.797 4.793 4.795 4.795 0 0 1-4.797 4.794zm-10.792 21.57a4.795 4.795 0 0 1-4.797-4.793 4.795 4.795 0 0 1 4.797-4.794 4.795 4.795 0 0 1 4.796 4.794 4.795 4.795 0 0 1-4.796 4.793zm32.377-21.57a4.795 4.795 0 0 1-4.797-4.794A4.795 4.795 0 0 1 14.343 5a4.795 4.795 0 0 1 4.796 4.793 4.795 4.795 0 0 1-4.796 4.794zM3.55 36.157a4.795 4.795 0 0 1-4.796-4.793A4.795 4.795 0 0 1 3.55 26.57a4.795 4.795 0 0 1 4.797 4.794 4.795 4.795 0 0 1-4.797 4.793zm32.377-21.57a4.795 4.795 0 0 1-4.796-4.794A4.795 4.795 0 0 1 35.927 5a4.795 4.795 0 0 1 4.797 4.793 4.795 4.795 0 0 1-4.797 4.794zm-10.792 21.57a4.795 4.795 0 0 1-4.797-4.793 4.795 4.795 0 0 1 4.797-4.794 4.795 4.795 0 0 1 4.796 4.794 4.795 4.795 0 0 1-4.796 4.793zm32.377-21.57a4.795 4.795 0 0 1-4.797-4.794A4.795 4.795 0 0 1 57.512 5a4.795 4.795 0 0 1 4.796 4.793 4.795 4.795 0 0 1-4.796 4.794zm-10.793 21.57a4.795 4.795 0 0 1-4.796-4.793 4.795 4.795 0 0 1 4.796-4.794 4.795 4.795 0 0 1 4.797 4.794 4.795 4.795 0 0 1-4.797 4.793zm32.377-21.57A4.795 4.795 0 0 1 74.3 9.793 4.795 4.795 0 0 1 79.096 5a4.795 4.795 0 0 1 4.797 4.793 4.795 4.795 0 0 1-4.797 4.794zm-10.792 21.57a4.795 4.795 0 0 1-4.797-4.793 4.795 4.795 0 0 1 4.797-4.794 4.795 4.795 0 0 1 4.797 4.794 4.795 4.795 0 0 1-4.797 4.793zm32.377-21.57a4.795 4.795 0 0 1-4.797-4.794A4.795 4.795 0 0 1 100.681 5a4.795 4.795 0 0 1 4.797 4.793 4.795 4.795 0 0 1-4.797 4.794zm-10.792 21.57a4.795 4.795 0 0 1-4.797-4.793 4.795 4.795 0 0 1 4.797-4.794 4.795 4.795 0 0 1 4.796 4.794 4.795 4.795 0 0 1-4.796 4.793zm32.377-21.57a4.795 4.795 0 0 1-4.797-4.794A4.795 4.795 0 0 1 122.266 5a4.795 4.795 0 0 1 4.796 4.793 4.795 4.795 0 0 1-4.796 4.794zm-10.793 21.57a4.795 4.795 0 0 1-4.796-4.793 4.795 4.795 0 0 1 4.796-4.794 4.795 4.795 0 0 1 4.797 4.794 4.795 4.795 0 0 1-4.797 4.793zm32.377-21.57a4.795 4.795 0 0 1-4.796-4.794A4.795 4.795 0 0 1 143.85 5a4.795 4.795 0 0 1 4.797 4.793 4.795 4.795 0 0 1-4.797 4.794zm-10.792 21.57a4.795 4.795 0 0 1-4.797-4.793 4.795 4.795 0 0 1 4.797-4.794 4.795 4.795 0 0 1 4.796 4.794 4.795 4.795 0 0 1-4.796 4.793zm32.377-21.57a4.795 4.795 0 0 1-4.797-4.794A4.795 4.795 0 0 1 165.435 5a4.795 4.795 0 0 1 4.796 4.793 4.795 4.795 0 0 1-4.796 4.794zm-10.793 21.57a4.795 4.795 0 0 1-4.796-4.793 4.795 4.795 0 0 1 4.796-4.794 4.795 4.795 0 0 1 4.797 4.794 4.795 4.795 0 0 1-4.797 4.793zm32.377-21.57a4.795 4.795 0 0 1-4.796-4.794A4.795 4.795 0 0 1 187.019 5a4.795 4.795 0 0 1 4.797 4.793 4.795 4.795 0 0 1-4.797 4.794zm-10.792 21.57a4.795 4.795 0 0 1-4.797-4.793 4.795 4.795 0 0 1 4.797-4.794 4.795 4.795 0 0 1 4.797 4.794 4.795 4.795 0 0 1-4.797 4.793zm32.377-21.57a4.795 4.795 0 0 1-4.797-4.794A4.795 4.795 0 0 1 208.604 5a4.795 4.795 0 0 1 4.796 4.793 4.795 4.795 0 0 1-4.796 4.794zm-10.792 21.57a4.795 4.795 0 0 1-4.797-4.793 4.795 4.795 0 0 1 4.797-4.794 4.795 4.795 0 0 1 4.796 4.794 4.795 4.795 0 0 1-4.796 4.793zm32.376-21.57a4.795 4.795 0 0 1-4.796-4.794A4.795 4.795 0 0 1 230.188 5a4.795 4.795 0 0 1 4.797 4.793 4.795 4.795 0 0 1-4.797 4.794zm-10.792 21.57a4.795 4.795 0 0 1-4.796-4.793 4.795 4.795 0 0 1 4.796-4.794 4.795 4.795 0 0 1 4.797 4.794 4.795 4.795 0 0 1-4.797 4.793zm32.377-21.57a4.795 4.795 0 0 1-4.797-4.794A4.795 4.795 0 0 1 251.773 5a4.795 4.795 0 0 1 4.797 4.793 4.795 4.795 0 0 1-4.797 4.794zm-10.792 21.57a4.795 4.795 0 0 1-4.797-4.793 4.795 4.795 0 0 1 4.797-4.794 4.795 4.795 0 0 1 4.796 4.794 4.795 4.795 0 0 1-4.796 4.793zm32.377-21.57a4.795 4.795 0 0 1-4.797-4.794A4.795 4.795 0 0 1 273.358 5a4.795 4.795 0 0 1 4.796 4.793 4.795 4.795 0 0 1-4.796 4.794zm-10.793 21.57a4.795 4.795 0 0 1-4.796-4.793 4.795 4.795 0 0 1 4.796-4.794 4.795 4.795 0 0 1 4.797 4.794 4.795 4.795 0 0 1-4.797 4.793zm32.377-21.57a4.795 4.795 0 0 1-4.796-4.794A4.795 4.795 0 0 1 294.942 5a4.795 4.795 0 0 1 4.797 4.793 4.795 4.795 0 0 1-4.797 4.794zm-10.792 21.57a4.795 4.795 0 0 1-4.797-4.793 4.795 4.795 0 0 1 4.797-4.794 4.795 4.795 0 0 1 4.796 4.794 4.795 4.795 0 0 1-4.796 4.793zm32.377-21.57a4.795 4.795 0 0 1-4.797-4.794A4.795 4.795 0 0 1 316.527 5a4.795 4.795 0 0 1 4.796 4.793 4.795 4.795 0 0 1-4.796 4.794zm-10.793 21.57a4.795 4.795 0 0 1-4.796-4.793 4.795 4.795 0 0 1 4.796-4.794 4.795 4.795 0 0 1 4.797 4.794 4.795 4.795 0 0 1-4.797 4.793zm32.377-21.57a4.795 4.795 0 0 1-4.796-4.794A4.795 4.795 0 0 1 338.11 5a4.795 4.795 0 0 1 4.797 4.793 4.795 4.795 0 0 1-4.797 4.794zm-10.792 21.57a4.795 4.795 0 0 1-4.797-4.793 4.795 4.795 0 0 1 4.797-4.794 4.795 4.795 0 0 1 4.797 4.794 4.795 4.795 0 0 1-4.797 4.793zm32.377-21.57a4.795 4.795 0 0 1-4.797-4.794A4.795 4.795 0 0 1 359.696 5a4.795 4.795 0 0 1 4.797 4.793 4.795 4.795 0 0 1-4.797 4.794zm-10.792 21.57a4.795 4.795 0 0 1-4.797-4.793 4.795 4.795 0 0 1 4.797-4.794 4.795 4.795 0 0 1 4.796 4.794 4.795 4.795 0 0 1-4.796 4.793zm32.377-21.57a4.795 4.795 0 0 1-4.797-4.794A4.795 4.795 0 0 1 381.28 5a4.795 4.795 0 0 1 4.796 4.793 4.795 4.795 0 0 1-4.796 4.794zm-10.793 21.57a4.795 4.795 0 0 1-4.796-4.793 4.795 4.795 0 0 1 4.796-4.794 4.795 4.795 0 0 1 4.797 4.794 4.795 4.795 0 0 1-4.797 4.793zm32.377-21.57a4.795 4.795 0 0 1-4.796-4.794A4.795 4.795 0 0 1 402.865 5a4.795 4.795 0 0 1 4.797 4.793 4.795 4.795 0 0 1-4.797 4.794zm-10.792 21.57a4.795 4.795 0 0 1-4.797-4.793 4.795 4.795 0 0 1 4.797-4.794 4.795 4.795 0 0 1 4.796 4.794 4.795 4.795 0 0 1-4.796 4.793zm32.377-21.57a4.795 4.795 0 0 1-4.797-4.794A4.795 4.795 0 0 1 424.45 5a4.795 4.795 0 0 1 4.796 4.793 4.795 4.795 0 0 1-4.796 4.794zm-10.793 21.57a4.795 4.795 0 0 1-4.796-4.793 4.795 4.795 0 0 1 4.796-4.794 4.795 4.795 0 0 1 4.797 4.794 4.795 4.795 0 0 1-4.797 4.793zm32.377-21.57a4.795 4.795 0 0 1-4.796-4.794A4.795 4.795 0 0 1 446.034 5a4.795 4.795 0 0 1 4.797 4.793 4.795 4.795 0 0 1-4.797 4.794zm-10.792 21.57a4.795 4.795 0 0 1-4.797-4.793 4.795 4.795 0 0 1 4.797-4.794 4.795 4.795 0 0 1 4.797 4.794 4.795 4.795 0 0 1-4.797 4.793zm32.377-21.57a4.795 4.795 0 0 1-4.797-4.794A4.795 4.795 0 0 1 467.62 5a4.795 4.795 0 0 1 4.796 4.793 4.795 4.795 0 0 1-4.796 4.794zm-10.792 21.57a4.795 4.795 0 0 1-4.797-4.793 4.795 4.795 0 0 1 4.797-4.794 4.795 4.795 0 0 1 4.796 4.794 4.795 4.795 0 0 1-4.796 4.793zm32.376-21.57a4.795 4.795 0 0 1-4.796-4.794A4.795 4.795 0 0 1 489.203 5 4.795 4.795 0 0 1 494 9.793a4.795 4.795 0 0 1-4.797 4.794zm-10.792 21.57a4.795 4.795 0 0 1-4.796-4.793 4.795 4.795 0 0 1 4.796-4.794 4.795 4.795 0 0 1 4.797 4.794 4.795 4.795 0 0 1-4.797 4.793z" mask="url(#b)"/>
    </g>
</svg>

