<svg xmlns="http://www.w3.org/2000/svg" width="19" height="19" viewBox="0 0 19 19">
    <g fill="none" fill-rule="evenodd" transform="translate(-10 -10)">
        <circle cx="19" cy="19" r="19"/>
        <path fill="#4460A0" d="M20.136 28.229h-8.32a.959.959 0 0 1-.959-.96V11.817c0-.53.43-.959.959-.959H27.27c.53 0 .959.43.959.959V27.27c0 .53-.43.959-.96.959h-4.426V21.5h2.258l.338-2.621h-2.596v-1.674c0-.76.211-1.276 1.3-1.276l1.388-.001v-2.345a18.558 18.558 0 0 0-2.023-.103c-2.002 0-3.372 1.222-3.372 3.465v1.934h-2.264V21.5h2.264v6.728z"/>
    </g>
</svg>
