<svg xmlns="http://www.w3.org/2000/svg" width="35" height="35" viewBox="0 0 35 35">
    <g fill="none" fill-rule="evenodd">
        <circle cx="17.5" cy="17.5" r="17.5" fill="#007EBB"/>
        <path fill="#FFF" d="M26 24.118h-3.536v-4.963c0-1.3-.553-2.186-1.77-2.186-.93 0-1.448.598-1.688 1.175-.09.207-.077.495-.077.784v5.19h-3.503s.045-8.792 0-9.59h3.503v1.504c.207-.658 1.327-1.597 3.113-1.597 2.217 0 3.958 1.38 3.958 4.35v5.333zm-14.117-10.79h-.022c-1.13 0-1.861-.734-1.861-1.663 0-.947.754-1.665 1.905-1.665 1.15 0 1.858.716 1.88 1.662 0 .93-.73 1.666-1.902 1.666zm-1.48 1.2h3.12v9.59h-3.12v-9.59z"/>
    </g>
</svg>
