<?xml version="1.0" encoding="UTF-8"?> <svg xmlns="http://www.w3.org/2000/svg" width="19" height="22" viewBox="0 0 19 22"><g fill="none" fill-rule="evenodd"><path fill-rule="nonzero" d="M-3-1h24v24H-3z"></path><g fill="#ACAAB7"><path d="M11.894 21.976c.758 0 1.42-.64 1.42-1.375v-3.213h.948c.569 0 .948-.367.948-.918V7.294H3.842v9.176c0 .551.379.918.948.918h.948v3.213c0 .735.661 1.376 1.42 1.376.758 0 1.42-.641 1.42-1.376v-3.213h1.896v3.213c0 .735.661 1.375 1.42 1.375zM17.578 16.47c.758 0 1.42-.64 1.42-1.376V8.67c0-.73-.662-1.375-1.42-1.375-.759 0-1.42.644-1.42 1.375v6.425c0 .735.661 1.376 1.42 1.376zM1.474 16.47c.758 0 1.42-.64 1.42-1.376V8.67c0-.73-.662-1.375-1.42-1.375-.759 0-1.42.644-1.42 1.375v6.425c0 .735.661 1.376 1.42 1.376z"></path><path fill-rule="nonzero" d="M14.072.139a.464.464 0 0 0-.661 0l-1.272 1.227-.059.057c-.754-.366-1.599-.548-2.54-.55h-.028c-.942.002-1.787.184-2.541.55l-.059-.057L5.641.14a.464.464 0 0 0-.662 0 .431.431 0 0 0 0 .64L6.21 1.97c-.396.256-.755.57-1.068.929A5.3 5.3 0 0 0 3.85 6.089l-.003.037a5.12 5.12 0 0 0-.005.249H15.21a5.32 5.32 0 0 0-.006-.249L15.2 6.09a5.299 5.299 0 0 0-1.29-3.19 5.07 5.07 0 0 0-1.07-.928L14.073.779a.431.431 0 0 0 0-.64zM7.156 4.77a.7.7 0 0 1-.71-.688.7.7 0 0 1 .71-.688.7.7 0 0 1 .71.688.7.7 0 0 1-.71.688zm4.74 0a.7.7 0 0 1-.71-.688.7.7 0 0 1 .71-.688.7.7 0 0 1 .71.688.7.7 0 0 1-.71.688z"></path></g></g></svg> 