<?xml version="1.0" encoding="UTF-8"?> <svg xmlns="http://www.w3.org/2000/svg" width="18" height="22" viewBox="0 0 18 22"><g fill="none" fill-rule="evenodd"><path d="M-3-1h24v24H-3z"></path><g fill="#ACAAB7"><path d="M.985 8.087c-1.849 3.228-.673 8.126 1.371 11.095C3.377 20.667 4.411 22 5.826 22c.027 0 .053 0 .08-.002.666-.026 1.146-.232 1.61-.431.523-.224 1.062-.455 1.908-.455.805 0 1.32.224 1.816.44.49.213.994.433 1.74.42 1.593-.03 2.572-1.469 3.436-2.737a12.162 12.162 0 0 0 1.506-3.103l.006-.02a.18.18 0 0 0-.095-.22l-.013-.006c-.281-.116-2.744-1.214-2.77-4.21-.024-2.433 1.848-3.722 2.223-3.955l.018-.011a.18.18 0 0 0 .05-.253c-1.291-1.902-3.271-2.189-4.068-2.223a3.568 3.568 0 0 0-.355-.017c-.937 0-1.834.355-2.554.641-.498.197-.927.368-1.224.368-.333 0-.765-.173-1.265-.372-.669-.268-1.427-.57-2.23-.57h-.057c-1.867.028-3.63 1.102-4.603 2.803z"></path><path d="M13.274 0c-1.13.046-2.486.746-3.297 1.701-.689.803-1.361 2.141-1.184 3.49a.18.18 0 0 0 .164.156c.076.006.154.009.231.009 1.106 0 2.298-.615 3.112-1.605.857-1.046 1.29-2.388 1.16-3.59a.18.18 0 0 0-.186-.16z"></path></g></g></svg> 