<?xml version="1.0" encoding="UTF-8"?> <svg xmlns="http://www.w3.org/2000/svg" width="24" height="12" viewBox="0 0 24 12"><g fill="none" fill-rule="nonzero"><path d="M0-6h24v24H0z"></path><path fill="#ACAAB7" d="M.246 11.797h1.961V3.375H.246v8.422zm.977-9.526a1.076 1.076 0 1 0 0-2.153 1.075 1.075 0 1 0 0 2.153zM8.739.14c-3.317 0-5.397 2.28-5.397 5.927s2.08 5.92 5.397 5.92c3.309 0 5.388-2.273 5.388-5.92 0-3.646-2.08-5.927-5.388-5.927zm0 1.748c2.024 0 3.316 1.621 3.316 4.18 0 2.55-1.292 4.17-3.316 4.17-2.033 0-3.317-1.62-3.317-4.17 0-2.559 1.284-4.18 3.317-4.18zm6.216 6.682c.087 2.113 1.804 3.416 4.42 3.416 2.75 0 4.482-1.366 4.482-3.543 0-1.708-.977-2.67-3.285-3.202l-1.308-.302c-1.394-.333-1.97-.778-1.97-1.541 0-.953.867-1.59 2.152-1.59 1.3 0 2.19.644 2.284 1.717h1.938C23.621 1.508 21.967.141 19.461.141c-2.473 0-4.23 1.375-4.23 3.409 0 1.636.992 2.653 3.088 3.138l1.473.35c1.434.341 2.017.818 2.017 1.644 0 .954-.953 1.637-2.324 1.637-1.387 0-2.434-.691-2.56-1.748h-1.97z"></path></g></svg> 