<?xml version="1.0" encoding="UTF-8"?> <svg xmlns="http://www.w3.org/2000/svg" width="19" height="22" viewBox="0 0 19 22"><g fill="none" fill-rule="nonzero"><path d="M-3-1h24v24H-3z"></path><path fill="#ACAAB7" d="M18.393 17.664c-.651-.264-.93-.615-.903-1.138.028-.61-.322-1.058-.488-1.235.1-.38.394-1.693 0-2.834-.422-1.22-1.712-3.086-3.043-4.92-.545-.752-.57-1.57-.6-2.518-.029-.904-.061-1.929-.57-3.068C12.236.711 11.126 0 9.744 0c-.822 0-1.666.255-2.316.699-1.33.909-1.154 2.892-1.038 4.204.016.18.031.35.04.494.077 1.286.007 1.963-.085 2.169-.06.134-.353.517-.664.922-.321.42-.685.895-.984 1.338-.356.533-.644 1.347-.922 2.135-.203.576-.395 1.12-.582 1.446A1.953 1.953 0 0 0 3 14.886c-.134.092-.328.274-.492.617-.198.418-.6.643-1.434.802-.384.078-.648.238-.787.475-.201.346-.091.78.009 1.077.147.436.055.712-.112 1.213-.039.116-.082.247-.127.392a.7.7 0 0 0 .075.616c.315.477 1.235.646 2.182.757.566.066 1.185.29 1.783.507.587.212 1.193.432 1.745.499a2 2 0 0 0 .246.015c.833 0 1.209-.547 1.328-.772.299-.06 1.33-.254 2.393-.28 1.061-.03 2.088.178 2.379.242.091.174.332.57.716.774.211.114.505.18.806.18.322 0 .933-.075 1.417-.58.483-.507 1.69-1.154 2.57-1.627.197-.105.38-.204.542-.293.495-.272.765-.66.74-1.065-.02-.337-.244-.632-.586-.77zm-10.954-.098c-.062-.43-.62-.856-1.266-1.35-.529-.403-1.128-.86-1.293-1.248-.34-.8-.072-2.205.397-2.929.232-.362.42-.912.604-1.443.197-.574.402-1.168.63-1.427.362-.406.696-1.195.756-1.817.339.32.864.728 1.35.728.075 0 .147-.01.217-.03.332-.095.82-.374 1.293-.645.408-.233.91-.52 1.1-.547.323.461 2.207 4.592 2.4 5.918a6.216 6.216 0 0 1-.09 2.257 1.69 1.69 0 0 0-.224-.016c-.525 0-.664.284-.7.453-.093.44-.103 1.848-.104 2.164-.19.24-1.149 1.364-2.526 1.566-.561.08-1.085.122-1.558.122-.403 0-.66-.031-.768-.047l-.692-.785c.273-.133.546-.415.474-.924zm.878-12.939l-.063.03a1.266 1.266 0 0 0-.015-.141c-.075-.431-.364-.744-.686-.744a.489.489 0 0 0-.074.006c-.191.032-.341.174-.423.376.072-.443.325-.771.626-.771.353 0 .651.471.651 1.03 0 .07-.005.14-.016.214zm2.744.332c.032-.102.05-.212.05-.326 0-.506-.324-.903-.738-.903-.404 0-.733.405-.733.903 0 .033.002.067.005.101a13.446 13.446 0 0 0-.063-.023 1.368 1.368 0 0 1-.07-.434c0-.605.39-1.097.87-1.097s.87.492.87 1.097c0 .251-.07.492-.191.682zm-.354 1.178c-.007.03-.022.044-.184.128a4.983 4.983 0 0 0-.312.172l-.086.051c-.343.207-1.148.69-1.366.718-.148.02-.24-.037-.446-.176a6.443 6.443 0 0 0-.149-.098c-.372-.242-.61-.508-.638-.612.121-.093.422-.325.576-.463.312-.287.626-.48.782-.48l.023.001c.183.032.633.21.963.34.152.06.283.113.376.146.29.099.443.225.461.273zm2.617 13.443c.164-.734.353-1.733.323-2.322-.007-.134-.02-.28-.03-.42-.022-.264-.054-.655-.021-.771a.143.143 0 0 1 .022-.008c0 .337.075 1.008.617 1.242.161.07.346.106.548.106.543 0 1.146-.264 1.393-.509.145-.144.267-.32.353-.46a.55.55 0 0 1 .024.217c-.032.497.211 1.156.675 1.399l.067.035c.165.086.604.314.611.422 0 0-.004.013-.028.035-.11.1-.497.295-.87.484-.664.336-1.415.716-1.753 1.068-.475.496-1.013.829-1.338.829a.355.355 0 0 1-.106-.015c-.353-.109-.643-.613-.487-1.332zm-12.02-1.873c-.036-.167-.064-.299-.034-.426.023-.095.493-.196.694-.24.283-.06.575-.123.767-.238.258-.155.398-.441.522-.694.089-.182.181-.371.291-.433a.062.062 0 0 1 .034-.008c.206 0 .637.429.886.813.063.096.18.29.316.514.404.671.958 1.59 1.247 1.898.261.276.683.808.58 1.265-.077.354-.481.642-.577.706a.595.595 0 0 1-.128.011c-.554 0-1.65-.456-2.238-.701l-.088-.037c-.328-.136-.865-.222-1.384-.306-.413-.066-.979-.157-1.073-.238-.076-.085.012-.36.09-.602.056-.174.114-.354.146-.542.045-.301-.008-.546-.05-.742z"></path></g></svg> 